<svg width="28" height="28" viewBox="0 0 28 28" fill="none" xmlns="http://www.w3.org/2000/svg">
<path d="M0 14C0 12.1423 0 11.2135 0.102662 10.4337C0.811584 5.04888 5.04888 0.811584 10.4337 0.102662C11.2135 0 12.1423 0 14 0C15.8577 0 16.7865 0 17.5663 0.102662C22.9511 0.811584 27.1884 5.04888 27.8973 10.4337C28 11.2135 28 12.1423 28 14C28 15.8577 28 16.7865 27.8973 17.5663C27.1884 22.9511 22.9511 27.1884 17.5663 27.8973C16.7865 28 15.8577 28 14 28C12.1423 28 11.2135 28 10.4337 27.8973C5.04888 27.1884 0.811584 22.9511 0.102662 17.5663C0 16.7865 0 15.8577 0 14Z" fill="white" fill-opacity="0.3"/>
<path d="M16.1441 19.6602L11.4845 15.0005C10.9342 14.4502 10.9342 13.5498 11.4845 12.9995L16.1441 8.33984" stroke="white" stroke-width="1.608" stroke-miterlimit="10" stroke-linecap="round" stroke-linejoin="round"/>
</svg>
