<svg width="25" height="25" viewBox="0 0 25 25" fill="none" xmlns="http://www.w3.org/2000/svg">
<path d="M12.5 5.32777L11.8721 5.91124C11.9534 5.99268 12.051 6.05746 12.1589 6.10171C12.2667 6.14596 12.3828 6.16877 12.5 6.16877C12.6172 6.16877 12.7332 6.14596 12.8411 6.10171C12.949 6.05746 13.0466 5.99268 13.1279 5.91124L12.5 5.32777ZM9.50698 19.7146C7.74419 18.3738 5.81744 17.0644 4.28837 15.4037C2.7907 13.7745 1.74419 11.8749 1.74419 9.40865H0C0 12.4 1.2907 14.6823 2.98488 16.5213C4.64767 18.3278 6.7686 19.7752 8.42674 21.0364L9.50698 19.7146ZM1.74419 9.40865C1.74419 6.99625 3.15698 4.97208 5.08605 4.12045C6.96046 3.2935 9.47907 3.5123 11.8721 5.91124L13.1279 4.74543C10.2907 1.8988 6.99302 1.42866 4.36047 2.58998C1.78605 3.72661 0 6.36566 0 9.40865H1.74419ZM8.42674 21.0364C9.02326 21.4897 9.66279 21.9722 10.3105 22.338C10.9581 22.7038 11.6977 23 12.5 23V21.3169C12.1395 21.3169 11.7163 21.1823 11.1907 20.8849C10.664 20.5887 10.1186 20.1803 9.50698 19.7146L8.42674 21.0364ZM16.5733 21.0364C18.2314 19.7741 20.3523 18.3289 22.0151 16.5213C23.7093 14.6811 25 12.4 25 9.40865H23.2558C23.2558 11.8749 22.2093 13.7745 20.7116 15.4037C19.1826 17.0644 17.2558 18.3738 15.493 19.7146L16.5733 21.0364ZM25 9.40865C25 6.36566 23.2151 3.72661 20.6395 2.58998C18.007 1.42866 14.7116 1.8988 11.8721 4.74431L13.1279 5.91124C15.5209 3.51342 18.0395 3.2935 19.914 4.12045C21.843 4.97208 23.2558 6.99513 23.2558 9.40865H25ZM15.493 19.7146C14.8814 20.1803 14.336 20.5887 13.8093 20.8849C13.2826 21.1812 12.8605 21.3169 12.5 21.3169V23C13.3023 23 14.0419 22.7027 14.6895 22.338C15.3384 21.9722 15.9767 21.4897 16.5733 21.0364L15.493 19.7146Z" fill="white"/>
</svg>
