<svg width="24" height="24" viewBox="0 0 24 24" fill="none" xmlns="http://www.w3.org/2000/svg">
<path d="M21.752 2.74988H21.7578C21.9055 2.74765 22.051 2.7795 22.1836 2.84167L22.3115 2.91394C22.4132 2.9826 22.5013 3.0689 22.5713 3.16882L22.6348 3.27332C22.6924 3.38201 22.7304 3.50049 22.7451 3.62195L22.752 3.745V17.246C22.7519 17.478 22.6712 17.7018 22.5254 17.8798L22.459 17.953C22.2949 18.1171 22.0795 18.2184 21.8506 18.2411L21.752 18.246C16.9938 18.2456 14.6583 19.0198 13.25 20.1112V5.00574L13.2559 4.953L13.2725 4.9032C13.2862 4.87294 13.3056 4.84555 13.3301 4.82312C13.6486 4.55157 13.9935 4.31312 14.3594 4.11121L14.7314 3.92175L14.7354 3.9198C16.2311 3.20401 18.3293 2.81407 21.1738 2.75671L21.752 2.74988ZM1.25 3.74402C1.24983 3.62124 1.27186 3.49968 1.31543 3.38562L1.36621 3.27429C1.44293 3.12951 1.55468 3.0057 1.69043 2.91394L1.68945 2.91296C1.81198 2.83088 1.95184 2.77976 2.09668 2.75964L2.24316 2.74988H2.24805C5.19178 2.76296 7.38017 3.11011 8.95703 3.78113L9.26465 3.9198L9.26758 3.92175C9.64692 4.09931 10.0074 4.31463 10.3428 4.56433L10.6689 4.82507C10.6808 4.83579 10.6917 4.84748 10.7012 4.86023L10.7275 4.90515C10.7348 4.9211 10.7404 4.93793 10.7441 4.95496L10.75 5.00671V20.1503C9.73916 19.3859 8.50683 18.9252 7.18848 18.6493C5.63545 18.3243 3.92621 18.2469 2.25 18.2469C1.69833 18.2469 1.25 17.8145 1.25 17.1561V3.74402Z" stroke="white"/>
</svg>
