<svg width="320" height="358" viewBox="0 0 320 358" fill="none" xmlns="http://www.w3.org/2000/svg">
<path opacity="0.05" d="M240.557 229.524C282.811 187.27 282.811 118.762 240.557 76.5081C198.303 34.2539 129.795 34.2539 87.5411 76.5081C45.2869 118.762 45.2869 187.27 87.5411 229.524C129.795 271.778 198.303 271.778 240.557 229.524Z" fill="#D4C5FF"/>
<path opacity="0.1" d="M182.996 198.764C208.264 188.298 220.262 159.33 209.796 134.062C199.33 108.795 170.363 96.7962 145.095 107.262C119.828 117.728 107.829 146.696 118.295 171.964C128.761 197.231 157.729 209.23 182.996 198.764Z" fill="#D4C5FF"/>
<path opacity="0.07" d="M217.734 206.701C247.384 177.052 247.384 128.98 217.734 99.3307C188.084 69.6811 140.013 69.6811 110.363 99.3307C80.7136 128.98 80.7136 177.052 110.363 206.701C140.013 236.351 188.084 236.351 217.734 206.701Z" fill="#D4C5FF"/>
<path d="M66.2531 338.116C67.4417 337.878 68.6158 337.571 69.7695 337.199C70.4168 336.976 71.0544 336.687 71.7017 336.464C72.2481 336.344 72.75 336.073 73.1507 335.682C73.2503 335.573 73.3084 335.433 73.315 335.286C73.2949 335.171 73.2358 335.067 73.1477 334.992C73.0597 334.916 72.9481 334.873 72.8319 334.87C72.5999 334.88 72.3725 334.939 72.1654 335.044C68.3015 336.611 64.2045 337.525 60.0413 337.749C54.5928 338.155 48.7288 337.856 43.7439 335.431C38.3533 332.813 36.5371 327.702 37.1457 324.06C37.7543 320.418 40.4786 318.022 44.4201 317.539C53.8199 316.37 64.8523 321.993 71.2283 331.228C71.3081 331.34 71.4282 331.417 71.5633 331.442C71.6984 331.467 71.838 331.439 71.9528 331.364C72.0652 331.284 72.1415 331.163 72.165 331.027C72.1885 330.892 72.1574 330.752 72.0784 330.639C65.4899 321.094 54.0614 315.288 44.2849 316.506C39.841 317.056 36.7883 319.819 36.112 323.886C35.3005 328.794 38.2567 333.924 43.2899 336.368C47.869 338.59 53.1437 339.111 58.1672 338.928C60.7581 338.863 63.341 338.611 65.8956 338.174L66.2531 338.116Z" fill="#D4C5FF"/>
<path d="M68.4169 334.242C68.5214 334.222 68.617 334.169 68.6909 334.093C68.7648 334.016 68.8135 333.918 68.8303 333.813C68.8471 333.708 68.8314 333.6 68.7851 333.504C68.7388 333.408 68.6642 333.329 68.5714 333.276C58.4471 327.393 40.1113 322.65 39.9278 322.601C39.8612 322.584 39.7919 322.58 39.7238 322.59C39.6557 322.6 39.5902 322.623 39.5309 322.658C39.4717 322.693 39.42 322.739 39.3787 322.794C39.3374 322.849 39.3073 322.912 39.2902 322.978C39.2731 323.045 39.2692 323.114 39.2789 323.182C39.2885 323.25 39.3115 323.316 39.3465 323.375C39.3815 323.434 39.4278 323.486 39.4828 323.527C39.5378 323.569 39.6003 323.599 39.6669 323.616C39.8505 323.664 58.0221 328.359 68.0498 334.175C68.1589 334.244 68.2904 334.268 68.4169 334.242Z" fill="#D4C5FF"/>
<path d="M40.459 329.654C40.5275 329.635 40.5926 329.606 40.6522 329.567L46.4486 325.355C46.5045 325.316 46.552 325.265 46.5882 325.207C46.6244 325.149 46.6487 325.085 46.6595 325.017C46.6703 324.95 46.6674 324.881 46.6511 324.814C46.6348 324.748 46.6054 324.685 46.5645 324.63C46.4833 324.52 46.3617 324.445 46.2261 324.424C46.0904 324.402 45.9517 324.435 45.84 324.514L40.0436 328.727C39.9877 328.766 39.9402 328.816 39.904 328.874C39.8678 328.932 39.8435 328.997 39.8327 329.064C39.8219 329.132 39.8248 329.201 39.8411 329.267C39.8574 329.334 39.8868 329.396 39.9277 329.451C39.9871 329.533 40.069 329.595 40.1633 329.631C40.2576 329.667 40.3603 329.675 40.459 329.654Z" fill="#D4C5FF"/>
<path d="M46.4684 333.353C46.554 333.334 46.6337 333.295 46.7002 333.237L53.3757 327.615C53.4783 327.524 53.5417 327.396 53.5525 327.259C53.5633 327.123 53.5207 326.987 53.4337 326.881C53.3899 326.828 53.336 326.784 53.275 326.752C53.2141 326.72 53.1474 326.701 53.0789 326.696C53.0103 326.691 52.9414 326.699 52.8763 326.721C52.8111 326.743 52.7509 326.777 52.6995 326.823L46.0336 332.445C45.9274 332.534 45.8606 332.661 45.8479 332.798C45.8352 332.936 45.8777 333.073 45.966 333.179C46.0258 333.252 46.1043 333.306 46.1929 333.337C46.2814 333.367 46.3767 333.373 46.4684 333.353Z" fill="#D4C5FF"/>
<path d="M52.9701 335.749C53.0501 335.728 53.1254 335.692 53.1923 335.643L59.9547 329.982C60.0611 329.892 60.1274 329.764 60.1392 329.625C60.151 329.487 60.1072 329.349 60.0175 329.243C59.9279 329.137 59.7996 329.07 59.661 329.059C59.5224 329.047 59.3848 329.091 59.2785 329.18L52.574 334.841C52.521 334.885 52.4773 334.939 52.4456 335C52.4138 335.061 52.3947 335.128 52.3893 335.196C52.3839 335.265 52.3923 335.334 52.4141 335.399C52.4359 335.464 52.4706 335.524 52.5161 335.576C52.5709 335.641 52.6413 335.691 52.7207 335.721C52.8001 335.751 52.8859 335.761 52.9701 335.749Z" fill="#D4C5FF"/>
<path d="M60.3608 335.517C60.4445 335.498 60.5233 335.461 60.5927 335.411L64.6018 332.02C64.6541 331.977 64.6974 331.924 64.7291 331.864C64.7609 331.805 64.7805 331.739 64.7868 331.672C64.793 331.604 64.7859 331.536 64.7658 331.472C64.7456 331.407 64.7129 331.347 64.6694 331.295C64.581 331.189 64.454 331.122 64.3163 331.11C64.1787 331.097 64.0416 331.139 63.9353 331.228L59.9261 334.609C59.8198 334.697 59.753 334.824 59.7404 334.962C59.7277 335.1 59.7702 335.237 59.8585 335.343C59.9183 335.415 59.9967 335.47 60.0853 335.5C60.1739 335.531 60.2692 335.537 60.3608 335.517Z" fill="#D4C5FF"/>
<path d="M49.8305 326.552C49.9654 326.52 50.0824 326.436 50.1564 326.319C50.2304 326.202 50.2556 326.06 50.2266 325.924L48.8644 319.674C48.8506 319.608 48.8239 319.545 48.7858 319.49C48.7478 319.434 48.699 319.386 48.6425 319.349C48.5859 319.313 48.5226 319.287 48.4563 319.275C48.3899 319.263 48.3218 319.264 48.2558 319.278C48.1216 319.308 48.0047 319.39 47.9306 319.506C47.8564 319.621 47.8309 319.762 47.8597 319.896L49.2315 326.147C49.2572 326.28 49.3348 326.397 49.4471 326.473C49.5594 326.55 49.6973 326.578 49.8305 326.552Z" fill="#D4C5FF"/>
<path d="M56.7083 328.929C56.7747 328.913 56.8372 328.884 56.8923 328.844C56.9473 328.804 56.9938 328.753 57.0289 328.694C57.064 328.636 57.087 328.571 57.0967 328.503C57.1063 328.436 57.1024 328.367 57.0851 328.301L55.5008 321.877C55.4873 321.809 55.46 321.744 55.4205 321.687C55.381 321.631 55.3302 321.582 55.2712 321.546C55.2123 321.51 55.1464 321.486 55.0779 321.477C55.0093 321.467 54.9395 321.472 54.8728 321.49C54.8061 321.507 54.7434 321.537 54.6882 321.578C54.6331 321.62 54.5867 321.671 54.5517 321.731C54.5167 321.79 54.4937 321.855 54.4842 321.924C54.4746 321.992 54.4787 322.061 54.4961 322.128L56.0804 328.542C56.0951 328.61 56.1232 328.673 56.1631 328.729C56.2029 328.786 56.2536 328.833 56.3123 328.869C56.3709 328.905 56.4362 328.929 56.5042 328.939C56.5723 328.95 56.6417 328.946 56.7083 328.929Z" fill="#D4C5FF"/>
<path d="M62.1959 331.151C62.3301 331.121 62.447 331.039 62.5211 330.923C62.5953 330.807 62.6208 330.667 62.592 330.532L61.3361 324.736C61.3059 324.601 61.2245 324.484 61.1091 324.408C60.9937 324.332 60.8534 324.304 60.7178 324.33C60.5811 324.36 60.4618 324.443 60.3858 324.561C60.3099 324.678 60.2834 324.821 60.3121 324.958L61.5776 330.755C61.6077 330.889 61.6895 331.006 61.8053 331.08C61.9211 331.154 62.0614 331.179 62.1959 331.151Z" fill="#D4C5FF"/>
<path d="M77.5949 226.42C81.0244 226.42 89.9991 227.801 99.3505 240.592C115.774 263.005 109.765 293.59 108.886 297.59L103.186 300.15C103.476 288.084 101.853 280.558 97.6792 274.423C92.7427 267.159 86.0865 261.005 80.7249 256.068C78.0199 253.566 75.6917 251.412 74.0301 249.547C66.3016 240.901 65.152 234.197 70.3397 229.048C72.313 227.24 74.9207 226.285 77.5949 226.391M77.5949 225.425C74.675 225.306 71.8267 226.348 69.6732 228.323C64.1022 233.855 65.3162 241.127 73.3152 250.137C78.3677 255.817 89.5547 264.145 96.8871 274.926C101.408 281.563 102.606 289.9 102.191 301.618L109.707 298.237C109.707 298.237 118.082 264.541 100.123 239.964C92.5108 229.54 84.0481 225.396 77.5949 225.396V225.425Z" fill="#D4C5FF"/>
<path d="M107.514 288.663C107.369 288.663 107.229 288.607 107.124 288.506C107.02 288.405 106.959 288.267 106.954 288.122C106.471 253.972 72.1755 230.748 71.7987 230.526C71.7369 230.487 71.6833 230.437 71.6411 230.378C71.5988 230.319 71.5688 230.251 71.5526 230.18C71.5364 230.11 71.5345 230.036 71.5469 229.964C71.5593 229.893 71.5858 229.824 71.6248 229.763C71.7057 229.641 71.8306 229.556 71.9731 229.526C72.1156 229.495 72.2645 229.521 72.388 229.598C72.7358 229.821 107.572 253.383 108.065 288.103C108.066 288.176 108.053 288.249 108.026 288.317C107.998 288.385 107.958 288.446 107.907 288.499C107.856 288.551 107.794 288.592 107.727 288.62C107.66 288.649 107.587 288.663 107.514 288.663Z" fill="#D4C5FF"/>
<path d="M79.2281 236.119H79.1122C79.0409 236.104 78.9734 236.076 78.9134 236.034C78.8534 235.993 78.8022 235.941 78.7627 235.88C78.7231 235.818 78.6961 235.75 78.6831 235.679C78.6702 235.607 78.6715 235.534 78.6871 235.462L80.1169 228.7C80.1318 228.629 80.1606 228.561 80.2018 228.501C80.243 228.441 80.2956 228.39 80.3567 228.351C80.4178 228.311 80.4861 228.284 80.5577 228.271C80.6293 228.258 80.7027 228.259 80.7738 228.275C80.9163 228.307 81.0406 228.394 81.12 228.517C81.1994 228.64 81.2277 228.789 81.1989 228.932L79.7691 235.694C79.7406 235.816 79.6715 235.924 79.5731 236.002C79.4748 236.079 79.3531 236.12 79.2281 236.119Z" fill="#D4C5FF"/>
<path d="M72.7544 241.095C72.6348 241.096 72.5183 241.057 72.4225 240.986C72.3266 240.915 72.2566 240.814 72.2231 240.699C72.1843 240.557 72.2032 240.405 72.2755 240.277C72.3478 240.148 72.4678 240.054 72.6095 240.013L81.4393 237.53C81.5814 237.492 81.7331 237.511 81.8615 237.583C81.9899 237.655 82.0846 237.775 82.1252 237.917C82.1442 237.987 82.1493 238.059 82.1402 238.131C82.1311 238.203 82.1079 238.272 82.072 238.335C82.0362 238.398 81.9883 238.453 81.9311 238.497C81.8739 238.541 81.8085 238.574 81.7387 238.593L72.909 241.076C72.8589 241.091 72.8066 241.098 72.7544 241.095Z" fill="#D4C5FF"/>
<path d="M86.29 242.805H86.1354C86.0654 242.785 86.0001 242.751 85.9432 242.706C85.8863 242.66 85.839 242.604 85.804 242.541C85.7689 242.477 85.7469 242.407 85.7391 242.334C85.7313 242.262 85.738 242.189 85.7586 242.119L88.2414 233.309C88.282 233.169 88.3752 233.051 88.5014 232.979C88.6276 232.907 88.7768 232.886 88.9177 232.922C89.0593 232.963 89.1793 233.057 89.2516 233.186C89.324 233.314 89.3428 233.466 89.3041 233.608L86.8213 242.418C86.7834 242.53 86.7121 242.627 86.6169 242.696C86.5218 242.765 86.4076 242.803 86.29 242.805Z" fill="#D4C5FF"/>
<path d="M77.4693 249.287C77.334 249.292 77.2016 249.247 77.0972 249.161C76.9929 249.075 76.924 248.953 76.9037 248.819C76.8834 248.685 76.9131 248.549 76.9871 248.435C77.0611 248.322 77.1743 248.24 77.305 248.205L88.5886 244.814C88.6597 244.786 88.7357 244.774 88.8118 244.777C88.8879 244.781 88.9625 244.8 89.0308 244.834C89.0992 244.867 89.1598 244.915 89.2088 244.973C89.2579 245.031 89.2943 245.099 89.3157 245.172C89.3372 245.246 89.3433 245.322 89.3335 245.398C89.3238 245.473 89.2985 245.546 89.2592 245.611C89.2199 245.677 89.1675 245.733 89.1053 245.777C89.0431 245.821 88.9724 245.852 88.8977 245.867L77.6238 249.258C77.5745 249.277 77.5221 249.287 77.4693 249.287Z" fill="#D4C5FF"/>
<path d="M92.5979 250.051H92.4047C92.2687 249.997 92.1593 249.892 92.0997 249.758C92.0402 249.625 92.0352 249.473 92.0859 249.336L95.6893 239.675C95.7405 239.538 95.8441 239.427 95.9772 239.367C96.1104 239.306 96.2622 239.301 96.3993 239.352C96.5364 239.403 96.6475 239.507 96.7082 239.64C96.7689 239.773 96.7742 239.925 96.7229 240.062L93.1195 249.722C93.0753 249.823 93.0019 249.908 92.909 249.967C92.816 250.025 92.7077 250.054 92.5979 250.051Z" fill="#D4C5FF"/>
<path d="M83.2362 254.282C83.0967 254.289 82.9599 254.242 82.8534 254.152C82.747 254.061 82.6789 253.934 82.6629 253.795C82.6469 253.656 82.6843 253.517 82.7674 253.404C82.8506 253.292 82.9732 253.216 83.1106 253.19L93.3798 250.679C93.4502 250.662 93.5233 250.658 93.5949 250.67C93.6665 250.681 93.7353 250.706 93.7972 250.744C93.8591 250.781 93.9129 250.831 93.9557 250.889C93.9985 250.948 94.0293 251.014 94.0464 251.084C94.0635 251.155 94.0666 251.228 94.0555 251.3C94.0444 251.371 94.0193 251.44 93.9816 251.502C93.9439 251.564 93.8944 251.618 93.8359 251.66C93.7774 251.703 93.7111 251.734 93.6407 251.751L83.3715 254.224L83.2362 254.282Z" fill="#D4C5FF"/>
<path d="M97.5726 256.378C97.4786 256.375 97.3864 256.352 97.3021 256.31C97.1753 256.237 97.0821 256.117 97.0424 255.977C97.0027 255.836 97.0196 255.685 97.0896 255.557L101.282 247.905C101.308 247.828 101.351 247.756 101.408 247.697C101.464 247.638 101.533 247.591 101.61 247.561C101.686 247.532 101.768 247.519 101.85 247.524C101.932 247.529 102.012 247.553 102.084 247.592C102.156 247.632 102.218 247.687 102.266 247.753C102.315 247.819 102.348 247.895 102.364 247.976C102.379 248.057 102.377 248.14 102.357 248.219C102.337 248.299 102.3 248.373 102.248 248.437L98.046 256.088C97.9998 256.174 97.9317 256.246 97.8485 256.297C97.7653 256.348 97.6701 256.376 97.5726 256.378Z" fill="#D4C5FF"/>
<path d="M89.8833 260.068C89.7468 260.069 89.6148 260.019 89.5131 259.928C89.4113 259.837 89.347 259.711 89.3326 259.576C89.319 259.43 89.3629 259.285 89.455 259.171C89.5471 259.057 89.68 258.984 89.8253 258.967L98.2687 258.098C98.4144 258.084 98.5596 258.128 98.6733 258.22C98.7871 258.312 98.8603 258.445 98.8773 258.59C98.8853 258.663 98.8789 258.736 98.8584 258.806C98.838 258.876 98.8038 258.941 98.758 258.997C98.7122 259.054 98.6556 259.101 98.5915 259.136C98.5274 259.17 98.4571 259.192 98.3846 259.199L89.9413 260.068H89.8833Z" fill="#D4C5FF"/>
<path d="M101.09 263.237C100.984 263.236 100.88 263.206 100.79 263.15C100.729 263.111 100.677 263.06 100.635 263C100.594 262.941 100.565 262.874 100.55 262.803C100.534 262.732 100.533 262.659 100.546 262.587C100.56 262.516 100.587 262.448 100.626 262.387L104.838 255.808C104.918 255.685 105.042 255.598 105.184 255.566C105.327 255.533 105.477 255.558 105.601 255.634C105.663 255.673 105.717 255.723 105.759 255.782C105.801 255.841 105.831 255.909 105.848 255.98C105.864 256.05 105.866 256.124 105.853 256.196C105.841 256.267 105.814 256.336 105.775 256.397L101.554 262.986C101.504 263.064 101.436 263.128 101.354 263.172C101.273 263.216 101.182 263.238 101.09 263.237Z" fill="#D4C5FF"/>
<path d="M102.49 267.014L96.4133 266.888C96.3406 266.888 96.2686 266.874 96.2017 266.845C96.1348 266.817 96.0742 266.775 96.0237 266.723C95.9732 266.671 95.9338 266.609 95.9078 266.541C95.8818 266.473 95.8697 266.401 95.8723 266.328C95.8748 266.184 95.934 266.046 96.0369 265.945C96.1399 265.844 96.2786 265.787 96.4229 265.787L102.499 265.913C102.572 265.913 102.644 265.927 102.711 265.956C102.778 265.984 102.838 266.026 102.889 266.078C102.939 266.13 102.979 266.192 103.005 266.26C103.031 266.328 103.043 266.4 103.04 266.473C103.038 266.617 102.979 266.755 102.876 266.856C102.773 266.957 102.634 267.014 102.49 267.014Z" fill="#D4C5FF"/>
<path d="M104.587 271.593C104.469 271.591 104.355 271.554 104.258 271.487C104.2 271.444 104.15 271.39 104.113 271.328C104.075 271.266 104.05 271.197 104.039 271.125C104.029 271.053 104.032 270.98 104.05 270.909C104.067 270.839 104.099 270.772 104.142 270.714L107.765 265.758C107.808 265.7 107.862 265.651 107.924 265.613C107.987 265.576 108.056 265.551 108.127 265.54C108.199 265.53 108.272 265.533 108.343 265.551C108.413 265.568 108.479 265.599 108.538 265.642C108.596 265.686 108.645 265.74 108.683 265.802C108.72 265.864 108.745 265.933 108.756 266.005C108.767 266.077 108.763 266.15 108.746 266.22C108.728 266.291 108.697 266.357 108.654 266.415L105.031 271.361C104.982 271.434 104.915 271.493 104.838 271.533C104.76 271.574 104.674 271.594 104.587 271.593Z" fill="#D4C5FF"/>
<path d="M105.688 275.873L101.089 275.564C101.017 275.559 100.946 275.54 100.881 275.508C100.816 275.475 100.758 275.431 100.711 275.376C100.663 275.321 100.627 275.257 100.604 275.189C100.581 275.12 100.572 275.047 100.577 274.975C100.579 274.901 100.597 274.829 100.628 274.763C100.66 274.697 100.704 274.638 100.76 274.59C100.815 274.542 100.88 274.506 100.95 274.484C101.02 274.462 101.094 274.455 101.166 274.463L105.755 274.772C105.89 274.79 106.014 274.856 106.103 274.958C106.193 275.06 106.242 275.191 106.242 275.327C106.242 275.463 106.193 275.594 106.103 275.697C106.014 275.799 105.89 275.865 105.755 275.883L105.688 275.873Z" fill="#D4C5FF"/>
<path d="M227.488 318.486C227.363 318.488 227.241 318.449 227.142 318.373C227.042 318.298 226.97 318.192 226.938 318.071C220.301 290.19 241.912 264.706 244.394 261.894C245.959 260.127 250.993 253.934 250.268 248.466C250.108 247.368 249.705 246.32 249.088 245.397C248.472 244.475 247.657 243.701 246.703 243.134C244.567 241.709 242.033 241.002 239.468 241.115C233.671 241.327 227.411 245.327 221.818 252.369C213.993 262.223 210.225 283.959 213.857 297.957C214.947 302.148 216.378 306.241 218.137 310.197C219.552 313.374 221.685 316.178 224.368 318.39C224.628 318.569 224.837 318.812 224.977 319.095C224.577 319.259 224.13 319.259 223.73 319.095C223.342 318.924 222.983 318.692 222.668 318.409C220.348 316.399 218.521 313.884 217.325 311.057C215.458 306.926 213.946 302.644 212.804 298.257C209.008 283.718 212.804 261.972 220.968 251.712C226.764 244.409 233.323 240.255 239.429 240.033C242.222 239.913 244.98 240.688 247.302 242.245C248.388 242.896 249.315 243.781 250.015 244.836C250.715 245.89 251.171 247.088 251.35 248.341C252.142 254.263 246.858 260.784 245.216 262.638C242.762 265.401 221.489 290.499 228 317.839C228.035 317.977 228.014 318.122 227.942 318.245C227.863 318.37 227.738 318.46 227.595 318.496L227.488 318.486Z" fill="#D4C5FF"/>
<path d="M225.296 318.398C225.296 318.65 225.45 319.471 225.112 319.538C224.774 319.606 224.446 319.026 224.33 318.823C223.768 317.672 223.352 316.455 223.093 315.201C222.736 314.099 222.398 312.998 222.127 311.887C221.23 308.751 220.504 305.568 219.954 302.352C218.263 292.518 218.128 282.065 221.422 272.549C226.445 258.058 239.149 246.224 244.269 244.244C244.33 244.23 244.392 244.23 244.453 244.244C244.566 244.237 244.678 244.268 244.772 244.33C244.866 244.393 244.937 244.485 244.974 244.591C245.001 244.658 245.014 244.729 245.013 244.801C245.012 244.872 244.996 244.943 244.967 245.009C244.939 245.074 244.897 245.134 244.845 245.183C244.793 245.232 244.732 245.271 244.665 245.297C240.299 246.987 227.46 258.445 222.446 272.936C222.108 273.902 221.818 274.868 221.548 275.892C219.094 285.089 219.557 294.914 221.374 304.188C222.017 307.481 222.846 310.736 223.856 313.935C224.474 315.375 224.956 316.869 225.296 318.398Z" fill="#D4C5FF"/>
<path d="M247.872 251.799H247.766L237.468 250.282C237.326 250.258 237.2 250.18 237.115 250.065C237.03 249.949 236.994 249.805 237.014 249.664C237.031 249.539 237.092 249.424 237.186 249.339C237.279 249.255 237.4 249.205 237.526 249.2C237.561 249.195 237.597 249.195 237.632 249.2L247.93 250.678C247.999 250.689 248.065 250.713 248.125 250.75C248.185 250.786 248.237 250.834 248.278 250.89C248.325 250.946 248.359 251.011 248.377 251.081C248.396 251.151 248.398 251.225 248.384 251.296C248.366 251.421 248.305 251.536 248.212 251.62C248.118 251.705 247.998 251.754 247.872 251.76V251.799Z" fill="#D4C5FF"/>
<path d="M242.568 257.556L231.816 256.329C231.674 256.31 231.545 256.237 231.456 256.126C231.366 256.014 231.322 255.873 231.333 255.73C231.349 255.601 231.41 255.482 231.506 255.393C231.601 255.305 231.725 255.253 231.855 255.247L242.694 256.474C242.832 256.487 242.96 256.553 243.051 256.658C243.143 256.775 243.185 256.925 243.167 257.073C243.152 257.202 243.09 257.321 242.995 257.41C242.899 257.498 242.776 257.55 242.646 257.556H242.568Z" fill="#D4C5FF"/>
<path d="M239.11 263.237H239.003L227.923 261.604C227.852 261.594 227.785 261.569 227.724 261.533C227.663 261.496 227.609 261.447 227.567 261.39C227.525 261.332 227.495 261.267 227.478 261.198C227.461 261.129 227.458 261.057 227.469 260.986C227.487 260.861 227.548 260.747 227.641 260.662C227.735 260.577 227.855 260.528 227.981 260.522H228.087L239.177 262.194C239.248 262.198 239.318 262.215 239.382 262.246C239.446 262.277 239.504 262.32 239.551 262.373C239.599 262.426 239.636 262.487 239.659 262.554C239.683 262.622 239.693 262.693 239.689 262.764C239.686 262.835 239.668 262.904 239.637 262.969C239.606 263.033 239.563 263.09 239.51 263.138C239.457 263.185 239.396 263.222 239.329 263.246C239.262 263.269 239.19 263.28 239.119 263.276L239.11 263.237Z" fill="#D4C5FF"/>
<path d="M224.166 267.806C224.022 267.794 223.889 267.727 223.794 267.619C223.698 267.511 223.648 267.371 223.654 267.227C223.661 267.092 223.719 266.964 223.815 266.869C223.912 266.775 224.04 266.719 224.176 266.715L236.213 267.478C236.284 267.479 236.355 267.495 236.419 267.525C236.484 267.555 236.542 267.598 236.589 267.652C236.685 267.761 236.733 267.903 236.725 268.048C236.717 268.183 236.66 268.311 236.563 268.405C236.467 268.5 236.338 268.555 236.203 268.56L224.166 267.806Z" fill="#D4C5FF"/>
<path d="M221.693 273.863C221.548 273.856 221.413 273.792 221.315 273.685C221.217 273.578 221.166 273.438 221.171 273.293C221.178 273.157 221.235 273.028 221.331 272.932C221.428 272.836 221.556 272.778 221.693 272.771L232.995 273.264C233.128 273.282 233.249 273.347 233.337 273.447C233.425 273.548 233.473 273.677 233.473 273.81C233.473 273.943 233.425 274.072 233.337 274.173C233.249 274.273 233.128 274.338 232.995 274.356L221.693 273.863Z" fill="#D4C5FF"/>
<path d="M220.04 281.254C219.899 281.24 219.767 281.174 219.671 281.069C219.575 280.964 219.52 280.827 219.519 280.684C219.526 280.548 219.583 280.42 219.679 280.323C219.776 280.227 219.904 280.17 220.04 280.163L230.213 280.607C230.285 280.605 230.357 280.619 230.424 280.647C230.491 280.675 230.55 280.717 230.6 280.77C230.649 280.823 230.687 280.886 230.71 280.954C230.733 281.023 230.742 281.095 230.735 281.167C230.728 281.303 230.671 281.432 230.574 281.528C230.478 281.625 230.349 281.682 230.213 281.689L220.04 281.254Z" fill="#D4C5FF"/>
<path d="M219.335 287.292H219.219C219.088 287.267 218.971 287.195 218.89 287.09C218.809 286.985 218.769 286.853 218.779 286.721C218.788 286.588 218.846 286.464 218.942 286.371C219.037 286.279 219.163 286.225 219.296 286.219L227.334 286.036C227.404 286.035 227.473 286.048 227.538 286.075C227.603 286.101 227.661 286.141 227.711 286.19C227.765 286.239 227.809 286.298 227.839 286.365C227.869 286.432 227.884 286.504 227.884 286.577C227.887 286.719 227.834 286.856 227.736 286.959C227.639 287.062 227.505 287.122 227.363 287.127L219.335 287.292Z" fill="#D4C5FF"/>
<path d="M219.49 294.943H219.364C219.252 294.921 219.15 294.865 219.072 294.781C218.994 294.698 218.944 294.592 218.93 294.479C218.91 294.336 218.948 294.19 219.035 294.075C219.122 293.959 219.25 293.882 219.393 293.861L225.644 292.991C225.785 292.977 225.927 293.017 226.04 293.103C226.153 293.189 226.229 293.315 226.252 293.455C226.272 293.598 226.234 293.743 226.147 293.859C226.061 293.975 225.932 294.052 225.789 294.073L219.49 294.943Z" fill="#D4C5FF"/>
<path d="M220.186 301.203H220.07C219.968 301.182 219.874 301.133 219.799 301.062C219.723 300.99 219.67 300.898 219.645 300.797C219.627 300.728 219.624 300.656 219.634 300.586C219.645 300.515 219.669 300.448 219.706 300.386C219.743 300.325 219.792 300.272 219.849 300.23C219.906 300.188 219.972 300.157 220.041 300.14L225.325 298.807H225.431C225.557 298.802 225.681 298.84 225.782 298.916C225.882 298.992 225.953 299.1 225.982 299.223C226.002 299.292 226.007 299.365 225.997 299.436C225.987 299.508 225.962 299.577 225.924 299.638C225.888 299.7 225.839 299.753 225.781 299.795C225.722 299.836 225.656 299.865 225.586 299.879L220.302 301.213L220.186 301.203Z" fill="#D4C5FF"/>
<path d="M219.857 298.479H219.731H219.615L214.225 296.083C214.096 296.026 213.992 295.922 213.935 295.793C213.882 295.656 213.882 295.505 213.935 295.368C213.976 295.273 214.043 295.191 214.128 295.133C214.214 295.075 214.315 295.042 214.418 295.04C214.498 295.042 214.576 295.058 214.65 295.088L220.012 297.426C220.144 297.484 220.248 297.591 220.301 297.725C220.332 297.806 220.343 297.893 220.334 297.979C220.324 298.064 220.295 298.147 220.248 298.219C220.201 298.292 220.138 298.352 220.063 298.395C219.988 298.439 219.905 298.464 219.818 298.469L219.857 298.479Z" fill="#D4C5FF"/>
<path d="M219.316 290.721H219.19H219.074L213.5 288.238C213.368 288.18 213.264 288.073 213.21 287.939C213.157 287.805 213.157 287.657 213.21 287.523C213.239 287.456 213.28 287.396 213.332 287.346C213.384 287.295 213.446 287.256 213.513 287.23C213.581 287.204 213.653 287.191 213.725 287.194C213.798 287.196 213.869 287.213 213.935 287.243L219.509 289.726C219.626 289.773 219.723 289.859 219.783 289.969C219.843 290.08 219.863 290.208 219.839 290.331C219.815 290.455 219.749 290.566 219.652 290.646C219.554 290.726 219.432 290.77 219.306 290.769L219.316 290.721Z" fill="#D4C5FF"/>
<path d="M219.625 283.611C219.583 283.621 219.541 283.621 219.499 283.611C219.448 283.604 219.399 283.588 219.354 283.563L214.225 280.868C214.161 280.835 214.104 280.79 214.058 280.735C214.012 280.681 213.977 280.617 213.955 280.549C213.934 280.481 213.926 280.409 213.932 280.338C213.939 280.266 213.959 280.197 213.993 280.134C214.036 280.048 214.103 279.975 214.184 279.924C214.266 279.873 214.36 279.845 214.456 279.844C214.55 279.835 214.645 279.855 214.727 279.902L219.857 282.558C219.984 282.626 220.079 282.741 220.122 282.878C220.166 283.015 220.153 283.164 220.088 283.293C220.049 283.384 219.984 283.462 219.902 283.518C219.82 283.575 219.724 283.607 219.625 283.611Z" fill="#D4C5FF"/>
<path d="M220.997 276.481H220.871C220.788 276.468 220.711 276.431 220.649 276.375L215.587 272.511C215.529 272.468 215.481 272.415 215.444 272.354C215.408 272.292 215.384 272.224 215.374 272.153C215.355 272.009 215.393 271.863 215.481 271.748C215.531 271.685 215.594 271.634 215.666 271.598C215.737 271.561 215.816 271.54 215.896 271.535C216.025 271.531 216.151 271.572 216.253 271.651L221.306 275.515C221.363 275.558 221.412 275.612 221.448 275.673C221.485 275.735 221.509 275.804 221.519 275.875C221.529 275.946 221.524 276.018 221.506 276.087C221.488 276.156 221.456 276.221 221.412 276.278C221.362 276.341 221.299 276.392 221.227 276.429C221.156 276.466 221.077 276.487 220.997 276.491V276.481Z" fill="#D4C5FF"/>
<path d="M234.685 253.026H234.56C234.477 253.013 234.398 252.979 234.331 252.929C234.263 252.878 234.209 252.812 234.173 252.736L231.217 246.747C231.184 246.683 231.164 246.613 231.158 246.541C231.152 246.469 231.161 246.397 231.183 246.329C231.206 246.261 231.242 246.197 231.289 246.143C231.336 246.089 231.394 246.044 231.458 246.013C231.53 245.983 231.604 245.964 231.681 245.955C231.786 245.954 231.89 245.982 231.98 246.037C232.071 246.091 232.144 246.17 232.193 246.264L235.149 252.253C235.18 252.317 235.198 252.387 235.203 252.458C235.207 252.529 235.197 252.6 235.174 252.668C235.15 252.735 235.114 252.797 235.067 252.85C235.019 252.904 234.962 252.947 234.898 252.978C234.832 253.011 234.759 253.028 234.685 253.026Z" fill="#D4C5FF"/>
<path d="M229.711 258.919H229.585C229.507 258.903 229.433 258.871 229.368 258.824C229.303 258.778 229.248 258.718 229.209 258.648L225.344 251.422C225.279 251.295 225.265 251.147 225.307 251.01C225.348 250.873 225.441 250.757 225.567 250.688C225.64 250.646 225.723 250.623 225.808 250.62C225.91 250.618 226.011 250.644 226.1 250.695C226.188 250.746 226.261 250.821 226.31 250.91L230.175 258.127C230.208 258.189 230.23 258.258 230.237 258.329C230.244 258.4 230.237 258.472 230.216 258.54C230.196 258.608 230.162 258.672 230.116 258.727C230.071 258.782 230.015 258.827 229.952 258.861C229.879 258.903 229.795 258.923 229.711 258.919Z" fill="#D4C5FF"/>
<path d="M226.137 264.28H226.011C225.88 264.262 225.762 264.192 225.683 264.087L220.649 257.759C220.605 257.703 220.573 257.639 220.554 257.57C220.535 257.501 220.529 257.429 220.538 257.358C220.547 257.287 220.57 257.218 220.606 257.156C220.642 257.094 220.689 257.04 220.746 256.996C220.831 256.92 220.941 256.879 221.055 256.88C221.142 256.875 221.228 256.891 221.307 256.926C221.386 256.962 221.455 257.015 221.509 257.083L226.542 263.411C226.63 263.524 226.67 263.668 226.654 263.81C226.638 263.953 226.567 264.083 226.455 264.174C226.365 264.245 226.252 264.282 226.137 264.28Z" fill="#D4C5FF"/>
<path d="M223.025 270.405H222.9C222.784 270.386 222.678 270.328 222.6 270.241L217.403 264.647C217.353 264.594 217.315 264.532 217.29 264.464C217.265 264.396 217.254 264.323 217.258 264.251C217.259 264.18 217.275 264.109 217.305 264.044C217.335 263.979 217.378 263.922 217.432 263.874C217.524 263.782 217.649 263.73 217.78 263.729C217.857 263.726 217.935 263.74 218.007 263.77C218.078 263.8 218.143 263.846 218.195 263.903L223.402 269.497C223.498 269.606 223.549 269.748 223.547 269.893C223.54 270.036 223.478 270.172 223.373 270.27C223.275 270.351 223.153 270.399 223.025 270.405Z" fill="#D4C5FF"/>
<path d="M240.887 247.432H240.762C240.671 247.415 240.586 247.375 240.515 247.315C240.444 247.256 240.389 247.18 240.356 247.094L238.946 243.365C238.892 243.231 238.892 243.082 238.946 242.949C239.01 242.818 239.12 242.715 239.255 242.659H239.429C239.542 242.657 239.653 242.689 239.748 242.751C239.843 242.813 239.917 242.902 239.96 243.007L241.361 246.736C241.389 246.802 241.404 246.872 241.404 246.944C241.404 247.015 241.389 247.086 241.361 247.151C241.303 247.284 241.195 247.388 241.061 247.441L240.887 247.432Z" fill="#D4C5FF"/>
<path d="M113.058 334.271C104.116 339.97 93.3147 341.988 82.9173 339.903C79.6898 339.251 76.5729 338.139 73.6625 336.599C60.0024 329.267 64.2434 325.219 66.504 323.634C68.7645 322.05 74.8024 317.944 76.3385 314.254C72.8435 316.133 69.1664 317.651 65.364 318.785C59.8285 320.311 58.6692 322.968 53.2496 316.099C47.83 309.231 45.8689 297.377 45.8689 297.377C45.8689 297.377 55.0755 298.43 59.6449 294.711C59.6449 294.711 50.2065 293.445 47.0089 291.407C43.8112 289.368 44.0334 285.939 43.0674 280.104C42.1013 274.269 40.2851 267.709 43.3572 266.879C46.4292 266.048 54.6891 264.193 66.5426 268.685C66.5426 268.685 71.9042 278.152 71.9815 284.857C71.9815 284.857 74.3677 277.07 70.9478 266.55C75.0589 266.522 79.1364 267.29 82.956 268.811C89.4382 271.351 93.7275 274.056 95.0414 276.288C96.3552 278.52 98.3646 289.272 95.5244 298.275C95.5244 298.275 101.021 292.296 100.596 284.751C100.171 277.206 102.277 278.751 105.369 280.104C108.151 281.321 122.864 300.246 120.159 323.142C119.877 325.415 119.09 327.597 117.856 329.527C116.623 331.458 114.974 333.088 113.029 334.3L113.058 334.271Z" fill="#D4C5FF"/>
<path opacity="0.5" d="M113.058 334.271C104.116 339.97 93.3147 341.988 82.9173 339.903C79.6898 339.251 76.5729 338.139 73.6625 336.599C60.0024 329.267 64.2434 325.219 66.504 323.634C68.7645 322.05 74.8024 317.944 76.3385 314.254C72.8435 316.133 69.1664 317.651 65.364 318.785C59.8285 320.311 58.6692 322.968 53.2496 316.099C47.83 309.231 45.8689 297.377 45.8689 297.377C45.8689 297.377 55.0755 298.43 59.6449 294.711C59.6449 294.711 50.2065 293.445 47.0089 291.407C43.8112 289.368 44.0334 285.939 43.0674 280.104C42.1013 274.269 40.2851 267.709 43.3572 266.879C46.4292 266.048 54.6891 264.193 66.5426 268.685C66.5426 268.685 71.9042 278.152 71.9815 284.857C71.9815 284.857 74.3677 277.07 70.9478 266.55C75.0589 266.522 79.1364 267.29 82.956 268.811C89.4382 271.351 93.7275 274.056 95.0414 276.288C96.3552 278.52 98.3646 289.272 95.5244 298.275C95.5244 298.275 101.021 292.296 100.596 284.751C100.171 277.206 102.277 278.751 105.369 280.104C108.151 281.321 122.864 300.246 120.159 323.142C119.877 325.415 119.09 327.597 117.856 329.527C116.623 331.458 114.974 333.088 113.029 334.3L113.058 334.271Z" fill="#D4C5FF"/>
<path d="M108.48 333.228C108.404 333.228 108.329 333.209 108.262 333.174C108.195 333.139 108.137 333.088 108.094 333.025C75.4504 284.172 44.6331 269.777 44.3336 269.642C44.2361 269.584 44.1634 269.492 44.1292 269.383C44.0951 269.275 44.1019 269.158 44.1484 269.054C44.1948 268.951 44.2777 268.868 44.3813 268.821C44.4849 268.774 44.602 268.768 44.7104 268.802C45.0195 268.946 76.0687 283.428 108.866 332.513C108.901 332.563 108.925 332.619 108.937 332.679C108.949 332.738 108.95 332.799 108.938 332.858C108.926 332.918 108.903 332.974 108.869 333.025C108.835 333.075 108.792 333.118 108.741 333.151C108.663 333.201 108.573 333.228 108.48 333.228Z" fill="#D4C5FF"/>
<path d="M54.0618 308.806C53.9525 308.8 53.8487 308.756 53.7688 308.681C53.6889 308.606 53.6381 308.506 53.6253 308.397C53.6126 308.288 53.6388 308.178 53.6992 308.087C53.7597 307.996 53.8505 307.929 53.9556 307.898C54.1101 307.898 69.3256 304.323 80.0392 297.329C80.1411 297.278 80.2584 297.266 80.3686 297.296C80.4788 297.326 80.5741 297.395 80.6363 297.491C80.6985 297.586 80.7232 297.702 80.7057 297.815C80.6882 297.927 80.6298 298.03 80.5415 298.102C69.683 305.183 54.3033 308.729 54.1488 308.796L54.0618 308.806Z" fill="#D4C5FF"/>
<path d="M76.0976 330.03C75.9977 330.032 75.9 330.001 75.8197 329.941C75.7393 329.882 75.6808 329.798 75.6532 329.702C75.62 329.585 75.6338 329.46 75.6916 329.354C75.7494 329.247 75.8466 329.168 75.9624 329.132C76.0783 329.132 88.2506 325.326 98.0175 318.409C98.067 318.374 98.1227 318.35 98.1815 318.338C98.2403 318.325 98.3011 318.324 98.3603 318.335C98.4195 318.345 98.476 318.368 98.5266 318.4C98.5772 318.433 98.6208 318.475 98.6551 318.525C98.6893 318.574 98.7135 318.63 98.7262 318.689C98.7389 318.747 98.7399 318.808 98.7292 318.867C98.7184 318.927 98.6961 318.983 98.6635 319.034C98.6309 319.084 98.5886 319.128 98.5392 319.162C88.6564 326.156 76.3198 329.972 76.2328 330.011L76.0976 330.03Z" fill="#D4C5FF"/>
<path d="M58.622 282.781C54.7052 282.657 50.831 281.93 47.1355 280.626C47.0215 280.584 46.929 280.498 46.8782 280.388C46.8275 280.277 46.8228 280.151 46.865 280.037C46.9073 279.923 46.9931 279.83 47.1037 279.78C47.2142 279.729 47.3403 279.724 47.4543 279.766C47.5413 279.766 56.3807 282.983 62.6601 281.389C62.7178 281.374 62.7782 281.37 62.8375 281.378C62.8969 281.386 62.954 281.406 63.0054 281.436C63.0569 281.467 63.1016 281.508 63.1368 281.556C63.1721 281.604 63.1973 281.659 63.2108 281.718C63.2403 281.836 63.2224 281.96 63.161 282.065C63.0996 282.17 62.9995 282.246 62.8823 282.278C61.4878 282.618 60.0572 282.787 58.622 282.781Z" fill="#D4C5FF"/>
<path d="M85.4301 303.135H85.2852C85.2266 303.113 85.173 303.079 85.1279 303.035C85.0827 302.992 85.0468 302.94 85.0224 302.882C84.9981 302.824 84.9857 302.762 84.986 302.699C84.9863 302.636 84.9994 302.574 85.0244 302.517C91.0816 287.958 85.0823 273.641 85.0244 273.535C84.9977 273.478 84.983 273.417 84.9814 273.354C84.9797 273.291 84.991 273.229 85.0146 273.171C85.0382 273.113 85.0735 273.06 85.1185 273.017C85.1634 272.973 85.2169 272.939 85.2755 272.917C85.3319 272.891 85.3928 272.877 85.4546 272.876C85.5164 272.874 85.578 272.885 85.6356 272.907C85.6932 272.93 85.7457 272.964 85.7901 273.007C85.8344 273.05 85.8697 273.101 85.8938 273.158C85.9615 273.313 92.1152 287.997 85.8938 302.913C85.8462 302.991 85.777 303.053 85.6948 303.092C85.6125 303.132 85.5206 303.147 85.4301 303.135Z" fill="#D4C5FF"/>
<path d="M101.997 323.133C101.908 323.13 101.821 323.104 101.746 323.055C101.644 322.988 101.573 322.884 101.547 322.764C101.522 322.645 101.545 322.52 101.611 322.418C106.807 314.403 108.765 304.714 107.088 295.31C107.076 295.251 107.076 295.19 107.087 295.131C107.099 295.072 107.122 295.016 107.155 294.966C107.188 294.915 107.231 294.872 107.281 294.838C107.331 294.805 107.387 294.781 107.446 294.769C107.505 294.757 107.566 294.757 107.625 294.768C107.684 294.78 107.74 294.803 107.79 294.836C107.84 294.869 107.884 294.912 107.917 294.962C107.951 295.011 107.975 295.067 107.987 295.126C109.708 304.766 107.705 314.7 102.384 322.92C102.341 322.984 102.284 323.037 102.217 323.074C102.149 323.111 102.074 323.131 101.997 323.133Z" fill="#D4C5FF"/>
<path d="M256.798 347.139C255.8 346.392 254.834 345.6 253.9 344.763C252.238 343.173 250.81 341.355 249.659 339.362C249.539 339.202 249.465 339.012 249.447 338.812C249.438 338.71 249.468 338.609 249.531 338.528C249.593 338.448 249.684 338.394 249.785 338.377C249.94 338.4 250.081 338.479 250.181 338.599C250.669 339.139 251.12 339.71 251.533 340.309C254.363 343.91 257.863 346.928 261.841 349.197C265.89 351.731 270.329 353.578 274.98 354.665C277.166 355.155 279.405 355.373 281.646 355.312C288.611 355.061 292.939 350.482 294.011 346.308C295.083 342.135 293.296 338.319 289.335 335.952C279.868 330.291 265.493 331.122 254.374 337.933C254.238 338.016 254.074 338.042 253.919 338.006C253.763 337.97 253.628 337.874 253.543 337.739C253.501 337.672 253.473 337.596 253.46 337.518C253.448 337.439 253.451 337.359 253.47 337.281C253.489 337.204 253.523 337.131 253.57 337.067C253.618 337.003 253.677 336.949 253.746 336.909C265.232 329.847 280.119 329.035 289.954 334.919C294.426 337.595 296.378 341.961 295.18 346.608C293.741 352.211 288.195 356.269 281.655 356.52C277.478 356.579 273.328 355.831 269.435 354.317C265.912 352.956 262.565 351.179 259.465 349.023C258.547 348.424 257.658 347.796 256.798 347.139Z" fill="#D4C5FF"/>
<path d="M256.316 340.714H256.229C255.24 340.442 254.271 340.1 253.331 339.69C252.431 339.317 251.573 338.85 250.77 338.299C250.577 338.154 250.355 337.942 250.413 337.7C250.831 337.705 251.243 337.801 251.621 337.98L252.451 338.299C256.989 339.96 261.765 340.879 266.595 341.023C270.555 341.12 274.516 341.4 278.458 341.777C281.601 342.073 284.731 342.44 287.848 342.878C289.152 343.062 290.456 343.245 291.712 343.458C291.79 343.471 291.865 343.499 291.932 343.541C292 343.583 292.058 343.638 292.104 343.703C292.15 343.767 292.182 343.841 292.199 343.918C292.217 343.995 292.219 344.075 292.205 344.153C292.179 344.312 292.091 344.454 291.961 344.548C291.83 344.642 291.668 344.681 291.509 344.656L290.891 344.55C288.869 344.24 286.843 343.96 284.814 343.709C281.404 343.274 277.975 342.917 274.536 342.656C272.091 342.463 269.647 342.289 267.193 342.318C264.714 342.329 262.241 342.083 259.813 341.584C258.654 341.352 257.475 341.062 256.316 340.714Z" fill="#D4C5FF"/>
<path d="M287.867 350.694C287.797 350.645 287.738 350.583 287.693 350.511L283.452 343.294C283.371 343.156 283.347 342.991 283.387 342.835C283.427 342.679 283.527 342.546 283.665 342.463C283.804 342.384 283.968 342.362 284.123 342.402C284.278 342.442 284.411 342.54 284.495 342.676L288.736 349.902C288.778 349.969 288.805 350.045 288.817 350.123C288.829 350.201 288.824 350.281 288.805 350.358C288.785 350.434 288.75 350.506 288.701 350.569C288.653 350.632 288.593 350.684 288.524 350.723C288.423 350.783 288.308 350.812 288.191 350.807C288.074 350.802 287.962 350.762 287.867 350.694Z" fill="#D4C5FF"/>
<path d="M279.752 351.805C279.669 351.752 279.605 351.675 279.569 351.583L275.076 342.454C275.019 342.311 275.018 342.152 275.074 342.008C275.129 341.865 275.237 341.747 275.375 341.68C275.513 341.613 275.672 341.6 275.819 341.645C275.966 341.69 276.091 341.789 276.168 341.922L280.622 351.042C280.687 351.163 280.708 351.303 280.682 351.438C280.656 351.573 280.584 351.695 280.479 351.784C280.373 351.872 280.241 351.922 280.103 351.924C279.965 351.926 279.831 351.881 279.723 351.795L279.752 351.805Z" fill="#D4C5FF"/>
<path d="M271.696 351.312C271.609 351.256 271.541 351.175 271.502 351.08L267.02 341.912C266.985 341.841 266.965 341.764 266.961 341.685C266.956 341.606 266.967 341.528 266.993 341.453C267.019 341.378 267.06 341.31 267.112 341.251C267.165 341.192 267.229 341.144 267.3 341.11C267.37 341.074 267.447 341.053 267.526 341.047C267.604 341.041 267.683 341.051 267.758 341.076C267.833 341.101 267.902 341.141 267.961 341.193C268.02 341.246 268.068 341.31 268.102 341.381L272.584 350.549C272.62 350.62 272.642 350.698 272.647 350.778C272.652 350.858 272.642 350.938 272.616 351.014C272.589 351.089 272.548 351.159 272.495 351.218C272.442 351.278 272.377 351.326 272.304 351.36C272.208 351.41 272.101 351.431 271.993 351.423C271.886 351.414 271.782 351.376 271.696 351.312Z" fill="#D4C5FF"/>
<path d="M263.928 347.593C263.849 347.533 263.783 347.457 263.735 347.371L261.059 341.883C261.017 341.811 260.99 341.731 260.981 341.648C260.971 341.565 260.979 341.481 261.003 341.401C261.028 341.321 261.068 341.247 261.123 341.183C261.177 341.119 261.244 341.068 261.319 341.031C261.394 340.995 261.476 340.974 261.56 340.97C261.643 340.967 261.726 340.98 261.804 341.011C261.882 341.041 261.953 341.087 262.013 341.145C262.072 341.204 262.119 341.274 262.15 341.352L264.826 346.83C264.896 346.974 264.906 347.141 264.854 347.293C264.801 347.445 264.691 347.57 264.546 347.641C264.449 347.691 264.339 347.713 264.23 347.705C264.121 347.696 264.016 347.657 263.928 347.593Z" fill="#D4C5FF"/>
<path d="M279.356 342.994C279.227 342.898 279.141 342.755 279.118 342.595C279.094 342.436 279.135 342.274 279.231 342.144L283.617 336.135C283.663 336.071 283.721 336.016 283.788 335.975C283.856 335.933 283.931 335.905 284.009 335.892C284.087 335.88 284.167 335.883 284.244 335.901C284.321 335.92 284.393 335.953 284.457 336C284.586 336.096 284.672 336.239 284.697 336.398C284.722 336.556 284.685 336.719 284.592 336.85L280.197 342.859C280.151 342.923 280.092 342.978 280.025 343.02C279.958 343.061 279.883 343.089 279.805 343.102C279.727 343.115 279.647 343.112 279.57 343.093C279.493 343.075 279.42 343.041 279.356 342.994Z" fill="#D4C5FF"/>
<path d="M270.904 342.309C270.777 342.21 270.696 342.065 270.676 341.906C270.656 341.746 270.699 341.586 270.797 341.459L275.502 335.372C275.548 335.306 275.607 335.25 275.676 335.207C275.745 335.165 275.821 335.137 275.902 335.126C275.982 335.115 276.063 335.121 276.141 335.144C276.218 335.166 276.29 335.205 276.352 335.257C276.478 335.356 276.56 335.501 276.58 335.66C276.6 335.819 276.556 335.98 276.458 336.107L271.754 342.193C271.706 342.257 271.646 342.311 271.577 342.352C271.509 342.393 271.432 342.419 271.353 342.43C271.274 342.441 271.193 342.436 271.116 342.415C271.039 342.394 270.967 342.358 270.904 342.309Z" fill="#D4C5FF"/>
<path d="M264.026 342.087C263.961 342.04 263.907 341.982 263.865 341.915C263.823 341.848 263.795 341.773 263.783 341.695C263.77 341.616 263.773 341.536 263.792 341.46C263.81 341.383 263.844 341.31 263.89 341.246L267.938 335.682C268.037 335.557 268.18 335.474 268.337 335.449C268.494 335.424 268.655 335.459 268.788 335.546C268.853 335.592 268.907 335.651 268.949 335.718C268.991 335.785 269.019 335.86 269.031 335.938C269.044 336.017 269.041 336.096 269.022 336.173C269.004 336.25 268.97 336.323 268.923 336.387L264.866 341.951C264.771 342.079 264.63 342.165 264.473 342.19C264.316 342.216 264.156 342.178 264.026 342.087Z" fill="#D4C5FF"/>
<path d="M236.154 337.025C244.066 338.068 259.175 343.111 274.188 331.721C289.2 320.331 295.441 287.736 292.04 277.699C289.654 270.685 249.186 272.588 234.569 286.664C219.953 300.739 218.697 327.122 236.154 337.025Z" fill="#D4C5FF"/>
<path opacity="0.5" d="M236.154 337.025C244.066 338.068 259.175 343.111 274.188 331.721C289.2 320.331 295.441 287.736 292.04 277.699C289.654 270.685 249.186 272.588 234.569 286.664C219.953 300.739 218.697 327.122 236.154 337.025Z" fill="#D4C5FF"/>
<path d="M232.589 331.527C232.502 331.442 232.44 331.335 232.409 331.218C232.379 331.1 232.381 330.977 232.415 330.86C239.593 304.159 269.966 282.615 284.949 278.046C285.117 277.998 285.297 278.017 285.451 278.1C285.604 278.183 285.719 278.324 285.771 278.49C285.819 278.656 285.8 278.833 285.719 278.985C285.638 279.137 285.5 279.251 285.336 279.302C270.594 283.794 240.733 304.97 233.681 331.199C233.659 331.282 233.622 331.361 233.57 331.43C233.517 331.498 233.452 331.556 233.377 331.599C233.303 331.642 233.22 331.67 233.134 331.681C233.049 331.692 232.962 331.685 232.879 331.662C232.772 331.645 232.671 331.598 232.589 331.527Z" fill="#D4C5FF"/>
<path d="M265.107 289.59C265.016 289.499 264.954 289.381 264.93 289.254C264.906 289.126 264.92 288.995 264.972 288.876C265.04 288.716 265.169 288.589 265.33 288.524C265.491 288.459 265.672 288.46 265.832 288.528C270.45 290.46 278.816 291.822 285.25 290.518C285.42 290.484 285.597 290.518 285.742 290.614C285.887 290.71 285.988 290.86 286.022 291.03C286.054 291.2 286.018 291.376 285.923 291.52C285.827 291.664 285.679 291.766 285.51 291.803C278.825 293.155 270.121 291.754 265.32 289.735C265.242 289.698 265.17 289.649 265.107 289.59Z" fill="#D4C5FF"/>
<path d="M259.378 293.745C259.291 293.683 259.221 293.6 259.175 293.503C256.789 288.673 256.161 284.703 257.146 280.742C257.19 280.575 257.297 280.431 257.445 280.343C257.594 280.254 257.771 280.227 257.939 280.268C258.022 280.289 258.101 280.325 258.17 280.376C258.239 280.427 258.297 280.492 258.341 280.565C258.385 280.639 258.414 280.721 258.426 280.806C258.439 280.891 258.434 280.977 258.412 281.061C257.514 284.703 258.103 288.354 260.344 292.924C260.418 293.08 260.429 293.26 260.373 293.424C260.317 293.588 260.199 293.724 260.045 293.803C259.938 293.852 259.821 293.872 259.704 293.862C259.587 293.852 259.475 293.812 259.378 293.745Z" fill="#D4C5FF"/>
<path d="M253.196 299.444C253.094 299.343 253.029 299.212 253.012 299.07C252.994 298.928 253.025 298.784 253.099 298.662C253.141 298.587 253.198 298.521 253.265 298.469C253.333 298.416 253.41 298.378 253.493 298.355C253.576 298.333 253.662 298.327 253.747 298.338C253.832 298.349 253.914 298.377 253.988 298.42C261.716 302.845 273.251 306.709 282.235 304.216C282.318 304.193 282.404 304.186 282.489 304.196C282.574 304.207 282.657 304.234 282.731 304.276C282.806 304.318 282.871 304.375 282.924 304.442C282.976 304.51 283.015 304.588 283.037 304.671C283.061 304.754 283.067 304.842 283.056 304.928C283.046 305.014 283.018 305.098 282.975 305.173C282.932 305.249 282.874 305.315 282.805 305.368C282.736 305.421 282.658 305.46 282.574 305.482C274.623 307.656 263.697 305.424 253.341 299.521C253.289 299.503 253.24 299.477 253.196 299.444Z" fill="#D4C5FF"/>
<path d="M246.037 306.864C245.953 306.805 245.886 306.725 245.844 306.632C242.366 299.811 240.589 293.802 240.26 287.745C240.252 287.573 240.313 287.404 240.428 287.275C240.544 287.147 240.706 287.069 240.878 287.059C241.052 287.051 241.222 287.111 241.352 287.227C241.482 287.342 241.562 287.504 241.574 287.678C241.893 293.542 243.622 299.377 247.003 306.033C247.082 306.188 247.097 306.368 247.044 306.534C246.992 306.7 246.877 306.839 246.723 306.921C246.614 306.975 246.493 306.998 246.372 306.988C246.251 306.978 246.135 306.935 246.037 306.864Z" fill="#D4C5FF"/>
<path d="M241.053 313.655C240.955 313.552 240.894 313.42 240.876 313.279C240.859 313.139 240.887 312.996 240.956 312.872C240.998 312.797 241.055 312.73 241.123 312.676C241.192 312.623 241.27 312.584 241.354 312.561C241.438 312.539 241.525 312.533 241.611 312.545C241.697 312.557 241.78 312.586 241.854 312.631C252.529 318.727 262.77 321.132 274.073 320.205C274.159 320.196 274.246 320.204 274.328 320.229C274.411 320.255 274.488 320.297 274.554 320.353C274.62 320.409 274.674 320.478 274.712 320.555C274.751 320.633 274.773 320.717 274.778 320.804C274.786 320.89 274.776 320.976 274.75 321.058C274.724 321.14 274.682 321.217 274.627 321.282C274.571 321.348 274.502 321.402 274.426 321.441C274.349 321.48 274.265 321.503 274.179 321.509C262.76 322.475 251.959 319.915 241.198 313.781L241.053 313.655Z" fill="#D4C5FF"/>
<g opacity="0.5">
<path d="M291.866 185.952C291.695 185.867 291.564 185.718 291.501 185.538C291.438 185.358 291.448 185.16 291.528 184.986L291.808 184.329C292.17 183.504 292.22 182.576 291.95 181.716C291.68 180.857 291.108 180.124 290.34 179.654L289.731 179.267C289.585 179.163 289.482 179.009 289.441 178.834C289.4 178.659 289.423 178.475 289.506 178.317C289.59 178.158 289.728 178.034 289.896 177.969C290.063 177.904 290.248 177.902 290.417 177.963L291.074 178.243C291.901 178.605 292.83 178.656 293.691 178.386C294.553 178.116 295.287 177.544 295.759 176.775L296.136 176.166C296.234 176.009 296.389 175.894 296.568 175.846C296.747 175.797 296.938 175.819 297.102 175.905C297.273 175.991 297.404 176.139 297.467 176.32C297.53 176.5 297.521 176.698 297.44 176.871L297.16 177.528C296.8 178.355 296.751 179.284 297.02 180.145C297.29 181.006 297.861 181.74 298.629 182.214L299.237 182.59C299.383 182.695 299.486 182.849 299.527 183.024C299.569 183.198 299.545 183.382 299.462 183.541C299.378 183.7 299.24 183.823 299.073 183.888C298.905 183.953 298.72 183.956 298.551 183.895L297.894 183.614C297.069 183.255 296.141 183.206 295.282 183.476C294.423 183.745 293.691 184.316 293.219 185.083L292.832 185.692C292.734 185.849 292.58 185.964 292.4 186.012C292.221 186.06 292.03 186.039 291.866 185.952ZM292.784 180.05C293.276 180.827 293.556 181.72 293.595 182.639C294.373 182.147 295.265 181.867 296.184 181.827C295.691 181.051 295.411 180.158 295.373 179.238C294.597 179.735 293.704 180.018 292.784 180.059V180.05Z" fill="#D4C5FF"/>
</g>
<path d="M3.26659 183.788C3.16854 183.797 3.07096 183.767 2.99377 183.706C2.91658 183.645 2.86558 183.557 2.85118 183.46L2.78356 183.054C2.70715 182.581 2.46317 182.15 2.0961 181.842C1.72903 181.533 1.2633 181.367 0.783815 181.373H0.39739C0.297176 181.373 0.20058 181.336 0.127079 181.268C0.0535786 181.199 0.00863483 181.106 0.0013024 181.006C-0.00713741 180.908 0.0221509 180.81 0.0831881 180.733C0.144225 180.656 0.232416 180.605 0.329766 180.591L0.706529 180.523C1.17993 180.447 1.61011 180.203 1.91867 179.836C2.22722 179.468 2.3936 179.003 2.38747 178.523V178.224C2.387 178.125 2.42338 178.03 2.4895 177.957C2.55561 177.883 2.6467 177.837 2.74491 177.828C2.84408 177.819 2.94287 177.848 3.02164 177.909C3.1004 177.97 3.15336 178.058 3.16998 178.156L3.22794 178.533C3.31692 178.997 3.56758 179.415 3.93546 179.712C4.30333 180.009 4.76459 180.167 5.23734 180.156H5.61411C5.71013 180.16 5.80132 180.199 5.87069 180.266C5.94006 180.332 5.98288 180.422 5.99115 180.517C5.99943 180.613 5.9726 180.709 5.91567 180.786C5.85875 180.864 5.7756 180.918 5.68174 180.938L5.30497 180.996C4.82143 181.074 4.38318 181.326 4.07335 181.706C3.76352 182.085 3.60363 182.565 3.62402 183.054V183.431C3.6245 183.53 3.58811 183.625 3.522 183.698C3.45588 183.771 3.3648 183.817 3.26659 183.827V183.788ZM1.99139 180.89C2.43794 181.108 2.81813 181.442 3.0927 181.856C3.3107 181.407 3.64407 181.023 4.05876 180.745C3.60679 180.531 3.22243 180.197 2.94779 179.779C2.7348 180.224 2.40401 180.601 1.99139 180.871V180.89Z" fill="#D4C5FF"/>
<g opacity="0.5">
<path d="M28.4991 237.781C28.3475 237.795 28.1963 237.751 28.0761 237.658C27.9559 237.564 27.8757 237.429 27.8518 237.278L27.7552 236.709C27.6411 235.988 27.2702 235.333 26.7109 234.864C26.1516 234.395 25.4417 234.144 24.7121 234.158H24.1325C23.9736 234.171 23.8162 234.12 23.6948 234.017C23.5734 233.914 23.498 233.766 23.4852 233.607C23.4724 233.449 23.5232 233.291 23.6265 233.17C23.7298 233.048 23.877 232.973 24.0359 232.96L24.6058 232.873C25.3257 232.757 25.9797 232.386 26.4481 231.827C26.9165 231.268 27.1679 230.559 27.1562 229.83V229.251C27.1556 229.099 27.2117 228.952 27.3135 228.839C27.4154 228.727 27.5557 228.656 27.7069 228.642C27.8568 228.63 28.0056 228.676 28.1238 228.769C28.2419 228.862 28.3207 228.996 28.3445 229.144L28.4411 229.714C28.5442 230.443 28.9088 231.109 29.4669 231.589C30.025 232.069 30.7385 232.33 31.4745 232.323H32.0542C32.2056 232.32 32.3524 232.375 32.4639 232.478C32.5755 232.581 32.6432 232.722 32.6531 232.873C32.6673 233.022 32.6243 233.171 32.5328 233.289C32.4413 233.408 32.3082 233.487 32.1604 233.511L31.5808 233.607C30.8626 233.723 30.2099 234.093 29.7417 234.65C29.2736 235.207 29.0211 235.913 29.0304 236.641V237.221C29.0335 237.371 28.9796 237.518 28.8792 237.631C28.7789 237.744 28.6397 237.815 28.4894 237.829L28.4991 237.781ZM26.5669 233.356C27.2448 233.665 27.8259 234.153 28.2479 234.767C28.5632 234.093 29.0495 233.513 29.6583 233.086C28.9845 232.77 28.4049 232.284 27.9774 231.675C27.6599 232.354 27.1661 232.934 26.5476 233.356H26.5669Z" fill="#D4C5FF"/>
</g>
<g opacity="0.5">
<path d="M26.1325 202.772C25.6476 202.573 25.2325 202.236 24.9397 201.801C24.6469 201.367 24.4897 200.855 24.4878 200.331C24.486 199.807 24.6396 199.295 24.9293 198.858C25.219 198.422 25.6318 198.081 26.1153 197.879C26.5987 197.677 27.1312 197.623 27.6453 197.725C28.1594 197.826 28.6319 198.077 29.003 198.447C29.3742 198.816 29.6272 199.288 29.7302 199.802C29.8331 200.315 29.7813 200.848 29.5813 201.332C29.45 201.654 29.2564 201.946 29.0118 202.192C28.7672 202.439 28.4763 202.635 28.1559 202.768C27.8354 202.902 27.4918 202.971 27.1445 202.972C26.7973 202.972 26.4534 202.904 26.1325 202.772ZM27.8328 198.647C27.5018 198.507 27.1367 198.468 26.7837 198.535C26.4307 198.603 26.1056 198.773 25.8497 199.026C25.5937 199.278 25.4184 199.6 25.3458 199.952C25.2733 200.304 25.3068 200.67 25.4422 201.003C25.5775 201.336 25.8086 201.621 26.1061 201.823C26.4037 202.024 26.7544 202.133 27.1138 202.135C27.4732 202.137 27.8251 202.033 28.1251 201.835C28.425 201.637 28.6595 201.354 28.7988 201.023C28.98 200.579 28.9804 200.082 28.7999 199.638C28.6194 199.194 28.2722 198.838 27.8328 198.647Z" fill="#D4C5FF"/>
</g>
<g opacity="0.5">
<path d="M276.923 227.01C276.621 226.581 276.454 226.073 276.441 225.549C276.429 225.025 276.572 224.51 276.853 224.068C277.134 223.625 277.54 223.276 278.019 223.065C278.499 222.854 279.03 222.789 279.546 222.88C280.062 222.971 280.539 223.212 280.918 223.575C281.296 223.937 281.559 224.403 281.672 224.915C281.785 225.426 281.744 225.96 281.554 226.448C281.364 226.936 281.033 227.357 280.603 227.657C280.319 227.857 279.999 227.999 279.66 228.074C279.321 228.15 278.97 228.158 278.628 228.098C278.286 228.038 277.96 227.911 277.667 227.724C277.374 227.537 277.121 227.294 276.923 227.01ZM280.574 224.45C280.368 224.156 280.079 223.93 279.744 223.8C279.409 223.67 279.043 223.642 278.693 223.72C278.342 223.799 278.023 223.979 277.775 224.238C277.527 224.498 277.361 224.825 277.299 225.179C277.237 225.533 277.281 225.897 277.426 226.226C277.571 226.554 277.81 226.833 278.113 227.025C278.416 227.218 278.769 227.317 279.128 227.309C279.487 227.301 279.836 227.187 280.13 226.981C280.325 226.844 280.492 226.67 280.62 226.468C280.748 226.267 280.835 226.042 280.877 225.807C280.918 225.572 280.912 225.331 280.861 225.098C280.809 224.865 280.711 224.645 280.574 224.45Z" fill="#D4C5FF"/>
</g>
<g opacity="0.5">
<path d="M314.636 173.568C314.338 173.14 314.173 172.634 314.162 172.113C314.151 171.592 314.295 171.079 314.576 170.64C314.856 170.201 315.26 169.854 315.737 169.644C316.214 169.434 316.743 169.37 317.256 169.461C317.769 169.551 318.244 169.791 318.621 170.151C318.998 170.511 319.26 170.975 319.373 171.484C319.487 171.992 319.447 172.523 319.259 173.009C319.071 173.495 318.743 173.915 318.317 174.215C318.033 174.415 317.713 174.557 317.374 174.632C317.035 174.708 316.684 174.716 316.342 174.656C316 174.596 315.674 174.469 315.381 174.282C315.088 174.095 314.835 173.852 314.636 173.568ZM318.288 171.008C318.081 170.712 317.79 170.484 317.454 170.353C317.117 170.222 316.749 170.195 316.396 170.273C316.043 170.352 315.722 170.533 315.472 170.794C315.223 171.055 315.056 171.385 314.994 171.741C314.932 172.097 314.977 172.463 315.123 172.793C315.269 173.124 315.51 173.404 315.815 173.597C316.12 173.791 316.475 173.889 316.837 173.881C317.198 173.872 317.548 173.756 317.844 173.548C318.239 173.27 318.508 172.846 318.591 172.37C318.675 171.894 318.566 171.404 318.288 171.008Z" fill="#D4C5FF"/>
</g>
<path d="M301.759 203.883C301.676 203.838 301.614 203.762 301.585 203.672C301.556 203.582 301.563 203.485 301.604 203.4L302.155 202.347C302.2 202.264 302.276 202.202 302.366 202.173C302.456 202.144 302.553 202.151 302.638 202.192C302.721 202.237 302.783 202.313 302.81 202.404C302.837 202.494 302.828 202.592 302.783 202.675L302.232 203.728C302.212 203.77 302.183 203.807 302.148 203.837C302.113 203.868 302.072 203.891 302.028 203.905C301.984 203.92 301.938 203.925 301.891 203.921C301.845 203.917 301.8 203.904 301.759 203.883Z" fill="#D4C5FF"/>
<path d="M300.793 204.182L299.74 203.622C299.698 203.602 299.661 203.573 299.631 203.538C299.601 203.502 299.578 203.461 299.564 203.417C299.551 203.372 299.546 203.326 299.552 203.28C299.557 203.233 299.572 203.189 299.595 203.149C299.64 203.066 299.716 203.003 299.806 202.974C299.895 202.946 299.993 202.953 300.078 202.994L301.131 203.545C301.214 203.59 301.276 203.666 301.303 203.756C301.33 203.847 301.321 203.944 301.276 204.028C301.231 204.111 301.155 204.173 301.065 204.202C300.975 204.231 300.878 204.224 300.793 204.182Z" fill="#D4C5FF"/>
<path d="M300.513 206.24C300.431 206.194 300.368 206.119 300.339 206.029C300.311 205.939 300.318 205.841 300.359 205.757L300.919 204.704C300.94 204.662 300.968 204.625 301.004 204.594C301.039 204.564 301.08 204.542 301.124 204.528C301.169 204.514 301.216 204.51 301.262 204.515C301.308 204.521 301.352 204.535 301.393 204.559C301.476 204.604 301.538 204.679 301.567 204.769C301.595 204.859 301.588 204.957 301.547 205.042L300.996 206.095C300.951 206.178 300.875 206.24 300.785 206.267C300.694 206.294 300.597 206.284 300.513 206.24Z" fill="#D4C5FF"/>
<path d="M303.17 205.418L302.117 204.868C302.075 204.846 302.038 204.817 302.007 204.781C301.977 204.744 301.954 204.702 301.941 204.657C301.927 204.612 301.923 204.565 301.929 204.518C301.934 204.471 301.949 204.426 301.972 204.385C301.992 204.343 302.021 204.306 302.056 204.276C302.092 204.245 302.133 204.223 302.177 204.209C302.222 204.196 302.268 204.191 302.315 204.197C302.361 204.202 302.405 204.216 302.446 204.24L303.499 204.79C303.581 204.836 303.644 204.911 303.673 205.001C303.701 205.091 303.694 205.189 303.653 205.273C303.608 205.357 303.532 205.418 303.442 205.446C303.351 205.473 303.253 205.463 303.17 205.418Z" fill="#D4C5FF"/>
<path d="M47.8209 210.761C47.7291 210.766 47.6388 210.736 47.5687 210.677C47.4985 210.617 47.4539 210.533 47.4441 210.442L47.3475 209.273C47.3398 209.181 47.3691 209.089 47.4289 209.019C47.4887 208.948 47.5741 208.904 47.6663 208.896C47.7586 208.889 47.8501 208.918 47.9207 208.978C47.9914 209.037 48.0354 209.123 48.0431 209.215L48.1397 210.384C48.1437 210.43 48.1385 210.476 48.1246 210.519C48.1107 210.563 48.0883 210.604 48.0587 210.639C48.0291 210.674 47.9928 210.703 47.952 210.723C47.9112 210.744 47.8666 210.757 47.8209 210.761Z" fill="#D4C5FF"/>
<path d="M47.1839 211.514L46.0246 211.61C45.9789 211.615 45.9328 211.61 45.8889 211.597C45.845 211.583 45.8042 211.562 45.7688 211.532C45.7333 211.503 45.704 211.467 45.6824 211.427C45.6608 211.386 45.6474 211.342 45.643 211.296C45.6386 211.251 45.6432 211.205 45.6565 211.161C45.6699 211.117 45.6918 211.076 45.7209 211.041C45.7501 211.005 45.786 210.976 45.8264 210.954C45.8669 210.933 45.9113 210.919 45.957 210.915L47.1259 210.818C47.1718 210.813 47.2184 210.817 47.2627 210.83C47.307 210.844 47.3481 210.866 47.3834 210.896C47.4187 210.926 47.4475 210.963 47.468 211.004C47.4885 211.046 47.5003 211.091 47.5027 211.137C47.5066 211.183 47.5015 211.229 47.4876 211.272C47.4737 211.316 47.4513 211.357 47.4217 211.392C47.392 211.427 47.3558 211.456 47.315 211.476C47.2741 211.497 47.2296 211.51 47.1839 211.514Z" fill="#D4C5FF"/>
<path d="M48.0526 213.388C47.9598 213.394 47.8683 213.364 47.7966 213.305C47.7248 213.246 47.6782 213.162 47.6662 213.069L47.5696 211.9C47.5619 211.808 47.5911 211.717 47.6509 211.646C47.7107 211.575 47.7961 211.531 47.8884 211.524C47.9806 211.516 48.0721 211.545 48.1428 211.605C48.2134 211.665 48.2574 211.75 48.2651 211.842L48.3714 213.002C48.3771 213.095 48.3473 213.186 48.2881 213.258C48.229 213.329 48.1448 213.376 48.0526 213.388Z" fill="#D4C5FF"/>
<path d="M49.8303 211.292L48.6711 211.389C48.6254 211.393 48.5793 211.388 48.5354 211.375C48.4915 211.362 48.4507 211.34 48.4153 211.311C48.3798 211.281 48.3505 211.246 48.3289 211.205C48.3073 211.165 48.2939 211.12 48.2895 211.075C48.285 211.029 48.2896 210.983 48.303 210.939C48.3164 210.895 48.3383 210.854 48.3674 210.819C48.3966 210.783 48.4324 210.754 48.4729 210.732C48.5134 210.711 48.5578 210.697 48.6035 210.693L49.7724 210.587C49.8181 210.583 49.8641 210.588 49.9078 210.602C49.9516 210.616 49.9921 210.638 50.0271 210.668C50.0621 210.697 50.0909 210.734 50.1119 210.774C50.1328 210.815 50.1455 210.86 50.1491 210.906C50.1573 210.999 50.1284 211.092 50.0688 211.164C50.0091 211.236 49.9235 211.282 49.8303 211.292Z" fill="#D4C5FF"/>
<path d="M293.374 156.458C293.286 156.411 293.219 156.331 293.188 156.235C293.158 156.14 293.165 156.036 293.21 155.946L293.789 154.845C293.836 154.758 293.914 154.692 294.009 154.663C294.103 154.634 294.205 154.644 294.292 154.69C294.379 154.736 294.444 154.815 294.473 154.909C294.502 155.004 294.492 155.105 294.446 155.193L293.876 156.294C293.829 156.38 293.751 156.445 293.658 156.475C293.564 156.506 293.463 156.5 293.374 156.458Z" fill="#D4C5FF"/>
<path d="M292.369 156.767L291.267 156.188C291.224 156.165 291.186 156.135 291.155 156.098C291.123 156.061 291.099 156.018 291.085 155.972C291.07 155.926 291.064 155.877 291.068 155.829C291.072 155.78 291.086 155.733 291.108 155.69C291.13 155.647 291.161 155.609 291.198 155.577C291.235 155.546 291.278 155.522 291.324 155.507C291.37 155.493 291.419 155.487 291.467 155.491C291.515 155.495 291.562 155.508 291.605 155.531L292.707 156.11C292.75 156.133 292.788 156.163 292.82 156.2C292.851 156.237 292.875 156.28 292.89 156.326C292.904 156.372 292.91 156.421 292.906 156.469C292.902 156.518 292.888 156.565 292.866 156.608C292.844 156.651 292.814 156.689 292.777 156.721C292.739 156.752 292.697 156.776 292.65 156.791C292.604 156.805 292.556 156.811 292.507 156.807C292.459 156.803 292.412 156.789 292.369 156.767Z" fill="#D4C5FF"/>
<path d="M292.07 158.903C292.026 158.881 291.988 158.85 291.956 158.812C291.925 158.775 291.901 158.731 291.887 158.684C291.872 158.638 291.868 158.588 291.872 158.54C291.877 158.491 291.892 158.444 291.915 158.401L292.485 157.299C292.537 157.224 292.614 157.169 292.703 157.146C292.792 157.123 292.886 157.134 292.968 157.175C293.049 157.216 293.113 157.286 293.147 157.371C293.181 157.457 293.183 157.551 293.152 157.637L292.572 158.739C292.527 158.827 292.449 158.893 292.355 158.924C292.261 158.954 292.159 158.947 292.07 158.903Z" fill="#D4C5FF"/>
<path d="M294.852 158.072L293.751 157.493C293.708 157.47 293.67 157.439 293.639 157.401C293.607 157.363 293.584 157.32 293.57 157.273C293.555 157.227 293.55 157.178 293.555 157.129C293.559 157.081 293.574 157.033 293.596 156.99C293.619 156.947 293.65 156.909 293.688 156.878C293.726 156.847 293.769 156.823 293.816 156.809C293.862 156.795 293.911 156.79 293.96 156.794C294.008 156.799 294.056 156.813 294.099 156.836L295.2 157.406C295.282 157.455 295.341 157.534 295.367 157.626C295.393 157.718 295.382 157.817 295.338 157.902C295.294 157.986 295.219 158.051 295.129 158.083C295.039 158.114 294.94 158.111 294.852 158.072Z" fill="#D4C5FF"/>
<path d="M26.5864 159.684C26.3998 159.698 26.2154 159.638 26.0727 159.517C25.93 159.396 25.8405 159.224 25.8232 159.037L25.63 156.69C25.6139 156.594 25.618 156.495 25.6419 156.4C25.6658 156.306 25.7091 156.217 25.769 156.14C25.8289 156.063 25.9041 156 25.9899 155.953C26.0757 155.907 26.1702 155.879 26.2674 155.871C26.3646 155.863 26.4625 155.875 26.5547 155.906C26.647 155.938 26.7316 155.989 26.8034 156.055C26.8751 156.121 26.9324 156.201 26.9715 156.29C27.0107 156.38 27.0309 156.476 27.0308 156.574L27.2337 158.921C27.2471 159.108 27.1869 159.292 27.0658 159.435C26.9448 159.578 26.7727 159.667 26.5864 159.684Z" fill="#D4C5FF"/>
<path d="M25.3119 161.212L22.9643 161.415C22.8717 161.423 22.7783 161.412 22.6897 161.384C22.6011 161.356 22.519 161.31 22.448 161.25C22.3771 161.19 22.3188 161.116 22.2764 161.034C22.234 160.951 22.2084 160.86 22.2011 160.768C22.1918 160.676 22.2011 160.582 22.2282 160.494C22.2554 160.405 22.3 160.323 22.3594 160.252C22.4188 160.181 22.4918 160.122 22.5741 160.08C22.6564 160.037 22.7464 160.012 22.8387 160.004L25.1863 159.802C25.3733 159.785 25.5593 159.843 25.7033 159.964C25.8473 160.084 25.9376 160.257 25.9543 160.444C25.9709 160.631 25.9126 160.817 25.7921 160.961C25.6716 161.105 25.4989 161.195 25.3119 161.212Z" fill="#D4C5FF"/>
<path d="M27.0501 164.979C26.9575 164.987 26.8641 164.976 26.7755 164.948C26.6869 164.92 26.6048 164.874 26.5338 164.814C26.4629 164.754 26.4046 164.68 26.3622 164.597C26.3198 164.515 26.2943 164.424 26.2869 164.332L26.0841 161.984C26.0748 161.892 26.084 161.799 26.1112 161.71C26.1384 161.622 26.1829 161.539 26.2423 161.468C26.3017 161.397 26.3747 161.339 26.457 161.296C26.5394 161.254 26.6293 161.228 26.7217 161.221C26.8143 161.213 26.9077 161.223 26.9963 161.252C27.0849 161.28 27.167 161.325 27.238 161.386C27.3089 161.446 27.3672 161.519 27.4096 161.602C27.452 161.685 27.4776 161.775 27.4849 161.868L27.6877 164.216C27.7038 164.401 27.6458 164.586 27.5264 164.729C27.4069 164.872 27.2357 164.962 27.0501 164.979Z" fill="#D4C5FF"/>
<path d="M30.6053 160.758L28.2578 160.951C28.162 160.967 28.064 160.963 27.9698 160.939C27.8756 160.915 27.7874 160.873 27.7105 160.813C27.6337 160.754 27.57 160.679 27.5233 160.594C27.4767 160.509 27.4481 160.415 27.4395 160.318C27.4308 160.222 27.4422 160.124 27.4729 160.032C27.5037 159.94 27.5531 159.855 27.6182 159.783C27.6832 159.711 27.7624 159.653 27.8509 159.613C27.9393 159.573 28.0351 159.551 28.1322 159.55L30.4797 159.347C30.5719 159.338 30.665 159.347 30.7536 159.374C30.8421 159.402 30.9244 159.446 30.9955 159.506C31.0665 159.565 31.1251 159.638 31.1676 159.72C31.2101 159.803 31.2357 159.892 31.2429 159.985C31.2522 160.078 31.2431 160.171 31.216 160.26C31.189 160.349 31.1445 160.432 31.0852 160.504C31.0259 160.576 30.953 160.635 30.8707 160.679C30.7883 160.722 30.6981 160.749 30.6053 160.758Z" fill="#D4C5FF"/>
<path d="M173.162 320.374C173.162 320.374 135.351 306.125 130.656 302.212C126.791 298.947 129.1 291.141 123.69 289.808C117.469 288.272 113.064 291.74 109.016 295.498C105.239 299.082 100.321 300.695 90.9602 297.382C81.5991 294.068 72.6051 289.325 68.8664 291.209C65.1278 293.092 67.6202 296.107 83.9176 303.864C93.2884 308.327 105.219 313.525 112.899 316.616C118.428 318.75 123.631 321.647 128.356 325.224C138.326 332.421 140.162 333.918 151.957 341.241C175.539 355.799 189.402 359.596 208.163 355.973L173.162 320.374Z" fill="#FFBDA7"/>
<path d="M137.776 306.869C130.26 311.197 126.627 315.969 126.183 324.258C126.183 324.258 131.255 328.19 139.273 333.744C148.885 340.401 172.119 355.539 187.692 357.123C211.786 359.577 220.036 353.384 220.036 353.384L137.776 306.869Z" fill="#455A64"/>
<path d="M130.791 311.535C143.128 332.943 173.298 346.264 182.717 347.279C179.374 344.448 174.467 334.846 169.81 324.432L137.776 306.009C135.169 307.469 132.811 309.334 130.791 311.535Z" fill="#37474F"/>
<path d="M60.0761 289.421C59.8895 288.661 59.8714 287.87 60.0233 287.102C60.1752 286.334 60.4933 285.609 60.9552 284.977C64.2881 280.92 68.5388 278.775 71.437 277.249C74.9465 275.571 78.8301 274.829 82.7109 275.095C90.0916 275.549 96.4483 281.239 103.839 281.674C109.355 282.012 114.369 279.113 119.74 277.761C121.432 277.34 123.179 277.187 124.918 277.307C126.386 277.404 128.724 278.447 129.256 279.751C129.995 281.27 130.14 283.01 129.661 284.63C129.333 285.663 127.275 287.615 125.797 288.687C123.778 290.165 121.266 290.619 118.262 291.489C110.727 293.788 76.7696 294.609 60.0761 289.421Z" fill="#37474F"/>
<path d="M130.859 300.077C130.859 300.772 130.975 301.439 131.052 302.144C131.149 303.11 130.646 303.381 129.883 303.922C126.772 306.115 122.85 305.902 119.256 305.264C116.494 304.772 113.682 303.97 110.939 304.521C107.644 305.187 105.026 307.67 102.582 310.027C102.036 310.543 101.585 311.151 101.249 311.824C101.249 311.824 82.1791 303.429 73.5039 298.705C69.118 296.309 64.0462 294.078 60.5877 290.291C60.3945 290.088 61.4282 288.755 61.5538 288.629C62.7092 287.34 64.2456 286.453 65.9397 286.098C68.6673 285.362 71.5124 285.165 74.3154 285.518C78.5854 286.165 82.7298 287.325 86.9611 288.185C90.7492 288.954 94.5777 289.508 98.4282 289.846C102.619 290.231 106.834 290.302 111.035 290.059C114.987 289.979 118.886 289.13 122.512 287.557C123.936 286.915 125.263 286.076 126.454 285.064C127.148 284.346 127.752 283.544 128.251 282.678C128.849 281.809 129.217 280.35 129.806 281.586C131.255 284.542 131.554 289.093 131.352 292.397C131.207 294.676 130.917 296.937 130.84 299.217C130.849 299.516 130.849 299.797 130.859 300.077Z" fill="#D4C5FF"/>
<path opacity="0.2" d="M130.859 300.077C130.859 300.772 130.975 301.439 131.052 302.144C131.149 303.11 130.646 303.381 129.883 303.922C126.772 306.115 122.85 305.902 119.256 305.264C116.494 304.772 113.682 303.97 110.939 304.521C107.644 305.187 105.026 307.67 102.582 310.027C102.036 310.543 101.585 311.151 101.249 311.824C101.249 311.824 82.1791 303.429 73.5039 298.705C69.118 296.309 64.0462 294.078 60.5877 290.291C60.3945 290.088 61.4282 288.755 61.5538 288.629C62.7092 287.34 64.2456 286.453 65.9397 286.098C68.6673 285.362 71.5124 285.165 74.3154 285.518C78.5854 286.165 82.7298 287.325 86.9611 288.185C90.7492 288.954 94.5777 289.508 98.4282 289.846C102.619 290.231 106.834 290.302 111.035 290.059C114.987 289.979 118.886 289.13 122.512 287.557C123.936 286.915 125.263 286.076 126.454 285.064C127.148 284.346 127.752 283.544 128.251 282.678C128.849 281.809 129.217 280.35 129.806 281.586C131.255 284.542 131.554 289.093 131.352 292.397C131.207 294.676 130.917 296.937 130.84 299.217C130.849 299.516 130.849 299.797 130.859 300.077Z" fill="black"/>
<path d="M81.1942 286.804C77.6295 291.837 77.6488 300.763 77.6488 300.763C73.5044 298.929 69.4547 296.888 65.5151 294.648C59.7188 291.335 60.0762 289.422 60.0762 289.422C60.36 288.4 60.9459 287.487 61.7571 286.804C62.8243 285.915 64.0563 285.246 65.3825 284.835C66.7088 284.424 68.1031 284.279 69.4856 284.408C73.4719 284.724 77.4042 285.529 81.1942 286.804Z" fill="#FAFAFA"/>
<path d="M80.933 297.778C80.5004 299.21 80.3753 300.718 80.5659 302.202C81.1351 302.646 81.7946 302.959 82.498 303.12C82.4656 301.59 82.6213 300.062 82.9617 298.57C83.3191 297.275 81.3677 296.541 80.933 297.778Z" fill="#FAFAFA"/>
<path d="M86.7297 300.522C86.2786 301.95 86.1434 303.46 86.3336 304.946C86.9071 305.379 87.5655 305.685 88.2657 305.845C88.2005 304.32 88.3567 302.794 88.7294 301.314C89.1159 300.01 87.1644 299.285 86.7297 300.522Z" fill="#FAFAFA"/>
<path d="M92.5252 303.255C92.0915 304.674 91.9663 306.17 92.1581 307.641C92.7177 308.11 93.3795 308.441 94.0902 308.607C94.0633 307.081 94.2189 305.556 94.5539 304.067C94.9113 302.753 92.9599 302.028 92.5252 303.255Z" fill="#FAFAFA"/>
<path d="M129.825 281.586C129.797 280.936 129.601 280.303 129.255 279.751C129.255 279.751 127.323 283.779 120.561 286.117C114.088 288.33 104.853 289.402 91.5211 286.224C78.1895 283.045 70.4804 280.108 64.4715 282.572C58.4626 285.035 60.1145 289.421 60.1145 289.421C60.1145 289.421 63.0127 283.953 71.4464 284.977C79.5903 285.943 91.5888 290.416 102.747 290.841C114.359 291.295 126.183 289.759 129.825 281.586Z" fill="#E0E0E0"/>
<path d="M264.677 304.057C260.958 290.783 250.003 281.142 233.512 267.347C219.523 255.628 193.662 236.655 193.662 236.655L119.99 221.98C116.996 235.428 107.19 244.915 107.219 263.608C107.219 277.21 109.354 296.396 133.148 314.056C147.581 324.769 159.087 333.184 169.433 339.753C180.359 346.689 205.042 360.359 218.702 354.108C229.145 349.336 230.942 340.159 230.575 332.498C232.237 332.662 233.908 332.749 235.454 332.758C237.26 332.816 238.903 332.758 240.207 332.758C245.122 332.65 249.949 331.434 254.33 329.203C263.296 324.624 267.662 314.703 264.677 304.057Z" fill="#455A64"/>
<path d="M235.473 332.73C233.928 332.73 232.237 332.624 230.576 332.469C228.17 317.601 172.158 274.592 172.158 274.592C176.022 272.66 185.074 267.83 188.098 262.43C186.861 269.347 182.891 272.873 179.046 275.674C184.958 280.978 209.825 301.932 216.452 308.231C223.417 314.867 232.102 323.359 235.473 332.73Z" fill="#37474F"/>
<path d="M182.552 140.136C193.266 142.687 197.748 143.701 202.946 150.125C206.568 154.608 219.089 186.101 222.528 201.104C224.846 211.219 224.692 225.574 220.209 228.782C215.437 232.192 206.578 227.632 201.342 223.198C197.545 219.971 195.826 217.836 193.845 216.175L182.552 140.136Z" fill="#FFBDA7"/>
<path d="M207.023 201.896C210.8 201.548 216.277 202.273 219.408 205.528C217.842 202.563 213.679 199.867 206.578 200.544L207.023 201.896Z" fill="#F0997A"/>
<path d="M202.927 168.056C197.131 155.806 190.803 148.232 182.553 140.04C182.553 140.04 171.926 137.461 164.777 136.301C157.629 135.142 153.658 135.519 146.161 136.35C142.403 136.755 131.371 139.518 125.546 140.745C126.087 157.893 129.313 166.655 118.339 180.093C118.059 190.768 120.107 212.195 120.368 219.595C120.58 225.652 111.567 236.018 108.176 250.934C121.913 265.975 178.698 270.207 201.642 242.461C199.494 238.361 196.995 234.453 194.175 230.782C195.218 217.508 195.498 204.756 196.049 201.414C205.874 191.695 208.366 179.59 202.927 168.056Z" fill="#3D3942"/>
<path d="M146.78 63.8364C146.78 63.8364 138.307 62.8704 132.289 73.9317C124.841 87.6498 124.3 102.759 124.483 112.449C124.667 122.138 127.381 126.775 133.12 129.702C131.665 125.24 131.558 120.449 132.811 115.926C132.811 115.926 135.255 130.176 149.234 133.972C163.212 137.769 187.692 141.411 195.392 131.673C192.165 123.529 197.324 97.0592 197.324 97.0592C200.054 96.0304 202.44 94.2549 204.21 91.9352C205.98 89.6156 207.062 86.8452 207.332 83.9401C208.395 73.6806 202.502 64.445 193.991 63.2182C193.991 63.5563 182.872 57.702 182.872 57.702C178.853 52.7654 155.436 50.9975 146.78 63.8364Z" fill="#37474F"/>
<path d="M145.389 95.0502C146.355 82.076 162.778 57.8086 194.02 63.1702C194.02 63.1702 190.967 59.5572 182.901 57.6541C171.975 57.4995 147.852 59.5862 142.027 93.0601C143.282 93.4647 144.43 94.1447 145.389 95.0502Z" fill="#D4C5FF"/>
<path d="M192.223 70.2324C195.981 74.4444 200.328 83.2162 197.498 107.281C195.092 127.674 187.886 131.577 184.524 132.63C181.722 133.5 176.1 133.519 171.791 132.195L170.255 140.31C170.255 140.31 182.553 153.236 172.554 155.391C152.615 159.68 143.341 137.944 143.341 137.944L146.76 114.082C146.76 114.082 141.09 117.057 135.622 111.048C131.12 106.093 130.173 98.3544 134.414 94.6254C138.655 90.8964 145.649 92.6933 147.823 98.7602C147.823 98.7602 158.401 100.277 171.511 94.5674C184.234 89.0512 190.117 77.9126 192.223 70.2324Z" fill="#FFBDA7"/>
<path d="M176.843 119.501C176.847 119.787 176.765 120.066 176.609 120.305C176.452 120.543 176.228 120.729 175.965 120.839C175.702 120.949 175.412 120.978 175.132 120.922C174.852 120.866 174.596 120.727 174.396 120.524C174.195 120.321 174.06 120.063 174.008 119.782C173.956 119.502 173.989 119.212 174.102 118.951C174.216 118.689 174.405 118.467 174.646 118.314C174.886 118.161 175.167 118.083 175.452 118.091C175.822 118.098 176.174 118.25 176.434 118.513C176.694 118.777 176.841 119.131 176.843 119.501Z" fill="#F0997A"/>
<path d="M171.791 132.195C167.531 131.229 161.097 129.828 155.764 126.032C153.388 124.331 151.987 121.53 150.866 118.352C150.866 118.352 150.49 123.655 153.639 127.384C157.696 132.215 171.125 135.615 171.125 135.615L171.791 132.195Z" fill="#F0997A"/>
<path d="M147.514 95.64L148.538 105.349C149.159 105.304 149.765 105.133 150.318 104.845C150.871 104.558 151.36 104.16 151.753 103.677C152.147 103.194 152.437 102.635 152.607 102.036C152.777 101.436 152.822 100.808 152.74 100.19C152.615 98.9075 152.004 97.7214 151.032 96.8752C150.06 96.029 148.801 95.587 147.514 95.64Z" fill="#37474F"/>
<path d="M175.25 99.263C175.849 99.6398 174.921 102.683 171.472 102.76C168.023 102.837 166.99 100.345 167.666 99.7847C168.342 99.2244 169.25 100.886 171.723 100.558C174.419 100.2 174.641 98.8863 175.25 99.263Z" fill="#263238"/>
<path d="M195.305 100.142C195.807 100.616 194.339 103.33 191.025 102.722C187.711 102.113 187.238 99.5432 187.992 99.1375C188.745 98.7317 189.276 100.5 191.692 100.683C194.339 100.876 194.773 99.6591 195.305 100.142Z" fill="#263238"/>
<path d="M171.8 89.8717L165.791 92.0067C165.523 91.1875 165.582 90.2961 165.957 89.5197C166.331 88.7434 166.992 88.1424 167.801 87.8429C168.196 87.705 168.615 87.6484 169.033 87.6764C169.451 87.7044 169.859 87.8165 170.232 88.0059C170.606 88.1954 170.937 88.4583 171.207 88.7789C171.476 89.0995 171.678 89.4711 171.8 89.8717Z" fill="#263238"/>
<path d="M196.773 93.3883L190.909 90.751C191.064 90.3626 191.297 90.0101 191.593 89.7149C191.89 89.4198 192.243 89.1883 192.632 89.0345C193.021 88.8807 193.437 88.808 193.855 88.8208C194.273 88.8335 194.684 88.9315 195.063 89.1087C195.84 89.47 196.449 90.114 196.767 90.9094C197.084 91.7047 197.087 92.5914 196.773 93.3883Z" fill="#263238"/>
<path d="M180.427 97.0596L180.089 112.758L188.465 110.604L180.427 97.0596Z" fill="#F0997A"/>
<path d="M196.213 218.406C194.929 217.276 194.378 216.725 192.89 215.392C190.388 213.141 187.673 211.586 186.852 208.108C185.683 203.162 187.152 200.109 186.978 195.259C186.711 193.001 186.945 190.712 187.664 188.555C187.664 188.555 187.77 185.86 184.939 179.001C183.906 176.489 184.099 174.402 186.021 173.842C185.055 170.345 186.601 169.089 188.282 169.176C187.48 166.452 187.016 163.978 189.692 162.81C189.973 162.694 190.659 163.524 191.528 165.466C191.576 163.64 193.605 161.708 194.494 163.022C198.435 169.784 198.918 170.084 201.952 176.286C204.541 181.59 204.85 183.899 205.343 193.675C205.488 196.303 205.178 202.292 210.598 205.519" fill="#FFBDA7"/>
<path d="M201.952 176.287C202.613 177.43 203.2 178.614 203.71 179.832C204.199 181.083 204.571 182.377 204.821 183.696C205.277 186.299 205.561 188.929 205.671 191.57C205.864 194.197 205.671 196.844 206.318 199.298C206.921 201.837 208.447 204.061 210.598 205.539C209.41 204.929 208.361 204.08 207.516 203.046C206.685 201.982 206.056 200.774 205.661 199.482C205.29 198.191 205.07 196.862 205.004 195.521C204.937 194.197 204.869 192.903 204.782 191.589C204.637 188.971 204.502 186.353 204.154 183.774C203.754 181.192 203.013 178.674 201.952 176.287Z" fill="#F0997A"/>
<path d="M196.27 197.307C196.116 194.409 196.154 193.636 194.976 190.7C194.976 190.7 194.638 188.014 196.821 180.933C197.623 178.324 197.246 176.267 195.275 175.89C195.913 172.325 194.309 171.205 192.599 171.446C193.15 168.664 193.391 166.152 190.609 165.234C190.329 165.147 189.711 166.036 189.025 168.055C188.887 167.144 188.394 166.324 187.653 165.775C187.7 166.92 187.911 168.052 188.281 169.137C186.6 169.05 185.064 170.306 186.02 173.803C184.088 174.364 183.905 176.45 184.938 178.962C187.769 185.821 187.663 188.516 187.663 188.516C186.944 190.673 186.709 192.963 186.977 195.221C187.151 200.051 185.682 203.123 186.851 208.069C187.238 209.665 187.978 211.154 189.016 212.426C190.054 213.699 191.364 214.722 192.85 215.421L194.56 216.88C196.164 215.121 197.303 212.989 197.874 210.678C199.043 205.287 196.541 202.196 196.27 197.307Z" fill="#F0997A"/>
<path d="M125.545 140.745C111.315 144.001 105.393 149.585 105.393 167.283C105.393 179.368 114.204 216.552 120.85 233.825C124.164 242.519 128.752 246.509 142.422 243.012C153.503 240.182 186.677 223.691 191.092 218.658C195.507 213.625 178.06 205.036 172.834 207.374C167.607 209.712 143.417 214.388 143.417 214.388L135.312 174.122C135.312 174.122 136.626 149.971 125.545 140.745Z" fill="#FFBDA7"/>
<path d="M185.432 222.764C193.102 218.465 196.01 214.195 196.773 210.698C197.952 205.268 195.44 202.177 195.179 197.327C195.015 194.429 195.054 193.656 193.875 190.72C193.875 190.72 193.537 188.034 195.72 180.953C196.522 178.344 196.145 176.296 194.175 175.91C194.812 172.345 193.16 171.234 191.499 171.466C192.049 168.684 192.291 166.182 189.509 165.264C189.228 165.167 188.61 166.056 187.924 168.075C187.721 166.259 185.519 164.52 184.756 165.911C181.442 173.002 180.988 173.34 178.534 179.793C176.438 185.31 176.37 187.638 176.747 197.434C176.844 200.061 178.486 204.747 172.834 207.374" fill="#FFBDA7"/>
<path d="M192.735 177.716C191.489 180.663 190.494 183.711 189.76 186.826C189.499 188.565 189.113 192.313 189.113 192.313C188.862 190.389 188.862 188.441 189.113 186.517C189.499 182.759 192.735 177.716 192.735 177.716Z" fill="#F0997A"/>
<path d="M191.074 171.678C189.905 174.673 187.432 178.875 186.92 181.078C186.239 184.419 185.851 187.813 185.761 191.222C185.198 187.733 185.372 184.166 186.273 180.75C187.229 177.33 188.977 175.542 191.074 171.678Z" fill="#F0997A"/>
<path d="M187.924 168.075C186.204 172.142 183.432 177.842 182.852 179.523C182.273 181.203 181.683 189.473 181.683 189.473C181.41 186.581 181.41 183.67 181.683 180.778C182.215 177.716 187.924 168.075 187.924 168.075Z" fill="#F0997A"/>
</svg>
