<svg width="373" height="371" viewBox="0 0 373 371" fill="none" xmlns="http://www.w3.org/2000/svg">
<path opacity="0.05" d="M272.999 229.524C315.253 187.27 315.253 118.762 272.999 76.5081C230.744 34.2539 162.237 34.2539 119.983 76.5081C77.7284 118.762 77.7284 187.27 119.983 229.524C162.237 271.778 230.744 271.778 272.999 229.524Z" fill="#D4C5FF"/>
<path opacity="0.1" d="M214.996 198.764C240.264 188.298 252.263 159.33 241.797 134.062C231.33 108.795 202.363 96.7962 177.095 107.262C151.828 117.728 139.829 146.696 150.295 171.964C160.761 197.231 189.729 209.23 214.996 198.764Z" fill="#D4C5FF"/>
<path opacity="0.07" d="M249.734 206.701C279.384 177.052 279.384 128.98 249.734 99.3307C220.084 69.6811 172.013 69.6811 142.363 99.3307C112.714 128.98 112.714 177.052 142.363 206.701C172.013 236.351 220.084 236.351 249.734 206.701Z" fill="#D4C5FF"/>
<path d="M98.2531 338.116C99.4417 337.878 100.616 337.571 101.77 337.199C102.417 336.976 103.054 336.687 103.702 336.464C104.248 336.344 104.75 336.073 105.151 335.682C105.25 335.573 105.308 335.433 105.315 335.286C105.295 335.171 105.236 335.067 105.148 334.992C105.06 334.916 104.948 334.873 104.832 334.87C104.6 334.88 104.373 334.939 104.165 335.044C100.302 336.611 96.2045 337.525 92.0413 337.749C86.5928 338.155 80.7288 337.856 75.7439 335.431C70.3533 332.813 68.5371 327.702 69.1457 324.06C69.7543 320.418 72.4786 318.022 76.4201 317.539C85.8199 316.37 96.8523 321.993 103.228 331.228C103.308 331.34 103.428 331.417 103.563 331.442C103.698 331.467 103.838 331.439 103.953 331.364C104.065 331.284 104.141 331.163 104.165 331.027C104.189 330.892 104.157 330.752 104.078 330.639C97.4899 321.094 86.0614 315.288 76.2849 316.506C71.841 317.056 68.7883 319.819 68.112 323.886C67.3005 328.794 70.2567 333.924 75.2899 336.368C79.869 338.59 85.1437 339.111 90.1672 338.928C92.7581 338.863 95.341 338.611 97.8956 338.174L98.2531 338.116Z" fill="#D4C5FF"/>
<path d="M100.417 334.242C100.521 334.222 100.617 334.169 100.691 334.093C100.765 334.016 100.813 333.918 100.83 333.813C100.847 333.708 100.831 333.6 100.785 333.504C100.739 333.408 100.664 333.329 100.571 333.276C90.4471 327.393 72.1113 322.65 71.9278 322.601C71.8612 322.584 71.7919 322.58 71.7238 322.59C71.6557 322.6 71.5902 322.623 71.5309 322.658C71.4717 322.693 71.42 322.739 71.3787 322.794C71.3374 322.849 71.3073 322.912 71.2902 322.978C71.2731 323.045 71.2692 323.114 71.2789 323.182C71.2885 323.25 71.3115 323.316 71.3465 323.375C71.3815 323.434 71.4278 323.486 71.4828 323.527C71.5378 323.569 71.6003 323.599 71.6669 323.616C71.8505 323.664 90.0221 328.359 100.05 334.175C100.159 334.244 100.29 334.268 100.417 334.242Z" fill="#D4C5FF"/>
<path d="M72.4591 329.654C72.5276 329.635 72.5928 329.606 72.6523 329.567L78.4487 325.355C78.5046 325.316 78.5521 325.265 78.5883 325.207C78.6245 325.149 78.6488 325.085 78.6596 325.017C78.6704 324.95 78.6676 324.881 78.6512 324.814C78.6349 324.748 78.6055 324.685 78.5646 324.63C78.4835 324.52 78.3618 324.445 78.2262 324.424C78.0905 324.402 77.9518 324.435 77.8401 324.514L72.0437 328.727C71.9878 328.766 71.9403 328.816 71.9041 328.874C71.8679 328.932 71.8437 328.997 71.8328 329.064C71.822 329.132 71.8249 329.201 71.8412 329.267C71.8575 329.334 71.8869 329.396 71.9278 329.451C71.9872 329.533 72.0691 329.595 72.1634 329.631C72.2577 329.667 72.3604 329.675 72.4591 329.654Z" fill="#D4C5FF"/>
<path d="M78.4684 333.353C78.554 333.334 78.6337 333.295 78.7002 333.237L85.3757 327.615C85.4783 327.524 85.5417 327.396 85.5525 327.259C85.5633 327.123 85.5207 326.987 85.4337 326.881C85.3899 326.828 85.336 326.784 85.275 326.752C85.2141 326.72 85.1474 326.701 85.0789 326.696C85.0103 326.691 84.9414 326.699 84.8763 326.721C84.8111 326.743 84.7509 326.777 84.6995 326.823L78.0336 332.445C77.9274 332.534 77.8606 332.661 77.8479 332.798C77.8352 332.936 77.8777 333.073 77.966 333.179C78.0258 333.252 78.1043 333.306 78.1929 333.337C78.2814 333.367 78.3767 333.373 78.4684 333.353Z" fill="#D4C5FF"/>
<path d="M84.9701 335.749C85.0501 335.728 85.1254 335.692 85.1923 335.643L91.9547 329.982C92.0611 329.892 92.1274 329.764 92.1392 329.625C92.151 329.487 92.1072 329.349 92.0175 329.243C91.9279 329.137 91.7996 329.07 91.661 329.059C91.5224 329.047 91.3848 329.091 91.2785 329.18L84.574 334.841C84.521 334.885 84.4773 334.939 84.4456 335C84.4138 335.061 84.3947 335.128 84.3893 335.196C84.3839 335.265 84.3923 335.334 84.4141 335.399C84.4359 335.464 84.4706 335.524 84.5161 335.576C84.5709 335.641 84.6413 335.691 84.7207 335.721C84.8001 335.751 84.8859 335.761 84.9701 335.749Z" fill="#D4C5FF"/>
<path d="M92.3607 335.517C92.4443 335.498 92.5232 335.461 92.5926 335.411L96.6017 332.02C96.654 331.977 96.6973 331.924 96.729 331.864C96.7608 331.805 96.7803 331.739 96.7866 331.672C96.7929 331.604 96.7858 331.536 96.7657 331.472C96.7455 331.407 96.7128 331.347 96.6693 331.295C96.5809 331.189 96.4539 331.122 96.3162 331.11C96.1786 331.097 96.0415 331.139 95.9351 331.228L91.926 334.609C91.8197 334.697 91.7529 334.824 91.7402 334.962C91.7276 335.1 91.77 335.237 91.8584 335.343C91.9181 335.415 91.9966 335.47 92.0852 335.5C92.1738 335.531 92.2691 335.537 92.3607 335.517Z" fill="#D4C5FF"/>
<path d="M81.8305 326.552C81.9654 326.52 82.0824 326.436 82.1564 326.319C82.2304 326.202 82.2556 326.06 82.2266 325.924L80.8644 319.674C80.8506 319.608 80.8239 319.545 80.7858 319.49C80.7478 319.434 80.699 319.386 80.6425 319.349C80.5859 319.313 80.5226 319.287 80.4563 319.275C80.3899 319.263 80.3218 319.264 80.2558 319.278C80.1216 319.308 80.0047 319.39 79.9306 319.506C79.8564 319.621 79.8309 319.762 79.8597 319.896L81.2315 326.147C81.2572 326.28 81.3348 326.397 81.4471 326.473C81.5594 326.55 81.6973 326.578 81.8305 326.552Z" fill="#D4C5FF"/>
<path d="M88.7082 328.929C88.7746 328.913 88.8371 328.884 88.8922 328.844C88.9472 328.804 88.9937 328.753 89.0288 328.694C89.0639 328.636 89.0869 328.571 89.0966 328.503C89.1062 328.436 89.1023 328.367 89.085 328.301L87.5006 321.877C87.4872 321.809 87.4599 321.744 87.4204 321.687C87.3809 321.631 87.3301 321.582 87.2711 321.546C87.2122 321.51 87.1463 321.486 87.0778 321.477C87.0092 321.467 86.9394 321.472 86.8727 321.49C86.806 321.507 86.7432 321.537 86.6881 321.578C86.633 321.62 86.5866 321.671 86.5516 321.731C86.5165 321.79 86.4936 321.855 86.484 321.924C86.4745 321.992 86.4785 322.061 86.4959 322.128L88.0803 328.542C88.095 328.61 88.1231 328.673 88.1629 328.729C88.2028 328.786 88.2535 328.833 88.3121 328.869C88.3707 328.905 88.436 328.929 88.5041 328.939C88.5721 328.95 88.6416 328.946 88.7082 328.929Z" fill="#D4C5FF"/>
<path d="M94.1959 331.151C94.3301 331.121 94.447 331.039 94.5211 330.923C94.5953 330.807 94.6208 330.667 94.592 330.532L93.3361 324.736C93.3059 324.601 93.2245 324.484 93.1091 324.408C92.9937 324.332 92.8534 324.304 92.7178 324.33C92.5811 324.36 92.4618 324.443 92.3858 324.561C92.3099 324.678 92.2834 324.821 92.3121 324.958L93.5776 330.755C93.6077 330.889 93.6895 331.006 93.8053 331.08C93.9211 331.154 94.0614 331.179 94.1959 331.151Z" fill="#D4C5FF"/>
<path d="M109.595 226.42C113.024 226.42 121.999 227.801 131.351 240.592C147.774 263.005 141.765 293.59 140.886 297.59L135.186 300.15C135.476 288.084 133.853 280.558 129.679 274.423C124.743 267.159 118.087 261.005 112.725 256.068C110.02 253.566 107.692 251.412 106.03 249.547C98.3016 240.901 97.152 234.197 102.34 229.048C104.313 227.24 106.921 226.285 109.595 226.391M109.595 225.425C106.675 225.306 103.827 226.348 101.673 228.323C96.1022 233.855 97.3162 241.127 105.315 250.137C110.368 255.817 121.555 264.145 128.887 274.926C133.408 281.563 134.606 289.9 134.191 301.618L141.707 298.237C141.707 298.237 150.082 264.541 132.123 239.964C124.511 229.54 116.048 225.396 109.595 225.396V225.425Z" fill="#D4C5FF"/>
<path d="M139.514 288.663C139.369 288.663 139.229 288.607 139.124 288.506C139.02 288.405 138.959 288.267 138.954 288.122C138.471 253.972 104.176 230.748 103.799 230.526C103.737 230.487 103.683 230.437 103.641 230.378C103.599 230.319 103.569 230.251 103.553 230.18C103.536 230.11 103.534 230.036 103.547 229.964C103.559 229.893 103.586 229.824 103.625 229.763C103.706 229.641 103.831 229.556 103.973 229.526C104.116 229.495 104.264 229.521 104.388 229.598C104.736 229.821 139.572 253.383 140.065 288.103C140.066 288.176 140.053 288.249 140.026 288.317C139.998 288.385 139.958 288.446 139.907 288.499C139.856 288.551 139.794 288.592 139.727 288.62C139.66 288.649 139.587 288.663 139.514 288.663Z" fill="#D4C5FF"/>
<path d="M111.228 236.119H111.112C111.041 236.104 110.973 236.076 110.913 236.034C110.853 235.993 110.802 235.941 110.763 235.88C110.723 235.818 110.696 235.75 110.683 235.679C110.67 235.607 110.672 235.534 110.687 235.462L112.117 228.7C112.132 228.629 112.161 228.561 112.202 228.501C112.243 228.441 112.296 228.39 112.357 228.351C112.418 228.311 112.486 228.284 112.558 228.271C112.629 228.258 112.703 228.259 112.774 228.275C112.916 228.307 113.041 228.394 113.12 228.517C113.199 228.64 113.228 228.789 113.199 228.932L111.769 235.694C111.741 235.816 111.671 235.924 111.573 236.002C111.475 236.079 111.353 236.12 111.228 236.119Z" fill="#D4C5FF"/>
<path d="M104.754 241.095C104.635 241.096 104.518 241.057 104.422 240.986C104.327 240.915 104.257 240.814 104.223 240.699C104.184 240.557 104.203 240.405 104.276 240.277C104.348 240.148 104.468 240.054 104.609 240.013L113.439 237.53C113.581 237.492 113.733 237.511 113.862 237.583C113.99 237.655 114.085 237.775 114.125 237.917C114.144 237.987 114.149 238.059 114.14 238.131C114.131 238.203 114.108 238.272 114.072 238.335C114.036 238.398 113.988 238.453 113.931 238.497C113.874 238.541 113.809 238.574 113.739 238.593L104.909 241.076C104.859 241.091 104.807 241.098 104.754 241.095Z" fill="#D4C5FF"/>
<path d="M118.29 242.805H118.135C118.065 242.785 118 242.751 117.943 242.706C117.886 242.66 117.839 242.604 117.804 242.541C117.769 242.477 117.747 242.407 117.739 242.334C117.731 242.262 117.738 242.189 117.759 242.119L120.241 233.309C120.282 233.169 120.375 233.051 120.501 232.979C120.628 232.907 120.777 232.886 120.918 232.922C121.059 232.963 121.179 233.057 121.252 233.186C121.324 233.314 121.343 233.466 121.304 233.608L118.821 242.418C118.783 242.53 118.712 242.627 118.617 242.696C118.522 242.765 118.408 242.803 118.29 242.805Z" fill="#D4C5FF"/>
<path d="M109.469 249.287C109.334 249.292 109.202 249.247 109.097 249.161C108.993 249.075 108.924 248.953 108.904 248.819C108.883 248.685 108.913 248.549 108.987 248.435C109.061 248.322 109.174 248.24 109.305 248.205L120.589 244.814C120.66 244.786 120.736 244.774 120.812 244.777C120.888 244.781 120.962 244.8 121.031 244.834C121.099 244.867 121.16 244.915 121.209 244.973C121.258 245.031 121.294 245.099 121.316 245.172C121.337 245.246 121.343 245.322 121.334 245.398C121.324 245.473 121.298 245.546 121.259 245.611C121.22 245.677 121.168 245.733 121.105 245.777C121.043 245.821 120.972 245.852 120.898 245.867L109.624 249.258C109.575 249.277 109.522 249.287 109.469 249.287Z" fill="#D4C5FF"/>
<path d="M124.598 250.051H124.405C124.269 249.997 124.159 249.892 124.1 249.758C124.04 249.625 124.035 249.473 124.086 249.336L127.689 239.675C127.74 239.538 127.844 239.427 127.977 239.367C128.11 239.306 128.262 239.301 128.399 239.352C128.536 239.403 128.647 239.507 128.708 239.64C128.769 239.773 128.774 239.925 128.723 240.062L125.12 249.722C125.075 249.823 125.002 249.908 124.909 249.967C124.816 250.025 124.708 250.054 124.598 250.051Z" fill="#D4C5FF"/>
<path d="M115.236 254.282C115.097 254.289 114.96 254.242 114.853 254.152C114.747 254.061 114.679 253.934 114.663 253.795C114.647 253.656 114.684 253.517 114.767 253.404C114.851 253.292 114.973 253.216 115.111 253.19L125.38 250.679C125.45 250.662 125.523 250.658 125.595 250.67C125.667 250.681 125.735 250.706 125.797 250.744C125.859 250.781 125.913 250.831 125.956 250.889C125.998 250.948 126.029 251.014 126.046 251.084C126.064 251.155 126.067 251.228 126.056 251.3C126.044 251.371 126.019 251.44 125.982 251.502C125.944 251.564 125.894 251.618 125.836 251.66C125.777 251.703 125.711 251.734 125.641 251.751L115.371 254.224L115.236 254.282Z" fill="#D4C5FF"/>
<path d="M129.573 256.378C129.479 256.375 129.386 256.352 129.302 256.31C129.175 256.237 129.082 256.117 129.042 255.977C129.003 255.836 129.02 255.685 129.09 255.557L133.282 247.905C133.308 247.828 133.351 247.756 133.408 247.697C133.464 247.638 133.533 247.591 133.61 247.561C133.686 247.532 133.768 247.519 133.85 247.524C133.932 247.529 134.012 247.553 134.084 247.592C134.156 247.632 134.218 247.687 134.266 247.753C134.315 247.819 134.348 247.895 134.364 247.976C134.379 248.057 134.377 248.14 134.357 248.219C134.337 248.299 134.3 248.373 134.248 248.437L130.046 256.088C130 256.174 129.932 256.246 129.848 256.297C129.765 256.348 129.67 256.376 129.573 256.378Z" fill="#D4C5FF"/>
<path d="M121.883 260.068C121.747 260.069 121.615 260.019 121.513 259.928C121.411 259.837 121.347 259.711 121.333 259.576C121.319 259.43 121.363 259.285 121.455 259.171C121.547 259.057 121.68 258.984 121.825 258.967L130.269 258.098C130.414 258.084 130.56 258.128 130.673 258.22C130.787 258.312 130.86 258.445 130.877 258.59C130.885 258.663 130.879 258.736 130.858 258.806C130.838 258.876 130.804 258.941 130.758 258.997C130.712 259.054 130.656 259.101 130.591 259.136C130.527 259.17 130.457 259.192 130.385 259.199L121.941 260.068H121.883Z" fill="#D4C5FF"/>
<path d="M133.09 263.237C132.984 263.236 132.88 263.206 132.79 263.15C132.729 263.111 132.677 263.06 132.635 263C132.594 262.941 132.565 262.874 132.55 262.803C132.534 262.732 132.533 262.659 132.546 262.587C132.56 262.516 132.587 262.448 132.626 262.387L136.838 255.808C136.918 255.685 137.042 255.598 137.184 255.566C137.327 255.533 137.477 255.558 137.601 255.634C137.663 255.673 137.717 255.723 137.759 255.782C137.801 255.841 137.831 255.909 137.848 255.98C137.864 256.05 137.866 256.124 137.853 256.196C137.841 256.267 137.814 256.336 137.775 256.397L133.554 262.986C133.504 263.064 133.436 263.128 133.354 263.172C133.273 263.216 133.182 263.238 133.09 263.237Z" fill="#D4C5FF"/>
<path d="M134.49 267.014L128.413 266.888C128.341 266.888 128.269 266.874 128.202 266.845C128.135 266.817 128.074 266.775 128.024 266.723C127.973 266.671 127.934 266.609 127.908 266.541C127.882 266.473 127.87 266.401 127.872 266.328C127.875 266.184 127.934 266.046 128.037 265.945C128.14 265.844 128.279 265.787 128.423 265.787L134.499 265.913C134.572 265.913 134.644 265.927 134.711 265.956C134.778 265.984 134.838 266.026 134.889 266.078C134.939 266.13 134.979 266.192 135.005 266.26C135.031 266.328 135.043 266.4 135.04 266.473C135.038 266.617 134.979 266.755 134.876 266.856C134.773 266.957 134.634 267.014 134.49 267.014Z" fill="#D4C5FF"/>
<path d="M136.587 271.593C136.469 271.591 136.355 271.554 136.258 271.487C136.2 271.444 136.15 271.39 136.113 271.328C136.075 271.266 136.05 271.197 136.039 271.125C136.029 271.053 136.032 270.98 136.05 270.909C136.067 270.839 136.099 270.772 136.142 270.714L139.765 265.758C139.808 265.7 139.862 265.651 139.924 265.613C139.987 265.576 140.056 265.551 140.127 265.54C140.199 265.53 140.272 265.533 140.343 265.551C140.413 265.568 140.479 265.599 140.538 265.642C140.596 265.686 140.645 265.74 140.683 265.802C140.72 265.864 140.745 265.933 140.756 266.005C140.767 266.077 140.763 266.15 140.746 266.22C140.728 266.291 140.697 266.357 140.654 266.415L137.031 271.361C136.982 271.434 136.915 271.493 136.838 271.533C136.76 271.574 136.674 271.594 136.587 271.593Z" fill="#D4C5FF"/>
<path d="M137.688 275.873L133.089 275.564C133.017 275.559 132.946 275.54 132.881 275.508C132.816 275.475 132.758 275.431 132.711 275.376C132.663 275.321 132.627 275.257 132.604 275.189C132.581 275.12 132.572 275.047 132.577 274.975C132.579 274.901 132.597 274.829 132.628 274.763C132.66 274.697 132.704 274.638 132.76 274.59C132.815 274.542 132.88 274.506 132.95 274.484C133.02 274.462 133.094 274.455 133.166 274.463L137.755 274.772C137.89 274.79 138.014 274.856 138.103 274.958C138.193 275.06 138.242 275.191 138.242 275.327C138.242 275.463 138.193 275.594 138.103 275.697C138.014 275.799 137.89 275.865 137.755 275.883L137.688 275.873Z" fill="#D4C5FF"/>
<path d="M259.488 318.486C259.363 318.488 259.241 318.449 259.142 318.373C259.042 318.298 258.97 318.192 258.938 318.071C252.301 290.19 273.912 264.706 276.394 261.894C277.959 260.127 282.993 253.934 282.268 248.466C282.108 247.368 281.705 246.32 281.088 245.397C280.472 244.475 279.657 243.701 278.703 243.134C276.567 241.709 274.033 241.002 271.468 241.115C265.671 241.327 259.411 245.327 253.818 252.369C245.993 262.223 242.225 283.959 245.857 297.957C246.947 302.148 248.378 306.241 250.137 310.197C251.552 313.374 253.685 316.178 256.368 318.39C256.628 318.569 256.837 318.812 256.977 319.095C256.577 319.259 256.13 319.259 255.73 319.095C255.342 318.924 254.983 318.692 254.668 318.409C252.348 316.399 250.521 313.884 249.325 311.057C247.458 306.926 245.946 302.644 244.804 298.257C241.008 283.718 244.804 261.972 252.968 251.712C258.764 244.409 265.323 240.255 271.429 240.033C274.222 239.913 276.98 240.688 279.302 242.245C280.388 242.896 281.315 243.781 282.015 244.836C282.715 245.89 283.171 247.088 283.35 248.341C284.142 254.263 278.858 260.784 277.216 262.638C274.762 265.401 253.489 290.499 260 317.839C260.035 317.977 260.014 318.122 259.942 318.245C259.863 318.37 259.738 318.46 259.595 318.496L259.488 318.486Z" fill="#D4C5FF"/>
<path d="M257.296 318.398C257.296 318.65 257.45 319.471 257.112 319.538C256.774 319.606 256.446 319.026 256.33 318.823C255.768 317.672 255.352 316.455 255.093 315.201C254.736 314.099 254.398 312.998 254.127 311.887C253.23 308.751 252.504 305.568 251.954 302.352C250.263 292.518 250.128 282.065 253.422 272.549C258.445 258.058 271.149 246.224 276.269 244.244C276.33 244.23 276.392 244.23 276.453 244.244C276.566 244.237 276.678 244.268 276.772 244.33C276.866 244.393 276.937 244.485 276.974 244.591C277.001 244.658 277.014 244.729 277.013 244.801C277.012 244.872 276.996 244.943 276.967 245.009C276.939 245.074 276.897 245.134 276.845 245.183C276.793 245.232 276.732 245.271 276.665 245.297C272.299 246.987 259.46 258.445 254.446 272.936C254.108 273.902 253.818 274.868 253.548 275.892C251.094 285.089 251.557 294.914 253.374 304.188C254.017 307.481 254.846 310.736 255.856 313.935C256.474 315.375 256.956 316.869 257.296 318.398Z" fill="#D4C5FF"/>
<path d="M279.872 251.799H279.766L269.468 250.282C269.326 250.258 269.2 250.18 269.115 250.065C269.03 249.949 268.994 249.805 269.014 249.664C269.031 249.539 269.092 249.424 269.186 249.339C269.279 249.255 269.4 249.205 269.526 249.2C269.561 249.195 269.597 249.195 269.632 249.2L279.93 250.678C279.999 250.689 280.065 250.713 280.125 250.75C280.185 250.786 280.237 250.834 280.278 250.89C280.325 250.946 280.359 251.011 280.377 251.081C280.396 251.151 280.398 251.225 280.384 251.296C280.366 251.421 280.305 251.536 280.212 251.62C280.118 251.705 279.998 251.754 279.872 251.76V251.799Z" fill="#D4C5FF"/>
<path d="M274.568 257.556L263.816 256.329C263.674 256.31 263.545 256.237 263.456 256.126C263.366 256.014 263.322 255.873 263.333 255.73C263.349 255.601 263.41 255.482 263.506 255.393C263.601 255.305 263.725 255.253 263.855 255.247L274.694 256.474C274.832 256.487 274.96 256.553 275.051 256.658C275.143 256.775 275.185 256.925 275.167 257.073C275.152 257.202 275.09 257.321 274.995 257.41C274.899 257.498 274.776 257.55 274.646 257.556H274.568Z" fill="#D4C5FF"/>
<path d="M271.11 263.237H271.003L259.923 261.604C259.852 261.594 259.785 261.569 259.724 261.533C259.663 261.496 259.609 261.447 259.567 261.39C259.525 261.332 259.495 261.267 259.478 261.198C259.461 261.129 259.458 261.057 259.469 260.986C259.487 260.861 259.548 260.747 259.641 260.662C259.735 260.577 259.855 260.528 259.981 260.522H260.087L271.177 262.194C271.248 262.198 271.318 262.215 271.382 262.246C271.446 262.277 271.504 262.32 271.551 262.373C271.599 262.426 271.636 262.487 271.659 262.554C271.683 262.622 271.693 262.693 271.689 262.764C271.686 262.835 271.668 262.904 271.637 262.969C271.606 263.033 271.563 263.09 271.51 263.138C271.457 263.185 271.396 263.222 271.329 263.246C271.262 263.269 271.19 263.28 271.119 263.276L271.11 263.237Z" fill="#D4C5FF"/>
<path d="M256.166 267.806C256.022 267.794 255.889 267.727 255.794 267.619C255.698 267.511 255.648 267.371 255.654 267.227C255.661 267.092 255.719 266.964 255.815 266.869C255.912 266.775 256.04 266.719 256.176 266.715L268.213 267.478C268.284 267.479 268.355 267.495 268.419 267.525C268.484 267.555 268.542 267.598 268.589 267.652C268.685 267.761 268.733 267.903 268.725 268.048C268.717 268.183 268.66 268.311 268.563 268.405C268.467 268.5 268.338 268.555 268.203 268.56L256.166 267.806Z" fill="#D4C5FF"/>
<path d="M253.693 273.863C253.548 273.856 253.413 273.792 253.315 273.685C253.217 273.578 253.166 273.438 253.171 273.293C253.178 273.157 253.235 273.028 253.331 272.932C253.428 272.836 253.556 272.778 253.693 272.771L264.995 273.264C265.128 273.282 265.249 273.347 265.337 273.447C265.425 273.548 265.473 273.677 265.473 273.81C265.473 273.943 265.425 274.072 265.337 274.173C265.249 274.273 265.128 274.338 264.995 274.356L253.693 273.863Z" fill="#D4C5FF"/>
<path d="M252.04 281.254C251.899 281.24 251.767 281.174 251.671 281.069C251.575 280.964 251.52 280.827 251.519 280.684C251.526 280.548 251.583 280.42 251.679 280.323C251.776 280.227 251.904 280.17 252.04 280.163L262.213 280.607C262.285 280.605 262.357 280.619 262.424 280.647C262.491 280.675 262.55 280.717 262.6 280.77C262.649 280.823 262.687 280.886 262.71 280.954C262.733 281.023 262.742 281.095 262.735 281.167C262.728 281.303 262.671 281.432 262.574 281.528C262.478 281.625 262.349 281.682 262.213 281.689L252.04 281.254Z" fill="#D4C5FF"/>
<path d="M251.335 287.292H251.219C251.088 287.267 250.971 287.195 250.89 287.09C250.809 286.985 250.769 286.853 250.779 286.721C250.788 286.588 250.846 286.464 250.942 286.371C251.037 286.279 251.163 286.225 251.296 286.219L259.334 286.036C259.404 286.035 259.473 286.048 259.538 286.075C259.603 286.101 259.661 286.141 259.711 286.19C259.765 286.239 259.809 286.298 259.839 286.365C259.869 286.432 259.884 286.504 259.884 286.577C259.887 286.719 259.834 286.856 259.736 286.959C259.639 287.062 259.505 287.122 259.363 287.127L251.335 287.292Z" fill="#D4C5FF"/>
<path d="M251.49 294.943H251.364C251.252 294.921 251.15 294.865 251.072 294.781C250.994 294.698 250.944 294.592 250.93 294.479C250.91 294.336 250.948 294.19 251.035 294.075C251.122 293.959 251.25 293.882 251.393 293.861L257.644 292.991C257.785 292.977 257.927 293.017 258.04 293.103C258.153 293.189 258.229 293.315 258.252 293.455C258.272 293.598 258.234 293.743 258.147 293.859C258.061 293.975 257.932 294.052 257.789 294.073L251.49 294.943Z" fill="#D4C5FF"/>
<path d="M252.186 301.203H252.07C251.968 301.182 251.874 301.133 251.799 301.062C251.723 300.99 251.67 300.898 251.645 300.797C251.627 300.728 251.624 300.656 251.634 300.586C251.645 300.515 251.669 300.448 251.706 300.386C251.743 300.325 251.792 300.272 251.849 300.23C251.906 300.188 251.972 300.157 252.041 300.14L257.325 298.807H257.431C257.557 298.802 257.681 298.84 257.782 298.916C257.882 298.992 257.953 299.1 257.982 299.223C258.002 299.292 258.007 299.365 257.997 299.436C257.987 299.508 257.962 299.577 257.924 299.638C257.888 299.7 257.839 299.753 257.781 299.795C257.722 299.836 257.656 299.865 257.586 299.879L252.302 301.213L252.186 301.203Z" fill="#D4C5FF"/>
<path d="M251.857 298.479H251.731H251.615L246.225 296.083C246.096 296.026 245.992 295.922 245.935 295.793C245.882 295.656 245.882 295.505 245.935 295.368C245.976 295.273 246.043 295.191 246.128 295.133C246.214 295.075 246.315 295.042 246.418 295.04C246.498 295.042 246.576 295.058 246.65 295.088L252.012 297.426C252.144 297.484 252.248 297.591 252.301 297.725C252.332 297.806 252.343 297.893 252.334 297.979C252.324 298.064 252.295 298.147 252.248 298.219C252.201 298.292 252.138 298.352 252.063 298.395C251.988 298.439 251.905 298.464 251.818 298.469L251.857 298.479Z" fill="#D4C5FF"/>
<path d="M251.316 290.721H251.19H251.074L245.5 288.238C245.368 288.18 245.264 288.073 245.21 287.939C245.157 287.805 245.157 287.657 245.21 287.523C245.239 287.456 245.28 287.396 245.332 287.346C245.384 287.295 245.446 287.256 245.513 287.23C245.581 287.204 245.653 287.191 245.725 287.194C245.798 287.196 245.869 287.213 245.935 287.243L251.509 289.726C251.626 289.773 251.723 289.859 251.783 289.969C251.843 290.08 251.863 290.208 251.839 290.331C251.815 290.455 251.749 290.566 251.652 290.646C251.554 290.726 251.432 290.77 251.306 290.769L251.316 290.721Z" fill="#D4C5FF"/>
<path d="M251.625 283.611C251.583 283.621 251.541 283.621 251.499 283.611C251.448 283.604 251.399 283.588 251.354 283.563L246.225 280.868C246.161 280.835 246.104 280.79 246.058 280.735C246.012 280.681 245.977 280.617 245.955 280.549C245.934 280.481 245.926 280.409 245.932 280.338C245.939 280.266 245.959 280.197 245.993 280.134C246.036 280.048 246.103 279.975 246.184 279.924C246.266 279.873 246.36 279.845 246.456 279.844C246.55 279.835 246.645 279.855 246.727 279.902L251.857 282.558C251.984 282.626 252.079 282.741 252.122 282.878C252.166 283.015 252.153 283.164 252.088 283.293C252.049 283.384 251.984 283.462 251.902 283.518C251.82 283.575 251.724 283.607 251.625 283.611Z" fill="#D4C5FF"/>
<path d="M252.997 276.481H252.871C252.788 276.468 252.711 276.431 252.649 276.375L247.587 272.511C247.529 272.468 247.481 272.415 247.444 272.354C247.408 272.292 247.384 272.224 247.374 272.153C247.355 272.009 247.393 271.863 247.481 271.748C247.531 271.685 247.594 271.634 247.666 271.598C247.737 271.561 247.816 271.54 247.896 271.535C248.025 271.531 248.151 271.572 248.253 271.651L253.306 275.515C253.363 275.558 253.412 275.612 253.448 275.673C253.485 275.735 253.509 275.804 253.519 275.875C253.529 275.946 253.524 276.018 253.506 276.087C253.488 276.156 253.456 276.221 253.412 276.278C253.362 276.341 253.299 276.392 253.227 276.429C253.156 276.466 253.077 276.487 252.997 276.491V276.481Z" fill="#D4C5FF"/>
<path d="M266.685 253.026H266.56C266.477 253.013 266.398 252.979 266.331 252.929C266.263 252.878 266.209 252.812 266.173 252.736L263.217 246.747C263.184 246.683 263.164 246.613 263.158 246.541C263.152 246.469 263.161 246.397 263.183 246.329C263.206 246.261 263.242 246.197 263.289 246.143C263.336 246.089 263.394 246.044 263.458 246.013C263.53 245.983 263.604 245.964 263.681 245.955C263.786 245.954 263.89 245.982 263.98 246.037C264.071 246.091 264.144 246.17 264.193 246.264L267.149 252.253C267.18 252.317 267.198 252.387 267.203 252.458C267.207 252.529 267.197 252.6 267.174 252.668C267.15 252.735 267.114 252.797 267.067 252.85C267.019 252.904 266.962 252.947 266.898 252.978C266.832 253.011 266.759 253.028 266.685 253.026Z" fill="#D4C5FF"/>
<path d="M261.711 258.919H261.585C261.507 258.903 261.433 258.871 261.368 258.824C261.303 258.778 261.248 258.718 261.209 258.648L257.344 251.422C257.279 251.295 257.265 251.147 257.307 251.01C257.348 250.873 257.441 250.757 257.567 250.688C257.64 250.646 257.723 250.623 257.808 250.62C257.91 250.618 258.011 250.644 258.1 250.695C258.188 250.746 258.261 250.821 258.31 250.91L262.175 258.127C262.208 258.189 262.23 258.258 262.237 258.329C262.244 258.4 262.237 258.472 262.216 258.54C262.196 258.608 262.162 258.672 262.116 258.727C262.071 258.782 262.015 258.827 261.952 258.861C261.879 258.903 261.795 258.923 261.711 258.919Z" fill="#D4C5FF"/>
<path d="M258.137 264.28H258.011C257.88 264.262 257.762 264.192 257.683 264.087L252.649 257.759C252.605 257.703 252.573 257.639 252.554 257.57C252.535 257.501 252.529 257.429 252.538 257.358C252.547 257.287 252.57 257.218 252.606 257.156C252.642 257.094 252.689 257.04 252.746 256.996C252.831 256.92 252.941 256.879 253.055 256.88C253.142 256.875 253.228 256.891 253.307 256.926C253.386 256.962 253.455 257.015 253.509 257.083L258.542 263.411C258.63 263.524 258.67 263.668 258.654 263.81C258.638 263.953 258.567 264.083 258.455 264.174C258.365 264.245 258.252 264.282 258.137 264.28Z" fill="#D4C5FF"/>
<path d="M255.025 270.405H254.9C254.784 270.386 254.678 270.328 254.6 270.241L249.403 264.647C249.353 264.594 249.315 264.532 249.29 264.464C249.265 264.396 249.254 264.323 249.258 264.251C249.259 264.18 249.275 264.109 249.305 264.044C249.335 263.979 249.378 263.922 249.432 263.874C249.524 263.782 249.649 263.73 249.78 263.729C249.857 263.726 249.935 263.74 250.007 263.77C250.078 263.8 250.143 263.846 250.195 263.903L255.402 269.497C255.498 269.606 255.549 269.748 255.547 269.893C255.54 270.036 255.478 270.172 255.373 270.27C255.275 270.351 255.153 270.399 255.025 270.405Z" fill="#D4C5FF"/>
<path d="M272.887 247.432H272.762C272.671 247.415 272.586 247.375 272.515 247.315C272.444 247.256 272.389 247.18 272.356 247.094L270.946 243.365C270.892 243.231 270.892 243.082 270.946 242.949C271.01 242.818 271.12 242.715 271.255 242.659H271.429C271.542 242.657 271.653 242.689 271.748 242.751C271.843 242.813 271.917 242.902 271.96 243.007L273.361 246.736C273.389 246.802 273.404 246.872 273.404 246.944C273.404 247.015 273.389 247.086 273.361 247.151C273.303 247.284 273.195 247.388 273.061 247.441L272.887 247.432Z" fill="#D4C5FF"/>
<path d="M145.058 334.271C136.116 339.97 125.315 341.988 114.917 339.903C111.69 339.251 108.573 338.139 105.662 336.599C92.0024 329.267 96.2434 325.219 98.504 323.634C100.765 322.05 106.802 317.944 108.338 314.254C104.844 316.133 101.166 317.651 97.364 318.785C91.8285 320.311 90.6692 322.968 85.2496 316.099C79.83 309.231 77.8689 297.377 77.8689 297.377C77.8689 297.377 87.0755 298.43 91.6449 294.711C91.6449 294.711 82.2065 293.445 79.0089 291.407C75.8112 289.368 76.0334 285.939 75.0674 280.104C74.1013 274.269 72.2851 267.709 75.3572 266.879C78.4292 266.048 86.6891 264.193 98.5426 268.685C98.5426 268.685 103.904 278.152 103.982 284.857C103.982 284.857 106.368 277.07 102.948 266.55C107.059 266.522 111.136 267.29 114.956 268.811C121.438 271.351 125.728 274.056 127.041 276.288C128.355 278.52 130.365 289.272 127.524 298.275C127.524 298.275 133.021 292.296 132.596 284.751C132.171 277.206 134.277 278.751 137.369 280.104C140.151 281.321 154.864 300.246 152.159 323.142C151.877 325.415 151.09 327.597 149.856 329.527C148.623 331.458 146.974 333.088 145.029 334.3L145.058 334.271Z" fill="#D4C5FF"/>
<path opacity="0.5" d="M145.058 334.271C136.116 339.97 125.315 341.988 114.917 339.903C111.69 339.251 108.573 338.139 105.662 336.599C92.0024 329.267 96.2434 325.219 98.504 323.634C100.765 322.05 106.802 317.944 108.338 314.254C104.844 316.133 101.166 317.651 97.364 318.785C91.8285 320.311 90.6692 322.968 85.2496 316.099C79.83 309.231 77.8689 297.377 77.8689 297.377C77.8689 297.377 87.0755 298.43 91.6449 294.711C91.6449 294.711 82.2065 293.445 79.0089 291.407C75.8112 289.368 76.0334 285.939 75.0674 280.104C74.1013 274.269 72.2851 267.709 75.3572 266.879C78.4292 266.048 86.6891 264.193 98.5426 268.685C98.5426 268.685 103.904 278.152 103.982 284.857C103.982 284.857 106.368 277.07 102.948 266.55C107.059 266.522 111.136 267.29 114.956 268.811C121.438 271.351 125.728 274.056 127.041 276.288C128.355 278.52 130.365 289.272 127.524 298.275C127.524 298.275 133.021 292.296 132.596 284.751C132.171 277.206 134.277 278.751 137.369 280.104C140.151 281.321 154.864 300.246 152.159 323.142C151.877 325.415 151.09 327.597 149.856 329.527C148.623 331.458 146.974 333.088 145.029 334.3L145.058 334.271Z" fill="#D4C5FF"/>
<path d="M140.48 333.228C140.404 333.228 140.329 333.209 140.262 333.174C140.195 333.139 140.137 333.088 140.093 333.025C107.45 284.172 76.633 269.777 76.3335 269.642C76.236 269.584 76.1633 269.492 76.1291 269.383C76.095 269.275 76.1018 269.158 76.1482 269.054C76.1947 268.951 76.2776 268.868 76.3812 268.821C76.4848 268.774 76.6019 268.768 76.7103 268.802C77.0194 268.946 108.069 283.428 140.866 332.513C140.901 332.563 140.925 332.619 140.937 332.679C140.949 332.738 140.95 332.799 140.938 332.858C140.926 332.918 140.903 332.974 140.869 333.025C140.835 333.075 140.791 333.118 140.741 333.151C140.663 333.201 140.572 333.228 140.48 333.228Z" fill="#D4C5FF"/>
<path d="M86.0617 308.806C85.9523 308.8 85.8485 308.756 85.7686 308.681C85.6888 308.606 85.6379 308.506 85.6252 308.397C85.6125 308.288 85.6387 308.178 85.6991 308.087C85.7595 307.996 85.8503 307.929 85.9554 307.898C86.11 307.898 101.325 304.323 112.039 297.329C112.141 297.278 112.258 297.266 112.368 297.296C112.479 297.326 112.574 297.395 112.636 297.491C112.698 297.586 112.723 297.702 112.706 297.815C112.688 297.927 112.63 298.03 112.541 298.102C101.683 305.183 86.3032 308.729 86.1486 308.796L86.0617 308.806Z" fill="#D4C5FF"/>
<path d="M108.098 330.03C107.998 330.032 107.9 330.001 107.82 329.941C107.739 329.882 107.681 329.798 107.653 329.702C107.62 329.585 107.634 329.46 107.692 329.354C107.749 329.247 107.847 329.168 107.962 329.132C108.078 329.132 120.251 325.326 130.017 318.409C130.067 318.374 130.123 318.35 130.182 318.338C130.24 318.325 130.301 318.324 130.36 318.335C130.419 318.345 130.476 318.368 130.527 318.4C130.577 318.433 130.621 318.475 130.655 318.525C130.689 318.574 130.714 318.63 130.726 318.689C130.739 318.747 130.74 318.808 130.729 318.867C130.718 318.927 130.696 318.983 130.663 319.034C130.631 319.084 130.589 319.128 130.539 319.162C120.656 326.156 108.32 329.972 108.233 330.011L108.098 330.03Z" fill="#D4C5FF"/>
<path d="M90.622 282.781C86.7052 282.657 82.831 281.93 79.1355 280.626C79.0215 280.584 78.929 280.498 78.8782 280.388C78.8275 280.277 78.8228 280.151 78.865 280.037C78.9073 279.923 78.9931 279.83 79.1037 279.78C79.2142 279.729 79.3403 279.724 79.4543 279.766C79.5413 279.766 88.3807 282.983 94.6601 281.389C94.7178 281.374 94.7782 281.37 94.8375 281.378C94.8969 281.386 94.954 281.406 95.0054 281.436C95.0569 281.467 95.1016 281.508 95.1368 281.556C95.1721 281.604 95.1973 281.659 95.2108 281.718C95.2403 281.836 95.2224 281.96 95.161 282.065C95.0996 282.17 94.9995 282.246 94.8823 282.278C93.4878 282.618 92.0572 282.787 90.622 282.781Z" fill="#D4C5FF"/>
<path d="M117.43 303.135H117.285C117.227 303.113 117.173 303.079 117.128 303.035C117.083 302.992 117.047 302.94 117.022 302.882C116.998 302.824 116.986 302.762 116.986 302.699C116.986 302.636 116.999 302.574 117.024 302.517C123.082 287.958 117.082 273.641 117.024 273.535C116.998 273.478 116.983 273.417 116.981 273.354C116.98 273.291 116.991 273.229 117.015 273.171C117.038 273.113 117.074 273.06 117.118 273.017C117.163 272.973 117.217 272.939 117.276 272.917C117.332 272.891 117.393 272.877 117.455 272.876C117.516 272.874 117.578 272.885 117.636 272.907C117.693 272.93 117.746 272.964 117.79 273.007C117.834 273.05 117.87 273.101 117.894 273.158C117.961 273.313 124.115 287.997 117.894 302.913C117.846 302.991 117.777 303.053 117.695 303.092C117.612 303.132 117.521 303.147 117.43 303.135Z" fill="#D4C5FF"/>
<path d="M133.997 323.133C133.908 323.13 133.821 323.104 133.746 323.055C133.644 322.988 133.573 322.884 133.547 322.764C133.522 322.645 133.545 322.52 133.611 322.418C138.807 314.403 140.765 304.714 139.088 295.31C139.076 295.251 139.076 295.19 139.087 295.131C139.099 295.072 139.122 295.016 139.155 294.966C139.188 294.915 139.231 294.872 139.281 294.838C139.331 294.805 139.387 294.781 139.446 294.769C139.505 294.757 139.566 294.757 139.625 294.768C139.684 294.78 139.74 294.803 139.79 294.836C139.84 294.869 139.884 294.912 139.917 294.962C139.951 295.011 139.975 295.067 139.987 295.126C141.708 304.766 139.705 314.7 134.384 322.92C134.341 322.984 134.284 323.037 134.217 323.074C134.149 323.111 134.074 323.131 133.997 323.133Z" fill="#D4C5FF"/>
<path d="M288.798 347.139C287.8 346.392 286.834 345.6 285.9 344.763C284.238 343.173 282.81 341.355 281.659 339.362C281.539 339.202 281.465 339.012 281.447 338.812C281.438 338.71 281.468 338.609 281.531 338.528C281.593 338.448 281.684 338.394 281.785 338.377C281.94 338.4 282.081 338.479 282.181 338.599C282.669 339.139 283.12 339.71 283.533 340.309C286.363 343.91 289.863 346.928 293.841 349.197C297.89 351.731 302.329 353.578 306.98 354.665C309.166 355.155 311.405 355.373 313.646 355.312C320.611 355.061 324.939 350.482 326.011 346.308C327.083 342.135 325.296 338.319 321.335 335.952C311.868 330.291 297.493 331.122 286.374 337.933C286.238 338.016 286.074 338.042 285.919 338.006C285.763 337.97 285.628 337.874 285.543 337.739C285.501 337.672 285.473 337.596 285.46 337.518C285.448 337.439 285.451 337.359 285.47 337.281C285.489 337.204 285.523 337.131 285.57 337.067C285.618 337.003 285.677 336.949 285.746 336.909C297.232 329.847 312.119 329.035 321.954 334.919C326.426 337.595 328.378 341.961 327.18 346.608C325.741 352.211 320.195 356.269 313.655 356.52C309.478 356.579 305.328 355.831 301.435 354.317C297.912 352.956 294.565 351.179 291.465 349.023C290.547 348.424 289.658 347.796 288.798 347.139Z" fill="#D4C5FF"/>
<path d="M288.316 340.714H288.229C287.24 340.442 286.271 340.1 285.331 339.69C284.431 339.317 283.573 338.85 282.77 338.299C282.577 338.154 282.355 337.942 282.413 337.7C282.831 337.705 283.243 337.801 283.621 337.98L284.451 338.299C288.989 339.96 293.765 340.879 298.595 341.023C302.555 341.12 306.516 341.4 310.458 341.777C313.601 342.073 316.731 342.44 319.848 342.878C321.152 343.062 322.456 343.245 323.712 343.458C323.79 343.471 323.865 343.499 323.932 343.541C324 343.583 324.058 343.638 324.104 343.703C324.15 343.767 324.182 343.841 324.199 343.918C324.217 343.995 324.219 344.075 324.205 344.153C324.179 344.312 324.091 344.454 323.961 344.548C323.83 344.642 323.668 344.681 323.509 344.656L322.891 344.55C320.869 344.24 318.843 343.96 316.814 343.709C313.404 343.274 309.975 342.917 306.536 342.656C304.091 342.463 301.647 342.289 299.193 342.318C296.714 342.329 294.241 342.083 291.813 341.584C290.654 341.352 289.475 341.062 288.316 340.714Z" fill="#D4C5FF"/>
<path d="M319.867 350.694C319.797 350.645 319.738 350.583 319.693 350.511L315.452 343.294C315.371 343.156 315.347 342.991 315.387 342.835C315.427 342.679 315.527 342.546 315.665 342.463C315.804 342.384 315.968 342.362 316.123 342.402C316.278 342.442 316.411 342.54 316.495 342.676L320.736 349.902C320.778 349.969 320.805 350.045 320.817 350.123C320.829 350.201 320.824 350.281 320.805 350.358C320.785 350.434 320.75 350.506 320.701 350.569C320.653 350.632 320.593 350.684 320.524 350.723C320.423 350.783 320.308 350.812 320.191 350.807C320.074 350.802 319.962 350.762 319.867 350.694Z" fill="#D4C5FF"/>
<path d="M311.752 351.805C311.669 351.752 311.605 351.675 311.569 351.583L307.076 342.454C307.019 342.311 307.018 342.152 307.074 342.008C307.129 341.865 307.237 341.747 307.375 341.68C307.513 341.613 307.672 341.6 307.819 341.645C307.966 341.69 308.091 341.789 308.168 341.922L312.622 351.042C312.687 351.163 312.708 351.303 312.682 351.438C312.656 351.573 312.584 351.695 312.479 351.784C312.373 351.872 312.241 351.922 312.103 351.924C311.965 351.926 311.831 351.881 311.723 351.795L311.752 351.805Z" fill="#D4C5FF"/>
<path d="M303.696 351.312C303.609 351.256 303.541 351.175 303.502 351.08L299.02 341.912C298.985 341.841 298.965 341.764 298.961 341.685C298.956 341.606 298.967 341.528 298.993 341.453C299.019 341.378 299.06 341.31 299.112 341.251C299.165 341.192 299.229 341.144 299.3 341.11C299.37 341.074 299.447 341.053 299.526 341.047C299.604 341.041 299.683 341.051 299.758 341.076C299.833 341.101 299.902 341.141 299.961 341.193C300.02 341.246 300.068 341.31 300.102 341.381L304.584 350.549C304.62 350.62 304.642 350.698 304.647 350.778C304.652 350.858 304.642 350.938 304.616 351.014C304.589 351.089 304.548 351.159 304.495 351.218C304.442 351.278 304.377 351.326 304.304 351.36C304.208 351.41 304.101 351.431 303.993 351.423C303.886 351.414 303.782 351.376 303.696 351.312Z" fill="#D4C5FF"/>
<path d="M295.928 347.593C295.849 347.533 295.783 347.457 295.735 347.371L293.059 341.883C293.017 341.811 292.99 341.731 292.981 341.648C292.971 341.565 292.979 341.481 293.003 341.401C293.028 341.321 293.068 341.247 293.123 341.183C293.177 341.119 293.244 341.068 293.319 341.031C293.394 340.995 293.476 340.974 293.56 340.97C293.643 340.967 293.726 340.98 293.804 341.011C293.882 341.041 293.953 341.087 294.013 341.145C294.072 341.204 294.119 341.274 294.15 341.352L296.826 346.83C296.896 346.974 296.906 347.141 296.854 347.293C296.801 347.445 296.691 347.57 296.546 347.641C296.449 347.691 296.339 347.713 296.23 347.705C296.121 347.696 296.016 347.657 295.928 347.593Z" fill="#D4C5FF"/>
<path d="M311.356 342.994C311.227 342.898 311.141 342.755 311.118 342.595C311.094 342.436 311.135 342.274 311.231 342.144L315.617 336.135C315.663 336.071 315.721 336.016 315.788 335.975C315.856 335.933 315.931 335.905 316.009 335.892C316.087 335.88 316.167 335.883 316.244 335.901C316.321 335.92 316.393 335.953 316.457 336C316.586 336.096 316.672 336.239 316.697 336.398C316.722 336.556 316.685 336.719 316.592 336.85L312.197 342.859C312.151 342.923 312.092 342.978 312.025 343.02C311.958 343.061 311.883 343.089 311.805 343.102C311.727 343.115 311.647 343.112 311.57 343.093C311.493 343.075 311.42 343.041 311.356 342.994Z" fill="#D4C5FF"/>
<path d="M302.904 342.309C302.777 342.21 302.696 342.065 302.676 341.906C302.656 341.746 302.699 341.586 302.797 341.459L307.502 335.372C307.548 335.306 307.607 335.25 307.676 335.207C307.745 335.165 307.821 335.137 307.902 335.126C307.982 335.115 308.063 335.121 308.141 335.144C308.218 335.166 308.29 335.205 308.352 335.257C308.478 335.356 308.56 335.501 308.58 335.66C308.6 335.819 308.556 335.98 308.458 336.107L303.754 342.193C303.706 342.257 303.646 342.311 303.577 342.352C303.509 342.393 303.432 342.419 303.353 342.43C303.274 342.441 303.193 342.436 303.116 342.415C303.039 342.394 302.967 342.358 302.904 342.309Z" fill="#D4C5FF"/>
<path d="M296.026 342.087C295.961 342.04 295.907 341.982 295.865 341.915C295.823 341.848 295.795 341.773 295.783 341.695C295.77 341.616 295.773 341.536 295.792 341.46C295.81 341.383 295.844 341.31 295.89 341.246L299.938 335.682C300.037 335.557 300.18 335.474 300.337 335.449C300.494 335.424 300.655 335.459 300.788 335.546C300.853 335.592 300.907 335.651 300.949 335.718C300.991 335.785 301.019 335.86 301.031 335.938C301.044 336.017 301.041 336.096 301.022 336.173C301.004 336.25 300.97 336.323 300.923 336.387L296.866 341.951C296.771 342.079 296.63 342.165 296.473 342.19C296.316 342.216 296.156 342.178 296.026 342.087Z" fill="#D4C5FF"/>
<path d="M268.154 337.025C276.066 338.068 291.175 343.111 306.188 331.721C321.2 320.331 327.441 287.736 324.04 277.699C321.654 270.685 281.186 272.588 266.569 286.664C251.953 300.739 250.697 327.122 268.154 337.025Z" fill="#D4C5FF"/>
<path opacity="0.5" d="M268.154 337.025C276.066 338.068 291.175 343.111 306.188 331.721C321.2 320.331 327.441 287.736 324.04 277.699C321.654 270.685 281.186 272.588 266.569 286.664C251.953 300.739 250.697 327.122 268.154 337.025Z" fill="#D4C5FF"/>
<path d="M264.589 331.527C264.502 331.442 264.44 331.335 264.409 331.218C264.379 331.1 264.381 330.977 264.415 330.86C271.593 304.159 301.966 282.615 316.949 278.046C317.117 277.998 317.297 278.017 317.451 278.1C317.604 278.183 317.719 278.324 317.771 278.49C317.819 278.656 317.8 278.833 317.719 278.985C317.638 279.137 317.5 279.251 317.336 279.302C302.594 283.794 272.733 304.97 265.681 331.199C265.659 331.282 265.622 331.361 265.57 331.43C265.517 331.498 265.452 331.556 265.377 331.599C265.303 331.642 265.22 331.67 265.134 331.681C265.049 331.692 264.962 331.685 264.879 331.662C264.772 331.645 264.671 331.598 264.589 331.527Z" fill="#D4C5FF"/>
<path d="M297.107 289.59C297.016 289.499 296.954 289.381 296.93 289.254C296.906 289.126 296.92 288.995 296.972 288.876C297.04 288.716 297.169 288.589 297.33 288.524C297.491 288.459 297.672 288.46 297.832 288.528C302.45 290.46 310.816 291.822 317.25 290.518C317.42 290.484 317.597 290.518 317.742 290.614C317.887 290.71 317.988 290.86 318.022 291.03C318.054 291.2 318.018 291.376 317.923 291.52C317.827 291.664 317.679 291.766 317.51 291.803C310.825 293.155 302.121 291.754 297.32 289.735C297.242 289.698 297.17 289.649 297.107 289.59Z" fill="#D4C5FF"/>
<path d="M291.378 293.745C291.291 293.683 291.221 293.6 291.175 293.503C288.789 288.673 288.161 284.703 289.146 280.742C289.19 280.575 289.297 280.431 289.445 280.343C289.594 280.254 289.771 280.227 289.939 280.268C290.022 280.289 290.101 280.325 290.17 280.376C290.239 280.427 290.297 280.492 290.341 280.565C290.385 280.639 290.414 280.721 290.426 280.806C290.439 280.891 290.434 280.977 290.412 281.061C289.514 284.703 290.103 288.354 292.344 292.924C292.418 293.08 292.429 293.26 292.373 293.424C292.317 293.588 292.199 293.724 292.045 293.803C291.938 293.852 291.821 293.872 291.704 293.862C291.587 293.852 291.475 293.812 291.378 293.745Z" fill="#D4C5FF"/>
<path d="M285.196 299.444C285.094 299.343 285.029 299.212 285.012 299.07C284.994 298.928 285.025 298.784 285.099 298.662C285.141 298.587 285.198 298.521 285.265 298.469C285.333 298.416 285.41 298.378 285.493 298.355C285.576 298.333 285.662 298.327 285.747 298.338C285.832 298.349 285.914 298.377 285.988 298.42C293.716 302.845 305.251 306.709 314.235 304.216C314.318 304.193 314.404 304.186 314.489 304.196C314.574 304.207 314.657 304.234 314.731 304.276C314.806 304.318 314.871 304.375 314.924 304.442C314.976 304.51 315.015 304.588 315.037 304.671C315.061 304.754 315.067 304.842 315.056 304.928C315.046 305.014 315.018 305.098 314.975 305.173C314.932 305.249 314.874 305.315 314.805 305.368C314.736 305.421 314.658 305.46 314.574 305.482C306.623 307.656 295.697 305.424 285.341 299.521C285.289 299.503 285.24 299.477 285.196 299.444Z" fill="#D4C5FF"/>
<path d="M278.037 306.864C277.953 306.805 277.886 306.725 277.844 306.632C274.366 299.811 272.589 293.802 272.26 287.745C272.252 287.573 272.313 287.404 272.428 287.275C272.544 287.147 272.706 287.069 272.878 287.059C273.052 287.051 273.222 287.111 273.352 287.227C273.482 287.342 273.562 287.504 273.574 287.678C273.893 293.542 275.622 299.377 279.003 306.033C279.082 306.188 279.097 306.368 279.044 306.534C278.992 306.7 278.877 306.839 278.723 306.921C278.614 306.975 278.493 306.998 278.372 306.988C278.251 306.978 278.135 306.935 278.037 306.864Z" fill="#D4C5FF"/>
<path d="M273.053 313.655C272.955 313.552 272.894 313.42 272.876 313.279C272.859 313.139 272.887 312.996 272.956 312.872C272.998 312.797 273.055 312.73 273.123 312.676C273.192 312.623 273.27 312.584 273.354 312.561C273.438 312.539 273.525 312.533 273.611 312.545C273.697 312.557 273.78 312.586 273.854 312.631C284.529 318.727 294.77 321.132 306.073 320.205C306.159 320.196 306.246 320.204 306.328 320.229C306.411 320.255 306.488 320.297 306.554 320.353C306.62 320.409 306.674 320.478 306.712 320.555C306.751 320.633 306.773 320.717 306.778 320.804C306.786 320.89 306.776 320.976 306.75 321.058C306.724 321.14 306.682 321.217 306.627 321.282C306.571 321.348 306.502 321.402 306.426 321.441C306.349 321.48 306.265 321.503 306.179 321.509C294.76 322.475 283.959 319.915 273.198 313.781L273.053 313.655Z" fill="#D4C5FF"/>
<g opacity="0.5">
<path d="M323.866 185.952C323.695 185.867 323.564 185.718 323.501 185.538C323.438 185.358 323.448 185.16 323.528 184.986L323.808 184.329C324.17 183.504 324.22 182.576 323.95 181.716C323.68 180.857 323.108 180.124 322.34 179.654L321.731 179.267C321.585 179.163 321.482 179.009 321.441 178.834C321.4 178.659 321.423 178.475 321.506 178.317C321.59 178.158 321.728 178.034 321.896 177.969C322.063 177.904 322.248 177.902 322.417 177.963L323.074 178.243C323.901 178.605 324.83 178.656 325.691 178.386C326.553 178.116 327.287 177.544 327.759 176.775L328.136 176.166C328.234 176.009 328.389 175.894 328.568 175.846C328.747 175.797 328.938 175.819 329.102 175.905C329.273 175.991 329.404 176.139 329.467 176.32C329.53 176.5 329.521 176.698 329.44 176.871L329.16 177.528C328.8 178.355 328.751 179.284 329.02 180.145C329.29 181.006 329.861 181.74 330.629 182.214L331.237 182.59C331.383 182.695 331.486 182.849 331.527 183.024C331.569 183.198 331.545 183.382 331.462 183.541C331.378 183.7 331.24 183.823 331.073 183.888C330.905 183.953 330.72 183.956 330.551 183.895L329.894 183.614C329.069 183.255 328.141 183.206 327.282 183.476C326.423 183.745 325.691 184.316 325.219 185.083L324.832 185.692C324.734 185.849 324.58 185.964 324.4 186.012C324.221 186.06 324.03 186.039 323.866 185.952ZM324.784 180.05C325.276 180.827 325.556 181.72 325.595 182.639C326.373 182.147 327.265 181.867 328.184 181.827C327.691 181.051 327.411 180.158 327.373 179.238C326.597 179.735 325.704 180.018 324.784 180.059V180.05Z" fill="#D4C5FF"/>
</g>
<path d="M35.2665 183.788C35.1684 183.797 35.0708 183.767 34.9936 183.706C34.9165 183.645 34.8655 183.557 34.8511 183.46L34.7834 183.054C34.707 182.581 34.4631 182.15 34.096 181.842C33.7289 181.533 33.2632 181.367 32.7837 181.373H32.3973C32.2971 181.373 32.2005 181.336 32.127 181.268C32.0535 181.199 32.0085 181.106 32.0012 181.006C31.9927 180.908 32.022 180.81 32.0831 180.733C32.1441 180.656 32.2323 180.605 32.3296 180.591L32.7064 180.523C33.1798 180.447 33.61 180.203 33.9185 179.836C34.2271 179.468 34.3935 179.003 34.3873 178.523V178.224C34.3869 178.125 34.4233 178.03 34.4894 177.957C34.5555 177.883 34.6466 177.837 34.7448 177.828C34.844 177.819 34.9428 177.848 35.0215 177.909C35.1003 177.97 35.1532 178.058 35.1699 178.156L35.2278 178.533C35.3168 178.997 35.5675 179.415 35.9353 179.712C36.3032 180.009 36.7645 180.167 37.2372 180.156H37.614C37.71 180.16 37.8012 180.199 37.8706 180.266C37.9399 180.332 37.9828 180.422 37.991 180.517C37.9993 180.613 37.9725 180.709 37.9156 180.786C37.8586 180.864 37.7755 180.918 37.6816 180.938L37.3049 180.996C36.8213 181.074 36.3831 181.326 36.0732 181.706C35.7634 182.085 35.6035 182.565 35.6239 183.054V183.431C35.6244 183.53 35.588 183.625 35.5219 183.698C35.4558 183.771 35.3647 183.817 35.2665 183.827V183.788ZM33.9913 180.89C34.4378 181.108 34.818 181.442 35.0926 181.856C35.3106 181.407 35.6439 181.023 36.0586 180.745C35.6067 180.531 35.2223 180.197 34.9477 179.779C34.7347 180.224 34.4039 180.601 33.9913 180.871V180.89Z" fill="#D4C5FF"/>
<g opacity="0.5">
<path d="M60.4989 237.781C60.3474 237.795 60.1962 237.751 60.076 237.658C59.9558 237.564 59.8756 237.429 59.8517 237.278L59.7551 236.709C59.641 235.988 59.2701 235.333 58.7108 234.864C58.1515 234.395 57.4416 234.144 56.712 234.158H56.1324C55.9735 234.171 55.8161 234.12 55.6947 234.017C55.5733 233.914 55.4979 233.766 55.4851 233.607C55.4723 233.449 55.5231 233.291 55.6264 233.17C55.7296 233.048 55.8769 232.973 56.0358 232.96L56.6057 232.873C57.3256 232.757 57.9796 232.386 58.448 231.827C58.9163 231.268 59.1677 230.559 59.1561 229.83V229.251C59.1554 229.099 59.2115 228.952 59.3134 228.839C59.4153 228.727 59.5556 228.656 59.7068 228.642C59.8567 228.63 60.0055 228.676 60.1236 228.769C60.2418 228.862 60.3206 228.996 60.3444 229.144L60.441 229.714C60.5441 230.443 60.9087 231.109 61.4668 231.589C62.0249 232.069 62.7384 232.33 63.4744 232.323H64.054C64.2055 232.32 64.3523 232.375 64.4638 232.478C64.5753 232.581 64.6431 232.722 64.653 232.873C64.6672 233.022 64.6242 233.171 64.5327 233.289C64.4412 233.408 64.308 233.487 64.1603 233.511L63.5807 233.607C62.8625 233.723 62.2098 234.093 61.7416 234.65C61.2735 235.207 61.021 235.913 61.0303 236.641V237.221C61.0334 237.371 60.9794 237.518 60.8791 237.631C60.7788 237.744 60.6396 237.815 60.4893 237.829L60.4989 237.781ZM58.5668 233.356C59.2447 233.665 59.8258 234.153 60.2478 234.767C60.5631 234.093 61.0494 233.513 61.6582 233.086C60.9844 232.77 60.4048 232.284 59.9773 231.675C59.6597 232.354 59.166 232.934 58.5475 233.356H58.5668Z" fill="#D4C5FF"/>
</g>
<g opacity="0.5">
<path d="M58.1325 202.772C57.6476 202.573 57.2325 202.236 56.9397 201.801C56.6469 201.367 56.4897 200.855 56.4878 200.331C56.486 199.807 56.6396 199.295 56.9293 198.858C57.219 198.422 57.6318 198.081 58.1153 197.879C58.5987 197.677 59.1312 197.623 59.6453 197.725C60.1594 197.826 60.6319 198.077 61.003 198.447C61.3742 198.816 61.6272 199.288 61.7302 199.802C61.8331 200.315 61.7813 200.848 61.5813 201.332C61.45 201.654 61.2564 201.946 61.0118 202.192C60.7672 202.439 60.4763 202.635 60.1559 202.768C59.8354 202.902 59.4918 202.971 59.1445 202.972C58.7973 202.972 58.4534 202.904 58.1325 202.772ZM59.8328 198.647C59.5018 198.507 59.1367 198.468 58.7837 198.535C58.4307 198.603 58.1056 198.773 57.8497 199.026C57.5937 199.278 57.4184 199.6 57.3458 199.952C57.2733 200.304 57.3068 200.67 57.4422 201.003C57.5775 201.336 57.8086 201.621 58.1061 201.823C58.4037 202.024 58.7544 202.133 59.1138 202.135C59.4732 202.137 59.8251 202.033 60.1251 201.835C60.425 201.637 60.6595 201.354 60.7988 201.023C60.98 200.579 60.9804 200.082 60.7999 199.638C60.6194 199.194 60.2722 198.838 59.8328 198.647Z" fill="#D4C5FF"/>
</g>
<g opacity="0.5">
<path d="M308.923 227.01C308.621 226.581 308.454 226.073 308.441 225.549C308.429 225.025 308.572 224.51 308.853 224.068C309.134 223.625 309.54 223.276 310.019 223.065C310.499 222.854 311.03 222.789 311.546 222.88C312.062 222.971 312.539 223.212 312.918 223.575C313.296 223.937 313.559 224.403 313.672 224.915C313.785 225.426 313.744 225.96 313.554 226.448C313.364 226.936 313.033 227.357 312.603 227.657C312.319 227.857 311.999 227.999 311.66 228.074C311.321 228.15 310.97 228.158 310.628 228.098C310.286 228.038 309.96 227.911 309.667 227.724C309.374 227.537 309.121 227.294 308.923 227.01ZM312.574 224.45C312.368 224.156 312.079 223.93 311.744 223.8C311.409 223.67 311.043 223.642 310.693 223.72C310.342 223.799 310.023 223.979 309.775 224.238C309.527 224.498 309.361 224.825 309.299 225.179C309.237 225.533 309.281 225.897 309.426 226.226C309.571 226.554 309.81 226.833 310.113 227.025C310.416 227.218 310.769 227.317 311.128 227.309C311.487 227.301 311.836 227.187 312.13 226.981C312.325 226.844 312.492 226.67 312.62 226.468C312.748 226.267 312.835 226.042 312.877 225.807C312.918 225.572 312.912 225.331 312.861 225.098C312.809 224.865 312.711 224.645 312.574 224.45Z" fill="#D4C5FF"/>
</g>
<g opacity="0.5">
<path d="M346.636 173.568C346.338 173.14 346.173 172.634 346.162 172.113C346.151 171.592 346.295 171.079 346.576 170.64C346.856 170.201 347.26 169.854 347.737 169.644C348.214 169.434 348.743 169.37 349.256 169.461C349.769 169.551 350.244 169.791 350.621 170.151C350.998 170.511 351.26 170.975 351.373 171.484C351.487 171.992 351.447 172.523 351.259 173.009C351.071 173.495 350.743 173.915 350.317 174.215C350.033 174.415 349.713 174.557 349.374 174.632C349.035 174.708 348.684 174.716 348.342 174.656C348 174.596 347.674 174.469 347.381 174.282C347.088 174.095 346.835 173.852 346.636 173.568ZM350.288 171.008C350.081 170.712 349.79 170.484 349.454 170.353C349.117 170.222 348.749 170.195 348.396 170.273C348.043 170.352 347.722 170.533 347.472 170.794C347.223 171.055 347.056 171.385 346.994 171.741C346.932 172.097 346.977 172.463 347.123 172.793C347.269 173.124 347.51 173.404 347.815 173.597C348.12 173.791 348.475 173.889 348.837 173.881C349.198 173.872 349.548 173.756 349.844 173.548C350.239 173.27 350.508 172.846 350.591 172.37C350.675 171.894 350.566 171.404 350.288 171.008Z" fill="#D4C5FF"/>
</g>
<path d="M333.759 203.883C333.676 203.838 333.614 203.762 333.585 203.672C333.556 203.582 333.563 203.485 333.604 203.4L334.155 202.347C334.2 202.264 334.276 202.202 334.366 202.173C334.456 202.144 334.553 202.151 334.638 202.192C334.721 202.237 334.783 202.313 334.81 202.404C334.837 202.494 334.828 202.592 334.783 202.675L334.232 203.728C334.212 203.77 334.183 203.807 334.148 203.837C334.113 203.868 334.072 203.891 334.028 203.905C333.984 203.92 333.938 203.925 333.891 203.921C333.845 203.917 333.8 203.904 333.759 203.883Z" fill="#D4C5FF"/>
<path d="M332.793 204.182L331.74 203.622C331.698 203.602 331.661 203.573 331.631 203.538C331.601 203.502 331.578 203.461 331.564 203.417C331.551 203.372 331.546 203.326 331.552 203.28C331.557 203.233 331.572 203.189 331.595 203.149C331.64 203.066 331.716 203.003 331.806 202.974C331.895 202.946 331.993 202.953 332.078 202.994L333.131 203.545C333.214 203.59 333.276 203.666 333.303 203.756C333.33 203.847 333.321 203.944 333.276 204.028C333.231 204.111 333.155 204.173 333.065 204.202C332.975 204.231 332.878 204.224 332.793 204.182Z" fill="#D4C5FF"/>
<path d="M332.513 206.24C332.431 206.194 332.368 206.119 332.339 206.029C332.311 205.939 332.318 205.841 332.359 205.757L332.919 204.704C332.94 204.662 332.968 204.625 333.004 204.594C333.039 204.564 333.08 204.542 333.124 204.528C333.169 204.514 333.216 204.51 333.262 204.515C333.308 204.521 333.352 204.535 333.393 204.559C333.476 204.604 333.538 204.679 333.567 204.769C333.595 204.859 333.588 204.957 333.547 205.042L332.996 206.095C332.951 206.178 332.875 206.24 332.785 206.267C332.694 206.294 332.597 206.284 332.513 206.24Z" fill="#D4C5FF"/>
<path d="M335.17 205.418L334.117 204.868C334.075 204.846 334.038 204.817 334.007 204.781C333.977 204.744 333.954 204.702 333.941 204.657C333.927 204.612 333.923 204.565 333.929 204.518C333.934 204.471 333.949 204.426 333.972 204.385C333.992 204.343 334.021 204.306 334.056 204.276C334.092 204.245 334.133 204.223 334.177 204.209C334.222 204.196 334.268 204.191 334.315 204.197C334.361 204.202 334.405 204.216 334.446 204.24L335.499 204.79C335.581 204.836 335.644 204.911 335.673 205.001C335.701 205.091 335.694 205.189 335.653 205.273C335.608 205.357 335.532 205.418 335.442 205.446C335.351 205.473 335.253 205.463 335.17 205.418Z" fill="#D4C5FF"/>
<path d="M79.821 210.761C79.7293 210.766 79.6389 210.736 79.5688 210.677C79.4986 210.617 79.454 210.533 79.4442 210.442L79.3476 209.273C79.34 209.181 79.3692 209.089 79.429 209.019C79.4888 208.948 79.5742 208.904 79.6664 208.896C79.7587 208.889 79.8502 208.918 79.9208 208.978C79.9915 209.037 80.0355 209.123 80.0432 209.215L80.1398 210.384C80.1438 210.43 80.1387 210.476 80.1248 210.519C80.1109 210.563 80.0885 210.604 80.0588 210.639C80.0292 210.674 79.9929 210.703 79.9521 210.723C79.9113 210.744 79.8667 210.757 79.821 210.761Z" fill="#D4C5FF"/>
<path d="M79.1839 211.514L78.0246 211.61C77.9789 211.615 77.9328 211.61 77.8889 211.597C77.845 211.583 77.8042 211.562 77.7688 211.532C77.7333 211.503 77.704 211.467 77.6824 211.427C77.6608 211.386 77.6474 211.342 77.643 211.296C77.6386 211.251 77.6432 211.205 77.6565 211.161C77.6699 211.117 77.6918 211.076 77.7209 211.041C77.7501 211.005 77.786 210.976 77.8264 210.954C77.8669 210.933 77.9113 210.919 77.957 210.915L79.1259 210.818C79.1718 210.813 79.2184 210.817 79.2627 210.83C79.307 210.844 79.3481 210.866 79.3834 210.896C79.4187 210.926 79.4475 210.963 79.468 211.004C79.4885 211.046 79.5003 211.091 79.5027 211.137C79.5066 211.183 79.5015 211.229 79.4876 211.272C79.4737 211.316 79.4513 211.357 79.4217 211.392C79.392 211.427 79.3558 211.456 79.315 211.476C79.2741 211.497 79.2296 211.51 79.1839 211.514Z" fill="#D4C5FF"/>
<path d="M80.0526 213.388C79.9598 213.394 79.8683 213.364 79.7966 213.305C79.7248 213.246 79.6782 213.162 79.6662 213.069L79.5696 211.9C79.5619 211.808 79.5911 211.717 79.6509 211.646C79.7107 211.575 79.7961 211.531 79.8884 211.524C79.9806 211.516 80.0721 211.545 80.1428 211.605C80.2134 211.665 80.2574 211.75 80.2651 211.842L80.3714 213.002C80.3771 213.095 80.3473 213.186 80.2881 213.258C80.229 213.329 80.1448 213.376 80.0526 213.388Z" fill="#D4C5FF"/>
<path d="M81.8303 211.292L80.6711 211.389C80.6254 211.393 80.5793 211.388 80.5354 211.375C80.4915 211.362 80.4507 211.34 80.4153 211.311C80.3798 211.281 80.3505 211.246 80.3289 211.205C80.3073 211.165 80.2939 211.12 80.2895 211.075C80.285 211.029 80.2896 210.983 80.303 210.939C80.3164 210.895 80.3383 210.854 80.3674 210.819C80.3966 210.783 80.4324 210.754 80.4729 210.732C80.5134 210.711 80.5578 210.697 80.6035 210.693L81.7724 210.587C81.8181 210.583 81.8641 210.588 81.9078 210.602C81.9516 210.616 81.9921 210.638 82.0271 210.668C82.0621 210.697 82.0909 210.734 82.1119 210.774C82.1328 210.815 82.1455 210.86 82.1491 210.906C82.1573 210.999 82.1284 211.092 82.0688 211.164C82.0091 211.236 81.9235 211.282 81.8303 211.292Z" fill="#D4C5FF"/>
<path d="M325.374 156.458C325.286 156.411 325.219 156.331 325.188 156.235C325.158 156.14 325.165 156.036 325.21 155.946L325.789 154.845C325.836 154.758 325.914 154.692 326.009 154.663C326.103 154.634 326.205 154.644 326.292 154.69C326.379 154.736 326.444 154.815 326.473 154.909C326.502 155.004 326.492 155.105 326.446 155.193L325.876 156.294C325.829 156.38 325.751 156.445 325.658 156.475C325.564 156.506 325.463 156.5 325.374 156.458Z" fill="#D4C5FF"/>
<path d="M324.369 156.767L323.267 156.188C323.224 156.165 323.186 156.135 323.155 156.098C323.123 156.061 323.099 156.018 323.085 155.972C323.07 155.926 323.064 155.877 323.068 155.829C323.072 155.78 323.086 155.733 323.108 155.69C323.13 155.647 323.161 155.609 323.198 155.577C323.235 155.546 323.278 155.522 323.324 155.507C323.37 155.493 323.419 155.487 323.467 155.491C323.515 155.495 323.562 155.508 323.605 155.531L324.707 156.11C324.75 156.133 324.788 156.163 324.82 156.2C324.851 156.237 324.875 156.28 324.89 156.326C324.904 156.372 324.91 156.421 324.906 156.469C324.902 156.518 324.888 156.565 324.866 156.608C324.844 156.651 324.814 156.689 324.777 156.721C324.739 156.752 324.697 156.776 324.65 156.791C324.604 156.805 324.556 156.811 324.507 156.807C324.459 156.803 324.412 156.789 324.369 156.767Z" fill="#D4C5FF"/>
<path d="M324.07 158.903C324.026 158.881 323.988 158.85 323.956 158.812C323.925 158.775 323.901 158.731 323.887 158.684C323.872 158.638 323.868 158.588 323.872 158.54C323.877 158.491 323.892 158.444 323.915 158.401L324.485 157.299C324.537 157.224 324.614 157.169 324.703 157.146C324.792 157.123 324.886 157.134 324.968 157.175C325.049 157.216 325.113 157.286 325.147 157.371C325.181 157.457 325.183 157.551 325.152 157.637L324.572 158.739C324.527 158.827 324.449 158.893 324.355 158.924C324.261 158.954 324.159 158.947 324.07 158.903Z" fill="#D4C5FF"/>
<path d="M326.852 158.072L325.751 157.493C325.708 157.47 325.67 157.439 325.639 157.401C325.607 157.363 325.584 157.32 325.57 157.273C325.555 157.227 325.55 157.178 325.555 157.129C325.559 157.081 325.574 157.033 325.596 156.99C325.619 156.947 325.65 156.909 325.688 156.878C325.726 156.847 325.769 156.823 325.816 156.809C325.862 156.795 325.911 156.79 325.96 156.794C326.008 156.799 326.056 156.813 326.099 156.836L327.2 157.406C327.282 157.455 327.341 157.534 327.367 157.626C327.393 157.718 327.382 157.817 327.338 157.902C327.294 157.986 327.219 158.051 327.129 158.083C327.039 158.114 326.94 158.111 326.852 158.072Z" fill="#D4C5FF"/>
<path d="M58.5864 159.684C58.3998 159.698 58.2154 159.638 58.0727 159.517C57.93 159.396 57.8405 159.224 57.8232 159.037L57.63 156.69C57.6139 156.594 57.618 156.495 57.6419 156.4C57.6658 156.306 57.7091 156.217 57.769 156.14C57.8289 156.063 57.9041 156 57.9899 155.953C58.0757 155.907 58.1702 155.879 58.2674 155.871C58.3646 155.863 58.4625 155.875 58.5547 155.906C58.647 155.938 58.7316 155.989 58.8034 156.055C58.8751 156.121 58.9324 156.201 58.9715 156.29C59.0107 156.38 59.0309 156.476 59.0308 156.574L59.2337 158.921C59.2471 159.108 59.1869 159.292 59.0658 159.435C58.9448 159.578 58.7727 159.667 58.5864 159.684Z" fill="#D4C5FF"/>
<path d="M57.3117 161.212L54.9642 161.415C54.8715 161.423 54.7782 161.412 54.6896 161.384C54.601 161.356 54.5189 161.31 54.4479 161.25C54.377 161.19 54.3186 161.116 54.2763 161.034C54.2339 160.951 54.2083 160.86 54.201 160.768C54.1917 160.676 54.2009 160.582 54.2281 160.494C54.2553 160.405 54.2999 160.323 54.3593 160.252C54.4187 160.181 54.4917 160.122 54.574 160.08C54.6563 160.037 54.7463 160.012 54.8386 160.004L57.1861 159.802C57.3732 159.785 57.5592 159.843 57.7032 159.964C57.8472 160.084 57.9375 160.257 57.9542 160.444C57.9708 160.631 57.9125 160.817 57.792 160.961C57.6715 161.105 57.4988 161.195 57.3117 161.212Z" fill="#D4C5FF"/>
<path d="M59.0501 164.979C58.9575 164.987 58.8641 164.976 58.7755 164.948C58.6869 164.92 58.6048 164.874 58.5338 164.814C58.4629 164.754 58.4046 164.68 58.3622 164.597C58.3198 164.515 58.2943 164.424 58.2869 164.332L58.0841 161.984C58.0748 161.892 58.084 161.799 58.1112 161.71C58.1384 161.622 58.1829 161.539 58.2423 161.468C58.3017 161.397 58.3747 161.339 58.457 161.296C58.5394 161.254 58.6293 161.228 58.7217 161.221C58.8143 161.213 58.9077 161.223 58.9963 161.252C59.0849 161.28 59.167 161.325 59.238 161.386C59.3089 161.446 59.3672 161.519 59.4096 161.602C59.452 161.685 59.4776 161.775 59.4849 161.868L59.6877 164.216C59.7038 164.401 59.6458 164.586 59.5264 164.729C59.4069 164.872 59.2357 164.962 59.0501 164.979Z" fill="#D4C5FF"/>
<path d="M62.6055 160.758L60.2579 160.951C60.1621 160.967 60.0641 160.963 59.9699 160.939C59.8757 160.915 59.7875 160.873 59.7107 160.813C59.6338 160.754 59.5701 160.679 59.5235 160.594C59.4768 160.509 59.4483 160.415 59.4396 160.318C59.4309 160.222 59.4423 160.124 59.4731 160.032C59.5038 159.94 59.5533 159.855 59.6183 159.783C59.6833 159.711 59.7626 159.653 59.851 159.613C59.9395 159.573 60.0352 159.551 60.1323 159.55L62.4799 159.347C62.572 159.338 62.6651 159.347 62.7537 159.374C62.8422 159.402 62.9245 159.446 62.9956 159.506C63.0667 159.565 63.1252 159.638 63.1677 159.72C63.2102 159.803 63.2358 159.892 63.2431 159.985C63.2524 160.078 63.2432 160.171 63.2162 160.26C63.1891 160.349 63.1446 160.432 63.0854 160.504C63.0261 160.576 62.9531 160.635 62.8708 160.679C62.7884 160.722 62.6982 160.749 62.6055 160.758Z" fill="#D4C5FF"/>
<path d="M265.556 323.914H218.792V324.136H265.556V323.914Z" fill="#EBEBEB"/>
<path d="M300.862 328.619H286.317V328.841H300.862V328.619Z" fill="#EBEBEB"/>
<path d="M144.07 325.719H114.137V325.941H144.07V325.719Z" fill="#EBEBEB"/>
<path d="M78.0525 40.6635C77.1627 40.2564 76.2002 40.0319 75.2221 40.0032C74.244 39.9744 73.27 40.1421 72.3578 40.4962C71.4456 40.8503 70.6136 41.3837 69.9111 42.0648C69.2085 42.746 68.6496 43.561 68.2675 44.4619C67.3716 44.0766 66.4079 43.874 65.4327 43.8659C64.4576 43.8578 63.4906 44.0443 62.5884 44.4146C61.6863 44.7849 60.8671 45.3315 60.1788 46.0224C59.4906 46.7133 58.9471 47.5346 58.5803 48.4381C57.8848 50.2606 57.9268 52.2824 58.6974 54.0744C59.468 55.8664 60.9066 57.2876 62.7078 58.0364L72.9999 62.4841C73.788 62.8198 74.6771 62.8295 75.4724 62.5111C76.2677 62.1926 76.9044 61.572 77.243 60.7851L81.6908 50.493C82.4882 48.704 82.554 46.674 81.8741 44.8371C81.1942 43.0002 79.8225 41.5022 78.0525 40.6635Z" fill="#EBEBEB" fill-opacity="0.5"/>
<path d="M321.481 88.3891C321.221 87.5839 320.804 86.8384 320.254 86.1959C319.703 85.5535 319.031 85.0269 318.275 84.647C317.519 84.267 316.695 84.0411 315.851 83.9826C315.007 83.9241 314.16 84.0341 313.359 84.3061C313.085 83.5053 312.654 82.7671 312.091 82.1348C311.528 81.5025 310.845 80.9887 310.081 80.6234C309.318 80.2582 308.489 80.0488 307.644 80.0076C306.798 79.9663 305.953 80.094 305.157 80.3832C303.577 80.9943 302.298 82.198 301.592 83.7381C300.886 85.2783 300.808 87.0332 301.377 88.6293L304.517 97.8272C304.754 98.5339 305.262 99.1178 305.929 99.4512C306.596 99.7846 307.367 99.8404 308.075 99.6063L317.273 96.4573C318.89 95.9301 320.237 94.7901 321.023 93.2818C321.81 91.7735 321.974 90.0171 321.481 88.3891Z" fill="#F0F0F0" fill-opacity="0.3"/>
<g filter="url(#filter0_f_416_696)">
<path d="M186.475 356.08C281.73 356.08 358.949 351.571 358.949 346.01C358.949 340.449 281.73 335.94 186.475 335.94C91.2195 335.94 14 340.449 14 346.01C14 351.571 91.2195 356.08 186.475 356.08Z" fill="#0F0F0F" fill-opacity="0.15"/>
</g>
<path d="M217.743 158.195C218.356 160.063 219.148 162.189 219.984 164.288C220.82 166.388 221.763 168.54 222.706 170.657C224.61 174.909 226.736 179.081 228.933 183.111C230.054 185.104 231.219 187.043 232.429 188.884C233.639 190.726 234.857 192.496 236.121 194.088C237.256 195.538 238.499 196.899 239.839 198.162C240.628 198.904 241.489 199.566 242.41 200.137L240.293 199.728C239.437 199.667 238.577 199.767 237.757 200.021C237.156 200.195 236.587 200.469 236.076 200.831C235.347 201.382 235.373 201.56 235.489 201.516C236.215 200.854 236.818 200.068 237.268 199.194C237.944 197.993 238.647 196.588 239.314 195.093C239.981 193.599 240.586 191.998 241.209 190.37C241.832 188.742 242.419 187.07 242.988 185.37C243.557 183.671 244.153 181.946 244.696 180.211L248.014 169.723L248.067 169.554C248.489 168.154 249.391 166.947 250.614 166.145C251.837 165.343 253.304 164.997 254.756 165.167C256.209 165.338 257.555 166.015 258.559 167.079C259.562 168.143 260.159 169.526 260.245 170.986C260.508 174.948 260.559 178.921 260.396 182.889C260.307 184.863 260.201 186.847 260.023 188.84C259.845 190.832 259.614 192.843 259.329 194.871C259.044 196.899 258.653 198.936 258.181 201.035C257.709 203.241 257.091 205.414 256.331 207.538C255.408 210.197 254.114 212.713 252.488 215.01C251.213 216.794 249.621 218.328 247.792 219.538C246.48 220.399 245.047 221.059 243.539 221.495C241.806 221.985 239.999 222.166 238.202 222.029C237.63 221.993 237.064 221.898 236.512 221.744L236.085 221.62C232.217 220.503 228.595 218.665 225.41 216.202C222.841 214.231 220.459 212.028 218.294 209.62C216.299 207.433 214.417 205.147 212.654 202.77C210.946 200.448 209.381 198.091 207.886 195.725C206.392 193.359 205.004 190.957 203.706 188.528C202.407 186.1 201.135 183.645 199.987 181.136C198.84 178.628 197.719 176.11 196.723 173.486C195.654 170.77 194.727 167.999 193.947 165.187C193.305 162.136 193.83 158.956 195.418 156.274C197.006 153.592 199.543 151.603 202.526 150.7C205.51 149.797 208.723 150.046 211.532 151.398C214.341 152.749 216.541 155.105 217.698 157.999L217.743 158.195Z" fill="#FFB573"/>
<path opacity="0.1" d="M217.743 158.195C218.356 160.063 219.148 162.189 219.984 164.288C220.82 166.388 221.763 168.54 222.706 170.657C224.61 174.909 226.736 179.081 228.933 183.111C230.054 185.104 231.219 187.043 232.429 188.884C233.639 190.726 234.857 192.496 236.121 194.088C237.256 195.538 238.499 196.899 239.839 198.162C240.628 198.904 241.489 199.566 242.41 200.137L240.293 199.728C239.437 199.667 238.577 199.767 237.757 200.021C237.156 200.195 236.587 200.469 236.076 200.831C235.347 201.382 235.373 201.56 235.489 201.516C236.215 200.854 236.818 200.068 237.268 199.194C237.944 197.993 238.647 196.588 239.314 195.093C239.981 193.599 240.586 191.998 241.209 190.37C241.832 188.742 242.419 187.07 242.988 185.37C243.557 183.671 244.153 181.946 244.696 180.211L248.014 169.723L248.067 169.554C248.489 168.154 249.391 166.947 250.614 166.145C251.837 165.343 253.304 164.997 254.756 165.167C256.209 165.338 257.555 166.015 258.559 167.079C259.562 168.143 260.159 169.526 260.245 170.986C260.508 174.948 260.559 178.921 260.396 182.889C260.307 184.863 260.201 186.847 260.023 188.84C259.845 190.832 259.614 192.843 259.329 194.871C259.044 196.899 258.653 198.936 258.181 201.035C257.709 203.241 257.091 205.414 256.331 207.538C255.408 210.197 254.114 212.713 252.488 215.01C251.213 216.794 249.621 218.328 247.792 219.538C246.48 220.399 245.047 221.059 243.539 221.495C241.806 221.985 239.999 222.166 238.202 222.029C237.63 221.993 237.064 221.898 236.512 221.744L236.085 221.62C232.217 220.503 228.595 218.665 225.41 216.202C222.841 214.231 220.459 212.028 218.294 209.62C216.299 207.433 214.417 205.147 212.654 202.77C210.946 200.448 209.381 198.091 207.886 195.725C206.392 193.359 205.004 190.957 203.706 188.528C202.407 186.1 201.135 183.645 199.987 181.136C198.84 178.628 197.719 176.11 196.723 173.486C195.654 170.77 194.727 167.999 193.947 165.187C193.305 162.136 193.83 158.956 195.418 156.274C197.006 153.592 199.543 151.603 202.526 150.7C205.51 149.797 208.723 150.046 211.532 151.398C214.341 152.749 216.541 155.105 217.698 157.999L217.743 158.195Z" fill="black"/>
<path d="M260.921 150.448L255.273 148.242C254.661 148.003 254.008 147.888 253.352 147.905C252.696 147.922 252.05 148.07 251.451 148.34C250.853 148.611 250.315 148.998 249.868 149.479C249.422 149.96 249.075 150.525 248.85 151.142L245.772 159.592L246.884 173.772L254.988 176.858C261.918 176.031 262.469 163.07 262.469 163.07L263.955 156.105C264.207 154.956 264.039 153.754 263.483 152.716C262.927 151.679 262.018 150.874 260.921 150.448Z" fill="#FFB573"/>
<path opacity="0.1" d="M260.921 150.448L255.273 148.242C254.661 148.003 254.008 147.888 253.352 147.905C252.696 147.922 252.05 148.07 251.451 148.34C250.853 148.611 250.315 148.998 249.868 149.479C249.422 149.96 249.075 150.525 248.85 151.142L245.772 159.592L246.884 173.772L254.988 176.858C261.918 176.031 262.469 163.07 262.469 163.07L263.955 156.105C264.207 154.956 264.039 153.754 263.483 152.716C262.927 151.679 262.018 150.874 260.921 150.448Z" fill="black"/>
<path d="M192.621 157.243C199.24 143.144 218.721 143.064 234.982 175.034C230.018 191.25 207.957 203.651 207.957 203.651C207.957 203.651 184.695 174.189 192.621 157.243Z" fill="#5C0EBC"/>
<path d="M192.621 157.243C199.24 143.144 218.721 143.064 234.982 175.034C230.018 191.25 207.957 203.651 207.957 203.651C207.957 203.651 184.695 174.189 192.621 157.243Z" fill="#E9D7FF"/>
<path d="M291.273 319.71C289.138 301.857 221.995 267.342 221.995 267.342L166.051 264.674C154.238 295.159 163.525 308.715 176.326 312.861C167.114 314.375 158.047 316.667 149.221 319.71C141.856 322.245 138.778 331.319 143.581 337.501C144.891 339.27 146.739 340.569 148.847 341.202C148.847 341.202 297.162 368.991 291.273 319.71Z" fill="#263238"/>
<path opacity="0.4" d="M291.273 319.71C289.138 301.857 221.995 267.342 221.995 267.342L166.051 264.674C154.238 295.159 163.525 308.715 176.326 312.861C167.114 314.375 158.047 316.667 149.221 319.71C141.856 322.245 138.778 331.319 143.581 337.501C144.891 339.27 146.739 340.569 148.847 341.202C148.847 341.202 297.162 368.991 291.273 319.71Z" fill="black"/>
<path d="M123.317 338.969L129.42 325.937C129.626 325.701 129.737 325.396 129.728 325.083C129.72 324.77 129.594 324.471 129.375 324.247L119.999 314.657C119.159 314.014 118.198 313.546 117.174 313.28C116.149 313.015 115.082 312.957 114.035 313.11C112.988 313.263 111.982 313.625 111.077 314.173C110.171 314.722 109.385 315.446 108.764 316.303C105.873 320.244 104.317 324.425 99.6377 328.009C92.2011 333.729 94.7541 331.425 84.0172 333.872C77.5324 335.357 77.8793 342.198 80.7971 342.162C94.0513 341.993 106.034 342.1 119.386 340.383C120.797 340.261 122.152 339.774 123.317 338.969Z" fill="white" fill-opacity="0.5"/>
<path d="M266.926 323.401C264.782 305.548 188.485 271.14 188.485 271.14L136.66 264.638C124.847 295.122 134.134 308.679 146.935 312.825C137.723 314.339 128.656 316.631 119.83 319.674C112.465 322.209 112.376 329.459 113.719 336.042C114.493 339.804 117.428 340.569 119.456 341.121C119.43 341.121 272.815 372.682 266.926 323.401Z" fill="#263238"/>
<path opacity="0.1" d="M179.527 334.574C161.638 334.526 143.77 333.31 126.039 330.936C125.991 330.929 125.944 330.913 125.902 330.889C125.861 330.864 125.824 330.831 125.795 330.792C125.766 330.753 125.745 330.709 125.734 330.662C125.722 330.615 125.72 330.566 125.727 330.518C125.734 330.47 125.75 330.423 125.775 330.382C125.799 330.34 125.832 330.303 125.871 330.274C125.91 330.245 125.954 330.224 126.001 330.213C126.048 330.201 126.097 330.199 126.145 330.206C126.804 330.304 191.678 339.769 233.238 327.76C213.072 324.691 143.919 305.335 146.134 284.279C146.147 284.182 146.197 284.094 146.273 284.033C146.349 283.972 146.445 283.942 146.543 283.95C146.64 283.961 146.73 284.01 146.791 284.087C146.853 284.164 146.882 284.261 146.872 284.359C145.689 295.55 165.899 305.957 183.059 312.709C203.714 320.84 226.282 326.195 235.026 327.262C235.108 327.276 235.182 327.316 235.238 327.377C235.295 327.438 235.329 327.516 235.336 327.598C235.343 327.681 235.323 327.763 235.278 327.833C235.233 327.902 235.166 327.955 235.088 327.983C218.614 333.053 198.217 334.574 179.527 334.574Z" fill="white" fill-opacity="0.5"/>
<path d="M209.826 148.729C193.432 144.744 184.794 143.677 174.084 143.205C168.983 142.982 163.893 143.864 159.164 145.79C154.435 147.716 150.178 150.641 146.684 154.364C143.189 158.087 140.54 162.521 138.918 167.363C137.295 172.205 136.738 177.339 137.283 182.416C142.042 227.855 135.629 256 134.882 266.141C165.678 286.351 214.594 278.096 222.831 269.823C231.922 232.507 228.934 191.303 227.448 173.263C226.647 163.505 220.029 151.211 209.826 148.729Z" fill="#5C0EBC"/>
<path d="M209.826 148.729C193.432 144.744 184.794 143.677 174.084 143.205C168.983 142.982 163.893 143.864 159.164 145.79C154.435 147.716 150.178 150.641 146.684 154.364C143.189 158.087 140.54 162.521 138.918 167.363C137.295 172.205 136.738 177.339 137.283 182.416C142.042 227.855 135.629 256 134.882 266.141C165.678 286.351 214.594 278.096 222.831 269.823C231.922 232.507 228.934 191.303 227.448 173.263C226.647 163.505 220.029 151.211 209.826 148.729Z" fill="#E9D7FF"/>
<path opacity="0.3" d="M204.328 272.271H204.266C204.218 272.267 204.171 272.252 204.128 272.229C204.085 272.206 204.047 272.174 204.017 272.136C203.987 272.097 203.965 272.053 203.953 272.006C203.941 271.959 203.938 271.91 203.946 271.862C207.949 237.463 210.173 179.927 203.697 165.881C203.658 165.791 203.655 165.69 203.69 165.598C203.725 165.507 203.795 165.432 203.884 165.392C203.973 165.352 204.075 165.35 204.167 165.385C204.258 165.42 204.332 165.489 204.373 165.578C211.534 181.119 208.109 242.524 204.675 271.951C204.665 272.036 204.624 272.116 204.561 272.174C204.497 272.233 204.415 272.267 204.328 272.271Z" fill="#263238"/>
<path d="M174.474 117.178C175.364 132.941 173.38 139.069 170.712 146.675C172.34 152.786 187.48 159.894 201.143 161.673C206.062 156.469 205.333 151.31 204.07 148.988C200.085 147.44 196.313 142.619 199.231 135.467L174.474 117.178Z" fill="#FFB573"/>
<path opacity="0.2" d="M191.306 128.946L186.066 126.82C185.957 128.922 186.337 131.02 187.178 132.949C188.655 136.098 194.375 139.274 198.235 139.63C198.343 138.203 198.682 136.802 199.24 135.484L191.306 128.946Z" fill="black"/>
<path d="M203.456 77.4053C215.554 83.4453 216.462 89.8056 212.129 96.4238C197.149 88.3556 203.456 77.4053 203.456 77.4053Z" fill="#263238"/>
<path d="M169.2 104.439C174.6 119.161 177.019 128.066 186.893 133.43C201.74 141.507 218.188 128.929 217.28 112.846C216.471 98.3638 207.771 76.7211 191.323 75.2711C175.107 73.8656 163.801 89.7352 169.2 104.439Z" fill="#FFB573"/>
<path d="M217.316 68.2973C216.116 70.1357 214.394 71.5731 212.37 72.4248C211.481 66.3314 200.806 57 181.974 57C183.792 57.9103 185.512 59.0042 187.107 60.2646C185.736 60.6636 184.517 61.4657 183.608 62.5667C182.699 63.6676 182.142 65.0165 182.01 66.4381C182.01 66.4381 162.991 68.493 157.876 80.0304C156.925 77.4863 156.097 74.1238 156.738 71.1972C154.336 73.4033 151.196 84.4781 155.243 89.5663C147.237 92.6531 151.854 99.983 151.854 99.983C151.854 99.983 152.005 97.3143 152.584 96.7272C154.798 99.3959 153.322 109.128 160.465 112.25C158.25 120.95 176.059 128.013 176.477 121.688C176.895 115.363 176.913 111.832 176.913 111.832C178.603 111.627 182.019 109.652 181.983 109.074C181.654 104.626 176.165 101.958 174.813 99.3603C179.412 100.152 183.38 98.1683 184.029 96.3002C181.049 97.341 177.695 95.98 175.552 94.6546C176.05 88.2498 188.895 85.4833 201.927 86.2216C202.614 86.2569 203.303 86.2569 203.991 86.2216C204.014 86.2173 204.038 86.2173 204.062 86.2216C206.748 86.2149 209.354 85.2995 211.454 83.6242C217.129 79.808 217.734 72.9407 217.316 68.2973Z" fill="#263238"/>
<path d="M165.757 116.172C166.825 117.693 168.184 118.988 169.755 119.982C171.326 120.976 173.078 121.649 174.911 121.963C179.839 122.763 181.796 118.218 179.999 113.85C178.38 109.927 173.87 104.768 169.129 105.96C164.387 107.152 163.151 112.373 165.757 116.172Z" fill="#FFB573"/>
<path d="M205.307 98.71C205.307 98.71 209.754 105.248 213.597 108.006C211.818 110.568 207.895 110.479 207.895 110.479L205.307 98.71Z" fill="#ED893E"/>
<path d="M202.113 116.35C200.693 116.505 199.256 116.366 197.892 115.94C196.528 115.515 195.267 114.812 194.187 113.877C194.152 113.843 194.124 113.802 194.105 113.757C194.086 113.711 194.076 113.663 194.075 113.614C194.075 113.565 194.084 113.516 194.102 113.47C194.121 113.425 194.148 113.383 194.183 113.348C194.217 113.313 194.258 113.285 194.303 113.266C194.349 113.247 194.397 113.237 194.446 113.236C194.495 113.236 194.544 113.245 194.59 113.264C194.635 113.282 194.677 113.309 194.712 113.344C195.931 114.356 197.373 115.066 198.919 115.416C200.464 115.765 202.071 115.744 203.607 115.354C203.704 115.333 203.805 115.351 203.889 115.404C203.972 115.458 204.031 115.542 204.052 115.639C204.074 115.737 204.056 115.839 204.002 115.924C203.949 116.009 203.865 116.069 203.767 116.092C203.222 116.214 202.669 116.301 202.113 116.35Z" fill="#263238"/>
<path d="M187.631 97.6705C187.504 97.6716 187.379 97.641 187.267 97.5815C187.18 97.5349 187.104 97.4717 187.042 97.3954C186.979 97.3192 186.933 97.2314 186.905 97.1372C186.877 97.043 186.868 96.9442 186.878 96.8464C186.888 96.7487 186.917 96.6538 186.964 96.5674C187.505 95.5013 188.294 94.5805 189.264 93.8825C190.235 93.1844 191.359 92.7293 192.542 92.5556C192.639 92.547 192.736 92.5578 192.829 92.5872C192.922 92.6166 193.008 92.6641 193.083 92.727C193.157 92.7898 193.218 92.8667 193.263 92.9534C193.307 93.04 193.334 93.1345 193.342 93.2316C193.357 93.4304 193.294 93.6271 193.166 93.78C193.038 93.9328 192.856 94.0297 192.657 94.05C191.726 94.2042 190.844 94.5763 190.083 95.1358C189.323 95.6954 188.705 96.4267 188.281 97.2702C188.217 97.3879 188.123 97.4868 188.009 97.557C187.896 97.6273 187.765 97.6664 187.631 97.6705Z" fill="#263238"/>
<path d="M194.347 102.66C194.248 102.642 194.153 102.603 194.071 102.544C193.952 102.447 193.876 102.306 193.859 102.153C193.843 102 193.887 101.847 193.982 101.726C194.544 100.987 195.273 100.392 196.11 99.9896C196.947 99.5875 197.867 99.3899 198.795 99.4129C198.871 99.4196 198.944 99.4413 199.011 99.4768C199.079 99.5124 199.138 99.561 199.186 99.6199C199.234 99.6788 199.27 99.7467 199.291 99.8196C199.313 99.8925 199.319 99.969 199.311 100.045C199.304 100.121 199.282 100.195 199.247 100.262C199.212 100.33 199.163 100.39 199.104 100.439C199.046 100.487 198.978 100.524 198.905 100.546C198.832 100.569 198.755 100.577 198.679 100.569C197.945 100.564 197.219 100.731 196.561 101.057C195.903 101.383 195.331 101.859 194.89 102.446C194.826 102.526 194.742 102.588 194.647 102.625C194.552 102.663 194.448 102.675 194.347 102.66Z" fill="#263238"/>
<path d="M214.237 98.3203C214.329 98.2745 214.406 98.2036 214.46 98.1157C214.501 98.052 214.53 97.9808 214.544 97.9061C214.558 97.8314 214.557 97.7547 214.541 97.6803C214.525 97.606 214.495 97.5355 214.452 97.4728C214.409 97.4101 214.354 97.3565 214.291 97.3151C213.525 96.7905 212.646 96.4562 211.725 96.3402C210.804 96.2241 209.869 96.3296 208.998 96.6479C208.857 96.7104 208.747 96.8255 208.69 96.9686C208.634 97.1117 208.635 97.2712 208.695 97.4129C208.76 97.5542 208.876 97.6648 209.021 97.7213C209.165 97.7777 209.326 97.7756 209.469 97.7154C210.161 97.4726 210.901 97.3977 211.628 97.4966C212.355 97.5956 213.048 97.8657 213.65 98.2847C213.736 98.3426 213.836 98.3764 213.939 98.3827C214.042 98.389 214.145 98.3674 214.237 98.3203Z" fill="#263238"/>
<path d="M214.22 91.8975C214.103 91.9385 213.979 91.9509 213.856 91.9339C213.734 91.9169 213.618 91.8709 213.517 91.7997C212.773 91.2155 211.9 90.8199 210.97 90.6464C210.041 90.4729 209.084 90.5268 208.18 90.8034C207.993 90.8718 207.787 90.8634 207.607 90.78C207.427 90.6966 207.287 90.545 207.219 90.3586C207.15 90.1722 207.159 89.9663 207.242 89.7862C207.326 89.606 207.477 89.4663 207.664 89.3979C208.794 89.0399 209.995 88.9605 211.162 89.1665C212.33 89.3725 213.431 89.8578 214.371 90.581C214.53 90.6998 214.636 90.8766 214.666 91.073C214.696 91.2694 214.647 91.4698 214.531 91.6307C214.453 91.7457 214.345 91.8378 214.22 91.8975Z" fill="#263238"/>
<path d="M168.48 159.662C169.33 161.341 170.315 162.947 171.424 164.466C172.755 166.286 174.183 168.032 175.703 169.697C177.295 171.431 178.968 173.184 180.756 174.874C182.544 176.564 184.403 178.209 186.307 179.837C188.21 181.465 190.194 183.013 192.213 184.516C194.232 186.02 196.252 187.487 198.324 188.848C200.397 190.209 202.487 191.517 204.551 192.629C206.4 193.67 208.317 194.586 210.289 195.369L208.305 194.969C209.167 195.181 210.067 195.181 210.929 194.969C212.406 194.641 213.835 194.127 215.181 193.439C216.866 192.594 218.491 191.637 220.047 190.574C221.702 189.444 223.338 188.164 224.975 186.811C226.612 185.459 228.258 184.018 229.85 182.497C231.442 180.976 233.07 179.428 234.636 177.818C236.201 176.208 237.776 174.562 239.297 172.872C240.08 172.036 240.845 171.191 241.592 170.346L243.807 167.855L244.029 167.606C245.026 166.55 246.36 165.876 247.801 165.699C249.242 165.522 250.699 165.855 251.921 166.639C253.143 167.423 254.052 168.609 254.492 169.992C254.932 171.376 254.875 172.87 254.33 174.215C253.77 175.496 253.263 176.564 252.702 177.72C252.142 178.877 251.573 179.953 250.986 181.056C249.794 183.253 248.557 185.433 247.223 187.568C245.889 189.702 244.492 191.82 242.989 193.892C241.485 195.965 239.893 197.993 238.194 200.003C236.446 202.046 234.59 203.994 232.634 205.839C230.557 207.822 228.319 209.631 225.945 211.247C223.279 213.102 220.381 214.597 217.325 215.695C213.674 217.019 209.785 217.556 205.912 217.27C205.438 217.231 204.967 217.151 204.507 217.029L203.937 216.869C200.642 215.955 197.424 214.783 194.312 213.364C191.404 212.066 188.682 210.598 186.022 209.095C183.362 207.591 180.791 205.99 178.274 204.318C175.757 202.645 173.328 200.857 170.935 198.98C166.031 195.22 161.451 191.055 157.245 186.527C155.009 184.124 152.929 181.581 151.018 178.912C148.892 175.941 147.102 172.742 145.681 169.376C144.462 166.404 144.443 163.075 145.628 160.09C146.813 157.104 149.109 154.694 152.035 153.367C154.96 152.039 158.286 151.898 161.313 152.973C164.34 154.047 166.833 156.254 168.267 159.129L168.48 159.662Z" fill="#FFB573"/>
<path d="M241.796 174.457L240.684 160.224L257.381 163.711C257.381 163.711 256.838 176.672 249.9 177.49L241.796 174.457Z" fill="#FFB573"/>
<path d="M250.194 148.963L255.833 151.169C256.923 151.594 257.826 152.393 258.382 153.423C258.937 154.453 259.109 155.646 258.867 156.791L257.381 163.756L240.729 160.269L243.815 151.854C244.042 151.243 244.387 150.684 244.831 150.207C245.275 149.731 245.809 149.347 246.402 149.078C246.995 148.809 247.635 148.661 248.286 148.641C248.937 148.621 249.585 148.73 250.194 148.963Z" fill="#FFB573"/>
<path d="M146.899 165.009C150.136 152.822 168.675 143.019 187.373 176.947C185.309 191.589 169.582 203.108 169.582 203.108C169.582 203.108 142.753 180.603 146.899 165.009Z" fill="white" fill-opacity="0.5"/>
<path d="M142.887 163.754C146.445 149.522 166.015 135.965 185.345 171.689C183.005 188.493 166.362 203.633 166.362 203.633C166.362 203.633 138.368 181.91 142.887 163.754Z" fill="#5C0EBC"/>
<path d="M142.887 163.754C146.445 149.522 166.015 135.965 185.345 171.689C183.005 188.493 166.362 203.633 166.362 203.633C166.362 203.633 138.368 181.91 142.887 163.754Z" fill="#E9D7FF"/>
<defs>
<filter id="filter0_f_416_696" x="0" y="321.94" width="372.949" height="48.1392" filterUnits="userSpaceOnUse" color-interpolation-filters="sRGB">
<feFlood flood-opacity="0" result="BackgroundImageFix"/>
<feBlend mode="normal" in="SourceGraphic" in2="BackgroundImageFix" result="shape"/>
<feGaussianBlur stdDeviation="7" result="effect1_foregroundBlur_416_696"/>
</filter>
</defs>
</svg>
