<svg width="320" height="341" viewBox="0 0 320 341" fill="none" xmlns="http://www.w3.org/2000/svg">
<path opacity="0.05" d="M240.557 229.524C282.811 187.27 282.811 118.762 240.557 76.5081C198.303 34.2539 129.795 34.2539 87.5411 76.5081C45.2869 118.762 45.2869 187.27 87.5411 229.524C129.795 271.778 198.303 271.778 240.557 229.524Z" fill="#D4C5FF"/>
<path opacity="0.1" d="M182.996 198.764C208.264 188.298 220.263 159.33 209.797 134.062C199.33 108.795 170.363 96.7962 145.095 107.262C119.828 117.728 107.829 146.696 118.295 171.964C128.761 197.231 157.729 209.23 182.996 198.764Z" fill="#D4C5FF"/>
<path opacity="0.07" d="M217.734 206.701C247.384 177.052 247.384 128.98 217.734 99.3307C188.084 69.6811 140.013 69.6811 110.363 99.3307C80.7137 128.98 80.7137 177.052 110.363 206.701C140.013 236.351 188.084 236.351 217.734 206.701Z" fill="#D4C5FF"/>
<path d="M93.2743 338.116C94.463 337.878 95.637 337.571 96.7908 337.199C97.438 336.976 98.0756 336.687 98.7229 336.464C99.2694 336.344 99.7713 336.073 100.172 335.682C100.271 335.573 100.33 335.433 100.336 335.286C100.316 335.171 100.257 335.067 100.169 334.992C100.081 334.916 99.9693 334.873 99.8532 334.87C99.6211 334.88 99.3938 334.939 99.1866 335.044C95.3228 336.611 91.2257 337.525 87.0626 337.749C81.614 338.155 75.75 337.856 70.7651 335.431C65.3745 332.813 63.5583 327.702 64.167 324.06C64.7756 320.418 67.4999 318.022 71.4414 317.539C80.8411 316.37 91.8735 321.993 98.2495 331.228C98.3293 331.34 98.4494 331.417 98.5845 331.442C98.7196 331.467 98.8592 331.439 98.9741 331.364C99.0864 331.284 99.1627 331.163 99.1862 331.027C99.2098 330.892 99.1786 330.752 99.0997 330.639C92.5111 321.094 81.0827 315.288 71.3061 316.506C66.8623 317.056 63.8095 319.819 63.1333 323.886C62.3218 328.794 65.2779 333.924 70.3111 336.368C74.8902 338.59 80.1649 339.111 85.1884 338.928C87.7794 338.863 90.3622 338.611 92.9169 338.174L93.2743 338.116Z" fill="#D4C5FF"/>
<path d="M95.4381 334.242C95.5426 334.222 95.6382 334.169 95.7121 334.093C95.786 334.016 95.8347 333.918 95.8515 333.813C95.8683 333.708 95.8525 333.6 95.8063 333.504C95.76 333.408 95.6854 333.329 95.5926 333.276C85.4683 327.393 67.1325 322.65 66.949 322.601C66.8824 322.584 66.813 322.58 66.7449 322.59C66.6769 322.6 66.6113 322.623 66.5521 322.658C66.4929 322.693 66.4412 322.739 66.3999 322.794C66.3586 322.849 66.3285 322.912 66.3114 322.978C66.2942 323.045 66.2904 323.114 66.3001 323.182C66.3097 323.25 66.3327 323.316 66.3677 323.375C66.4027 323.434 66.449 323.486 66.504 323.527C66.5589 323.569 66.6215 323.599 66.6881 323.616C66.8717 323.664 85.0433 328.359 95.071 334.175C95.1801 334.244 95.3115 334.268 95.4381 334.242Z" fill="#D4C5FF"/>
<path d="M67.4803 329.654C67.5487 329.635 67.6139 329.606 67.6735 329.567L73.4698 325.355C73.5258 325.316 73.5732 325.265 73.6094 325.207C73.6457 325.149 73.6699 325.085 73.6807 325.017C73.6915 324.95 73.6887 324.881 73.6724 324.814C73.6561 324.748 73.6266 324.685 73.5857 324.63C73.5046 324.52 73.383 324.445 73.2473 324.424C73.1116 324.402 72.9729 324.435 72.8612 324.514L67.0648 328.727C67.0089 328.766 66.9614 328.816 66.9252 328.874C66.889 328.932 66.8648 328.997 66.854 329.064C66.8432 329.132 66.846 329.201 66.8623 329.267C66.8786 329.334 66.9081 329.396 66.9489 329.451C67.0084 329.533 67.0902 329.595 67.1845 329.631C67.2788 329.667 67.3816 329.675 67.4803 329.654Z" fill="#D4C5FF"/>
<path d="M73.4896 333.353C73.5753 333.334 73.6549 333.295 73.7215 333.237L80.3969 327.615C80.4996 327.524 80.563 327.396 80.5738 327.259C80.5846 327.123 80.542 326.987 80.4549 326.881C80.4112 326.828 80.3572 326.784 80.2963 326.752C80.2353 326.72 80.1686 326.701 80.1001 326.696C80.0316 326.691 79.9627 326.699 79.8975 326.721C79.8323 326.743 79.7722 326.777 79.7207 326.823L73.0549 332.445C72.9486 332.534 72.8818 332.661 72.8691 332.798C72.8565 332.936 72.8989 333.073 72.9873 333.179C73.0471 333.252 73.1255 333.306 73.2141 333.337C73.3027 333.367 73.398 333.373 73.4896 333.353Z" fill="#D4C5FF"/>
<path d="M79.9914 335.749C80.0713 335.728 80.1466 335.692 80.2136 335.643L86.976 329.982C87.0823 329.892 87.1487 329.764 87.1604 329.625C87.1722 329.487 87.1285 329.349 87.0388 329.243C86.9491 329.137 86.8209 329.07 86.6823 329.059C86.5437 329.047 86.4061 329.091 86.2997 329.18L79.5953 334.841C79.5423 334.885 79.4986 334.939 79.4668 335C79.4351 335.061 79.4159 335.128 79.4105 335.196C79.4051 335.265 79.4136 335.334 79.4353 335.399C79.4571 335.464 79.4918 335.524 79.5373 335.576C79.5921 335.641 79.6625 335.691 79.7419 335.721C79.8213 335.751 79.9072 335.761 79.9914 335.749Z" fill="#D4C5FF"/>
<path d="M87.3821 335.517C87.4657 335.498 87.5446 335.461 87.6139 335.411L91.6231 332.02C91.6754 331.977 91.7186 331.924 91.7504 331.864C91.7821 331.805 91.8017 331.739 91.808 331.672C91.8143 331.604 91.8072 331.536 91.787 331.472C91.7669 331.407 91.7341 331.347 91.6907 331.295C91.6022 331.189 91.4753 331.122 91.3376 331.11C91.1999 331.097 91.0629 331.139 90.9565 331.228L86.9473 334.609C86.8411 334.697 86.7743 334.824 86.7616 334.962C86.7489 335.1 86.7914 335.237 86.8797 335.343C86.9395 335.415 87.018 335.47 87.1066 335.5C87.1951 335.531 87.2904 335.537 87.3821 335.517Z" fill="#D4C5FF"/>
<path d="M76.8516 326.552C76.9866 326.52 77.1035 326.436 77.1776 326.319C77.2516 326.202 77.2768 326.06 77.2477 325.924L75.8856 319.674C75.8718 319.608 75.8451 319.545 75.807 319.49C75.7689 319.434 75.7202 319.386 75.6636 319.349C75.6071 319.313 75.5438 319.287 75.4774 319.275C75.4111 319.263 75.343 319.264 75.277 319.278C75.1428 319.308 75.0259 319.39 74.9517 319.506C74.8776 319.621 74.8521 319.762 74.8809 319.896L76.2527 326.147C76.2784 326.28 76.3559 326.397 76.4682 326.473C76.5805 326.55 76.7184 326.578 76.8516 326.552Z" fill="#D4C5FF"/>
<path d="M83.7295 328.929C83.7959 328.913 83.8584 328.884 83.9135 328.844C83.9685 328.804 84.015 328.753 84.0501 328.694C84.0852 328.636 84.1082 328.571 84.1179 328.503C84.1275 328.436 84.1236 328.367 84.1063 328.301L82.5219 321.877C82.5085 321.809 82.4812 321.744 82.4417 321.687C82.4022 321.631 82.3514 321.582 82.2924 321.546C82.2335 321.51 82.1676 321.486 82.0991 321.477C82.0305 321.467 81.9607 321.472 81.894 321.49C81.8273 321.507 81.7645 321.537 81.7094 321.578C81.6543 321.62 81.6079 321.671 81.5729 321.731C81.5378 321.79 81.5149 321.855 81.5053 321.924C81.4958 321.992 81.4998 322.061 81.5173 322.128L83.1016 328.542C83.1163 328.61 83.1444 328.673 83.1842 328.729C83.2241 328.786 83.2748 328.833 83.3334 328.869C83.392 328.905 83.4573 328.929 83.5254 328.939C83.5934 328.95 83.6629 328.946 83.7295 328.929Z" fill="#D4C5FF"/>
<path d="M89.2171 331.151C89.3513 331.121 89.4682 331.039 89.5424 330.923C89.6165 330.807 89.642 330.667 89.6132 330.532L88.3574 324.736C88.3272 324.601 88.2458 324.484 88.1304 324.408C88.015 324.332 87.8746 324.304 87.7391 324.33C87.6024 324.36 87.4831 324.443 87.4071 324.561C87.3311 324.678 87.3046 324.821 87.3333 324.958L88.5989 330.755C88.6289 330.889 88.7107 331.006 88.8265 331.08C88.9423 331.154 89.0827 331.179 89.2171 331.151Z" fill="#D4C5FF"/>
<path d="M104.616 226.42C108.046 226.42 117.02 227.801 126.372 240.592C142.795 263.005 136.786 293.59 135.907 297.59L130.207 300.15C130.497 288.084 128.874 280.558 124.701 274.423C119.764 267.159 113.108 261.005 107.746 256.068C105.041 253.566 102.713 251.412 101.051 249.547C93.323 240.901 92.1734 234.197 97.3611 229.048C99.3343 227.24 101.942 226.285 104.616 226.391M104.616 225.425C101.696 225.306 98.8481 226.348 96.6945 228.323C91.1236 233.855 92.3376 241.127 100.337 250.137C105.389 255.817 116.576 264.145 123.908 274.926C128.43 281.563 129.627 289.9 129.212 301.618L136.728 298.237C136.728 298.237 145.104 264.541 127.145 239.964C119.532 229.54 111.07 225.396 104.616 225.396V225.425Z" fill="#D4C5FF"/>
<path d="M134.535 288.663C134.39 288.663 134.25 288.607 134.146 288.506C134.041 288.405 133.98 288.267 133.975 288.122C133.492 253.972 99.1969 230.748 98.8202 230.526C98.7584 230.487 98.7048 230.437 98.6625 230.378C98.6203 230.319 98.5902 230.251 98.574 230.18C98.5578 230.11 98.5559 230.036 98.5683 229.964C98.5807 229.893 98.6072 229.824 98.6463 229.763C98.7271 229.641 98.8521 229.556 98.9946 229.526C99.137 229.495 99.2859 229.521 99.4095 229.598C99.7572 229.821 134.593 253.383 135.086 288.103C135.087 288.176 135.074 288.249 135.047 288.317C135.02 288.385 134.979 288.446 134.928 288.499C134.877 288.551 134.816 288.592 134.748 288.62C134.681 288.649 134.609 288.663 134.535 288.663Z" fill="#D4C5FF"/>
<path d="M106.25 236.119H106.134C106.062 236.104 105.995 236.076 105.935 236.034C105.875 235.993 105.824 235.941 105.784 235.88C105.745 235.818 105.718 235.75 105.705 235.679C105.692 235.607 105.693 235.534 105.709 235.462L107.138 228.7C107.153 228.629 107.182 228.561 107.223 228.501C107.264 228.441 107.317 228.39 107.378 228.351C107.439 228.311 107.508 228.284 107.579 228.271C107.651 228.258 107.724 228.259 107.795 228.275C107.938 228.307 108.062 228.394 108.141 228.517C108.221 228.64 108.249 228.789 108.22 228.932L106.791 235.694C106.762 235.816 106.693 235.924 106.595 236.002C106.496 236.079 106.375 236.12 106.25 236.119Z" fill="#D4C5FF"/>
<path d="M99.7758 241.095C99.6562 241.096 99.5397 241.057 99.4438 240.986C99.348 240.915 99.278 240.814 99.2444 240.699C99.2057 240.557 99.2246 240.405 99.2969 240.277C99.3692 240.148 99.4892 240.054 99.6309 240.013L108.461 237.53C108.603 237.492 108.755 237.511 108.883 237.583C109.011 237.655 109.106 237.775 109.147 237.917C109.166 237.987 109.171 238.059 109.162 238.131C109.152 238.203 109.129 238.272 109.093 238.335C109.058 238.398 109.01 238.453 108.952 238.497C108.895 238.541 108.83 238.574 108.76 238.593L99.9303 241.076C99.8803 241.091 99.828 241.098 99.7758 241.095Z" fill="#D4C5FF"/>
<path d="M113.311 242.805H113.157C113.087 242.785 113.021 242.751 112.965 242.706C112.908 242.66 112.86 242.604 112.825 242.541C112.79 242.477 112.768 242.407 112.76 242.334C112.753 242.262 112.759 242.189 112.78 242.119L115.263 233.309C115.303 233.169 115.397 233.051 115.523 232.979C115.649 232.907 115.798 232.886 115.939 232.922C116.081 232.963 116.201 233.057 116.273 233.186C116.345 233.314 116.364 233.466 116.325 233.608L113.843 242.418C113.805 242.53 113.733 242.627 113.638 242.696C113.543 242.765 113.429 242.803 113.311 242.805Z" fill="#D4C5FF"/>
<path d="M104.491 249.287C104.355 249.292 104.223 249.247 104.119 249.161C104.014 249.075 103.945 248.953 103.925 248.819C103.905 248.685 103.934 248.549 104.008 248.435C104.082 248.322 104.196 248.24 104.326 248.205L115.61 244.814C115.681 244.786 115.757 244.774 115.833 244.777C115.909 244.781 115.984 244.8 116.052 244.834C116.121 244.867 116.181 244.915 116.23 244.973C116.279 245.031 116.316 245.099 116.337 245.172C116.359 245.246 116.365 245.322 116.355 245.398C116.345 245.473 116.32 245.546 116.281 245.611C116.241 245.677 116.189 245.733 116.127 245.777C116.064 245.821 115.994 245.852 115.919 245.867L104.645 249.258C104.596 249.277 104.543 249.287 104.491 249.287Z" fill="#D4C5FF"/>
<path d="M119.619 250.051H119.426C119.29 249.997 119.181 249.892 119.121 249.758C119.062 249.625 119.057 249.473 119.107 249.336L122.711 239.675C122.762 239.538 122.865 239.427 122.999 239.367C123.132 239.306 123.284 239.301 123.421 239.352C123.558 239.403 123.669 239.507 123.73 239.64C123.79 239.773 123.796 239.925 123.744 240.062L120.141 249.722C120.097 249.823 120.023 249.908 119.93 249.967C119.837 250.025 119.729 250.054 119.619 250.051Z" fill="#D4C5FF"/>
<path d="M110.258 254.282C110.118 254.289 109.981 254.242 109.875 254.152C109.768 254.061 109.7 253.934 109.684 253.795C109.668 253.656 109.706 253.517 109.789 253.404C109.872 253.292 109.995 253.216 110.132 253.19L120.401 250.679C120.472 250.662 120.545 250.658 120.616 250.67C120.688 250.681 120.757 250.706 120.819 250.744C120.88 250.781 120.934 250.831 120.977 250.889C121.02 250.948 121.051 251.014 121.068 251.084C121.085 251.155 121.088 251.228 121.077 251.3C121.066 251.371 121.041 251.44 121.003 251.502C120.965 251.564 120.916 251.618 120.857 251.66C120.799 251.703 120.732 251.734 120.662 251.751L110.393 254.224L110.258 254.282Z" fill="#D4C5FF"/>
<path d="M124.594 256.378C124.5 256.375 124.408 256.352 124.323 256.31C124.197 256.237 124.103 256.117 124.064 255.977C124.024 255.836 124.041 255.685 124.111 255.557L128.304 247.905C128.33 247.828 128.373 247.756 128.429 247.697C128.486 247.638 128.555 247.591 128.631 247.561C128.708 247.532 128.79 247.519 128.871 247.524C128.953 247.529 129.033 247.553 129.105 247.592C129.177 247.632 129.239 247.687 129.288 247.753C129.336 247.819 129.369 247.895 129.385 247.976C129.401 248.057 129.398 248.14 129.379 248.219C129.359 248.299 129.321 248.373 129.27 248.437L125.067 256.088C125.021 256.174 124.953 256.246 124.87 256.297C124.787 256.348 124.691 256.376 124.594 256.378Z" fill="#D4C5FF"/>
<path d="M116.905 260.068C116.768 260.069 116.636 260.019 116.534 259.928C116.433 259.837 116.368 259.711 116.354 259.576C116.34 259.43 116.384 259.285 116.476 259.171C116.568 259.057 116.701 258.984 116.847 258.967L125.29 258.098C125.436 258.084 125.581 258.128 125.695 258.22C125.808 258.312 125.882 258.445 125.899 258.59C125.907 258.663 125.9 258.736 125.88 258.806C125.859 258.876 125.825 258.941 125.779 258.997C125.734 259.054 125.677 259.101 125.613 259.136C125.549 259.17 125.478 259.192 125.406 259.199L116.963 260.068H116.905Z" fill="#D4C5FF"/>
<path d="M128.111 263.237C128.005 263.236 127.902 263.206 127.812 263.15C127.751 263.111 127.698 263.06 127.657 263C127.615 262.941 127.586 262.874 127.571 262.803C127.556 262.732 127.555 262.659 127.568 262.587C127.581 262.516 127.608 262.448 127.648 262.387L131.86 255.808C131.939 255.685 132.063 255.598 132.206 255.566C132.348 255.533 132.498 255.558 132.623 255.634C132.685 255.673 132.738 255.723 132.78 255.782C132.823 255.841 132.853 255.909 132.869 255.98C132.885 256.05 132.887 256.124 132.875 256.196C132.862 256.267 132.836 256.336 132.797 256.397L128.575 262.986C128.526 263.064 128.457 263.128 128.376 263.172C128.295 263.216 128.204 263.238 128.111 263.237Z" fill="#D4C5FF"/>
<path d="M129.511 267.014L123.435 266.888C123.362 266.888 123.29 266.874 123.223 266.845C123.156 266.817 123.096 266.775 123.045 266.723C122.995 266.671 122.955 266.609 122.929 266.541C122.903 266.473 122.891 266.401 122.894 266.328C122.896 266.184 122.955 266.046 123.058 265.945C123.161 265.844 123.3 265.787 123.444 265.787L129.521 265.913C129.593 265.913 129.665 265.927 129.732 265.956C129.799 265.984 129.86 266.026 129.91 266.078C129.961 266.13 130 266.192 130.026 266.26C130.052 266.328 130.064 266.4 130.062 266.473C130.059 266.617 130 266.755 129.897 266.856C129.794 266.957 129.655 267.014 129.511 267.014Z" fill="#D4C5FF"/>
<path d="M131.608 271.593C131.49 271.591 131.376 271.554 131.279 271.487C131.221 271.444 131.171 271.39 131.134 271.328C131.096 271.266 131.071 271.197 131.061 271.125C131.05 271.053 131.053 270.98 131.071 270.909C131.089 270.839 131.12 270.772 131.164 270.714L134.786 265.758C134.829 265.7 134.884 265.651 134.946 265.613C135.008 265.576 135.077 265.551 135.149 265.54C135.22 265.53 135.294 265.533 135.364 265.551C135.434 265.568 135.501 265.599 135.559 265.642C135.617 265.686 135.667 265.74 135.704 265.802C135.742 265.864 135.766 265.933 135.777 266.005C135.788 266.077 135.784 266.15 135.767 266.22C135.749 266.291 135.718 266.357 135.675 266.415L132.052 271.361C132.003 271.434 131.937 271.493 131.859 271.533C131.782 271.574 131.695 271.594 131.608 271.593Z" fill="#D4C5FF"/>
<path d="M132.709 275.873L128.111 275.564C128.038 275.559 127.967 275.54 127.902 275.508C127.838 275.475 127.78 275.431 127.732 275.376C127.684 275.321 127.648 275.257 127.625 275.189C127.602 275.12 127.593 275.047 127.598 274.975C127.601 274.901 127.618 274.829 127.65 274.763C127.681 274.697 127.726 274.638 127.781 274.59C127.836 274.542 127.901 274.506 127.971 274.484C128.041 274.462 128.115 274.455 128.188 274.463L132.777 274.772C132.911 274.79 133.035 274.856 133.125 274.958C133.214 275.06 133.263 275.191 133.263 275.327C133.263 275.463 133.214 275.594 133.125 275.697C133.035 275.799 132.911 275.865 132.777 275.883L132.709 275.873Z" fill="#D4C5FF"/>
<path d="M140.08 334.271C131.137 339.971 120.336 341.989 109.939 339.903C106.711 339.252 103.594 338.139 100.684 336.6C87.0236 329.267 91.2646 325.219 93.5252 323.635C95.7858 322.051 101.824 317.945 103.36 314.255C99.8648 316.133 96.1877 317.651 92.3853 318.785C86.8497 320.312 85.6905 322.968 80.2709 316.1C74.8513 309.231 72.8902 297.378 72.8902 297.378C72.8902 297.378 82.0967 298.431 86.6662 294.711C86.6662 294.711 77.2278 293.446 74.0301 291.407C70.8325 289.369 71.0547 285.939 70.0886 280.104C69.1225 274.269 67.3064 267.71 70.3784 266.879C73.4505 266.048 81.7103 264.193 93.5639 268.686C93.5639 268.686 98.9255 278.153 99.0028 284.857C99.0028 284.857 101.389 277.071 97.9691 266.551C102.08 266.523 106.158 267.29 109.977 268.811C116.459 271.352 120.749 274.057 122.063 276.288C123.376 278.52 125.386 289.272 122.546 298.276C122.546 298.276 128.043 292.296 127.617 284.751C127.192 277.206 129.298 278.752 132.39 280.104C135.172 281.322 149.885 300.247 147.18 323.142C146.898 325.416 146.111 327.597 144.878 329.528C143.644 331.458 141.995 333.089 140.051 334.3L140.08 334.271Z" fill="#D4C5FF"/>
<path opacity="0.5" d="M140.08 334.271C131.137 339.971 120.336 341.989 109.939 339.903C106.711 339.252 103.594 338.139 100.684 336.6C87.0236 329.267 91.2646 325.219 93.5252 323.635C95.7858 322.051 101.824 317.945 103.36 314.255C99.8648 316.133 96.1877 317.651 92.3853 318.785C86.8497 320.312 85.6905 322.968 80.2709 316.1C74.8513 309.231 72.8902 297.378 72.8902 297.378C72.8902 297.378 82.0967 298.431 86.6662 294.711C86.6662 294.711 77.2278 293.446 74.0301 291.407C70.8325 289.369 71.0547 285.939 70.0886 280.104C69.1225 274.269 67.3064 267.71 70.3784 266.879C73.4505 266.048 81.7103 264.193 93.5639 268.686C93.5639 268.686 98.9255 278.153 99.0028 284.857C99.0028 284.857 101.389 277.071 97.9691 266.551C102.08 266.523 106.158 267.29 109.977 268.811C116.459 271.352 120.749 274.057 122.063 276.288C123.376 278.52 125.386 289.272 122.546 298.276C122.546 298.276 128.043 292.296 127.617 284.751C127.192 277.206 129.298 278.752 132.39 280.104C135.172 281.322 149.885 300.247 147.18 323.142C146.898 325.416 146.111 327.597 144.878 329.528C143.644 331.458 141.995 333.089 140.051 334.3L140.08 334.271Z" fill="#D4C5FF"/>
<path d="M135.501 333.229C135.425 333.228 135.351 333.21 135.283 333.174C135.216 333.139 135.158 333.088 135.115 333.026C102.472 284.172 71.6544 269.778 71.3549 269.643C71.2574 269.584 71.1846 269.492 71.1505 269.384C71.1163 269.276 71.1231 269.158 71.1696 269.055C71.2161 268.951 71.299 268.868 71.4026 268.822C71.5062 268.775 71.6233 268.768 71.7316 268.802C72.0408 268.947 103.09 283.428 135.888 332.514C135.922 332.564 135.946 332.62 135.958 332.679C135.971 332.738 135.971 332.8 135.959 332.859C135.947 332.918 135.924 332.975 135.89 333.025C135.856 333.075 135.813 333.118 135.762 333.151C135.684 333.201 135.594 333.228 135.501 333.229Z" fill="#D4C5FF"/>
<path d="M81.0831 308.806C80.9737 308.801 80.8699 308.757 80.79 308.682C80.7101 308.607 80.6593 308.506 80.6466 308.397C80.6338 308.289 80.66 308.179 80.7205 308.087C80.7809 307.996 80.8717 307.929 80.9768 307.898C81.1314 307.898 96.3468 304.324 107.06 297.33C107.162 297.278 107.28 297.267 107.39 297.296C107.5 297.326 107.595 297.396 107.658 297.491C107.72 297.587 107.744 297.702 107.727 297.815C107.709 297.928 107.651 298.03 107.563 298.103C96.7042 305.184 81.3246 308.729 81.17 308.797L81.0831 308.806Z" fill="#D4C5FF"/>
<path d="M103.119 330.031C103.019 330.033 102.921 330.001 102.841 329.942C102.761 329.883 102.702 329.798 102.674 329.702C102.641 329.586 102.655 329.461 102.713 329.354C102.771 329.248 102.868 329.168 102.984 329.132C103.1 329.132 115.272 325.326 125.039 318.409C125.088 318.375 125.144 318.351 125.203 318.338C125.262 318.325 125.322 318.324 125.382 318.335C125.441 318.346 125.497 318.368 125.548 318.401C125.598 318.433 125.642 318.476 125.676 318.525C125.711 318.575 125.735 318.63 125.747 318.689C125.76 318.748 125.761 318.809 125.75 318.868C125.74 318.927 125.717 318.984 125.685 319.034C125.652 319.085 125.61 319.128 125.56 319.163C115.678 326.157 103.341 329.973 103.254 330.011L103.119 330.031Z" fill="#D4C5FF"/>
<path d="M85.6432 282.781C81.7265 282.657 77.8522 281.93 74.1568 280.627C74.0427 280.584 73.9502 280.499 73.8995 280.388C73.8487 280.278 73.844 280.151 73.8863 280.037C73.9285 279.923 74.0144 279.831 74.1249 279.78C74.2354 279.729 74.3615 279.725 74.4756 279.767C74.5625 279.767 83.402 282.984 89.6813 281.39C89.7391 281.374 89.7994 281.37 89.8588 281.378C89.9181 281.386 89.9752 281.406 90.0267 281.437C90.0781 281.467 90.1228 281.508 90.1581 281.557C90.1934 281.605 90.2185 281.66 90.232 281.718C90.2615 281.836 90.2437 281.961 90.1822 282.066C90.1208 282.17 90.0207 282.247 89.9035 282.279C88.5091 282.618 87.0785 282.787 85.6432 282.781Z" fill="#D4C5FF"/>
<path d="M112.451 303.136H112.306C112.248 303.113 112.194 303.079 112.149 303.036C112.104 302.992 112.068 302.94 112.044 302.882C112.019 302.824 112.007 302.762 112.007 302.7C112.008 302.637 112.021 302.575 112.046 302.517C118.103 287.959 112.104 273.642 112.046 273.536C112.019 273.479 112.004 273.417 112.003 273.355C112.001 273.292 112.012 273.23 112.036 273.171C112.059 273.113 112.095 273.061 112.14 273.017C112.185 272.973 112.238 272.939 112.297 272.917C112.353 272.892 112.414 272.878 112.476 272.876C112.538 272.875 112.599 272.885 112.657 272.908C112.714 272.93 112.767 272.964 112.811 273.007C112.856 273.05 112.891 273.102 112.915 273.159C112.983 273.313 119.136 287.997 112.915 302.913C112.867 302.991 112.798 303.054 112.716 303.093C112.634 303.132 112.542 303.147 112.451 303.136Z" fill="#D4C5FF"/>
<path d="M129.018 323.133C128.929 323.131 128.842 323.104 128.767 323.056C128.665 322.989 128.594 322.884 128.569 322.765C128.543 322.645 128.566 322.521 128.632 322.418C133.828 314.403 135.786 304.714 134.109 295.311C134.097 295.252 134.097 295.191 134.109 295.132C134.12 295.073 134.143 295.016 134.176 294.966C134.209 294.916 134.252 294.873 134.302 294.839C134.352 294.805 134.408 294.782 134.467 294.77C134.526 294.757 134.587 294.757 134.646 294.769C134.705 294.78 134.761 294.803 134.811 294.836C134.862 294.869 134.905 294.912 134.939 294.962C134.972 295.012 134.996 295.068 135.008 295.127C136.729 304.767 134.727 314.701 129.405 322.92C129.362 322.985 129.305 323.037 129.238 323.075C129.17 323.112 129.095 323.132 129.018 323.133Z" fill="#D4C5FF"/>
<path d="M239.236 338.116C238.048 337.878 236.873 337.571 235.72 337.199C235.072 336.976 234.435 336.687 233.788 336.464C233.241 336.344 232.739 336.073 232.339 335.682C232.239 335.573 232.181 335.433 232.174 335.286C232.194 335.171 232.253 335.067 232.342 334.992C232.43 334.916 232.541 334.873 232.657 334.87C232.889 334.88 233.117 334.939 233.324 335.044C237.188 336.611 241.285 337.525 245.448 337.749C250.897 338.155 256.76 337.856 261.745 335.431C267.136 332.813 268.952 327.702 268.344 324.06C267.735 320.418 265.011 318.022 261.069 317.539C251.669 316.37 240.637 321.993 234.261 331.228C234.181 331.34 234.061 331.417 233.926 331.442C233.791 331.467 233.651 331.439 233.536 331.364C233.424 331.284 233.348 331.163 233.324 331.027C233.301 330.892 233.332 330.752 233.411 330.639C239.999 321.094 251.428 315.288 261.204 316.506C265.648 317.056 268.701 319.819 269.377 323.886C270.189 328.794 267.233 333.924 262.199 336.368C257.62 338.59 252.346 339.111 247.322 338.928C244.731 338.863 242.148 338.611 239.594 338.174L239.236 338.116Z" fill="#D4C5FF"/>
<path d="M237.072 334.242C236.968 334.222 236.872 334.169 236.798 334.093C236.724 334.016 236.676 333.918 236.659 333.813C236.642 333.708 236.658 333.6 236.704 333.504C236.751 333.408 236.825 333.329 236.918 333.276C247.042 327.393 265.378 322.65 265.562 322.601C265.628 322.584 265.697 322.58 265.766 322.59C265.834 322.6 265.899 322.623 265.958 322.658C266.018 322.693 266.069 322.739 266.111 322.794C266.152 322.849 266.182 322.912 266.199 322.978C266.216 323.045 266.22 323.114 266.21 323.182C266.201 323.25 266.178 323.316 266.143 323.375C266.108 323.434 266.062 323.486 266.007 323.527C265.952 323.569 265.889 323.599 265.822 323.616C265.639 323.664 247.467 328.359 237.44 334.175C237.33 334.244 237.199 334.268 237.072 334.242Z" fill="#D4C5FF"/>
<path d="M265.03 329.654C264.962 329.635 264.897 329.606 264.837 329.567L259.041 325.355C258.985 325.316 258.937 325.265 258.901 325.207C258.865 325.149 258.841 325.085 258.83 325.017C258.819 324.95 258.822 324.881 258.838 324.814C258.854 324.748 258.884 324.685 258.925 324.63C259.006 324.52 259.128 324.445 259.263 324.424C259.399 324.402 259.538 324.435 259.649 324.514L265.446 328.727C265.502 328.766 265.549 328.816 265.585 328.874C265.622 328.932 265.646 328.997 265.657 329.064C265.667 329.132 265.665 329.201 265.648 329.267C265.632 329.334 265.602 329.396 265.562 329.451C265.502 329.533 265.42 329.595 265.326 329.631C265.232 329.667 265.129 329.675 265.03 329.654Z" fill="#D4C5FF"/>
<path d="M259.021 333.353C258.935 333.334 258.856 333.295 258.789 333.237L252.114 327.615C252.011 327.524 251.948 327.396 251.937 327.259C251.926 327.123 251.969 326.987 252.056 326.881C252.099 326.828 252.153 326.784 252.214 326.752C252.275 326.72 252.342 326.701 252.41 326.696C252.479 326.691 252.548 326.699 252.613 326.721C252.678 326.743 252.738 326.777 252.79 326.823L259.456 332.445C259.562 332.534 259.629 332.661 259.641 332.798C259.654 332.936 259.612 333.073 259.523 333.179C259.463 333.252 259.385 333.306 259.296 333.337C259.208 333.367 259.113 333.373 259.021 333.353Z" fill="#D4C5FF"/>
<path d="M252.519 335.749C252.439 335.728 252.364 335.692 252.297 335.643L245.535 329.982C245.428 329.892 245.362 329.764 245.35 329.625C245.338 329.487 245.382 329.349 245.472 329.243C245.561 329.137 245.69 329.07 245.828 329.059C245.967 329.047 246.104 329.091 246.211 329.18L252.915 334.841C252.968 334.885 253.012 334.939 253.044 335C253.075 335.061 253.095 335.128 253.1 335.196C253.105 335.265 253.097 335.334 253.075 335.399C253.053 335.464 253.019 335.524 252.973 335.576C252.918 335.641 252.848 335.691 252.769 335.721C252.689 335.751 252.603 335.761 252.519 335.749Z" fill="#D4C5FF"/>
<path d="M245.128 335.517C245.045 335.498 244.966 335.461 244.897 335.411L240.887 332.02C240.835 331.977 240.792 331.924 240.76 331.864C240.728 331.805 240.709 331.739 240.702 331.672C240.696 331.604 240.703 331.536 240.723 331.472C240.744 331.407 240.776 331.347 240.82 331.295C240.908 331.189 241.035 331.122 241.173 331.11C241.311 331.097 241.448 331.139 241.554 331.228L245.563 334.609C245.669 334.697 245.736 334.824 245.749 334.962C245.762 335.1 245.719 335.237 245.631 335.343C245.571 335.415 245.493 335.47 245.404 335.5C245.315 335.531 245.22 335.537 245.128 335.517Z" fill="#D4C5FF"/>
<path d="M255.659 326.552C255.524 326.52 255.407 326.436 255.333 326.319C255.259 326.202 255.234 326.06 255.263 325.924L256.625 319.674C256.639 319.608 256.665 319.545 256.703 319.49C256.742 319.434 256.79 319.386 256.847 319.349C256.903 319.313 256.967 319.287 257.033 319.275C257.099 319.263 257.168 319.264 257.234 319.278C257.368 319.308 257.485 319.39 257.559 319.506C257.633 319.621 257.658 319.762 257.63 319.896L256.258 326.147C256.232 326.28 256.155 326.397 256.042 326.473C255.93 326.55 255.792 326.578 255.659 326.552Z" fill="#D4C5FF"/>
<path d="M248.781 328.929C248.715 328.913 248.652 328.884 248.597 328.844C248.542 328.804 248.496 328.753 248.46 328.694C248.425 328.636 248.402 328.571 248.393 328.503C248.383 328.436 248.387 328.367 248.404 328.301L249.989 321.877C250.002 321.809 250.029 321.744 250.069 321.687C250.108 321.631 250.159 321.582 250.218 321.546C250.277 321.51 250.343 321.486 250.411 321.477C250.48 321.467 250.55 321.472 250.616 321.49C250.683 321.507 250.746 321.537 250.801 321.578C250.856 321.62 250.903 321.671 250.938 321.731C250.973 321.79 250.996 321.855 251.005 321.924C251.015 321.992 251.011 322.061 250.993 322.128L249.409 328.542C249.394 328.61 249.366 328.673 249.326 328.729C249.286 328.786 249.236 328.833 249.177 328.869C249.118 328.905 249.053 328.929 248.985 328.939C248.917 328.95 248.848 328.946 248.781 328.929Z" fill="#D4C5FF"/>
<path d="M243.293 331.151C243.159 331.121 243.042 331.039 242.968 330.923C242.894 330.807 242.868 330.667 242.897 330.532L244.153 324.736C244.183 324.601 244.265 324.484 244.38 324.408C244.496 324.332 244.636 324.304 244.771 324.33C244.908 324.36 245.027 324.443 245.103 324.561C245.179 324.678 245.206 324.821 245.177 324.958L243.912 330.755C243.882 330.889 243.8 331.006 243.684 331.08C243.568 331.154 243.428 331.179 243.293 331.151Z" fill="#D4C5FF"/>
<path d="M227.894 226.42C224.465 226.42 215.49 227.801 206.139 240.592C189.716 263.005 195.724 293.59 196.604 297.59L202.303 300.15C202.014 288.084 203.637 280.558 207.81 274.423C212.746 267.159 219.403 261.005 224.764 256.068C227.469 253.566 229.797 251.412 231.459 249.547C239.188 240.901 240.337 234.197 235.149 229.048C233.176 227.24 230.568 226.285 227.894 226.391M227.894 225.425C230.814 225.306 233.662 226.348 235.816 228.323C241.387 233.855 240.173 241.127 232.174 250.137C227.121 255.817 215.934 264.145 208.602 274.926C204.081 281.563 202.883 289.9 203.298 301.618L195.782 298.237C195.782 298.237 187.407 264.541 205.366 239.964C212.978 229.54 221.441 225.396 227.894 225.396V225.425Z" fill="#D4C5FF"/>
<path d="M197.975 288.663C198.12 288.663 198.26 288.607 198.365 288.506C198.469 288.405 198.53 288.267 198.535 288.122C199.018 253.972 233.314 230.748 233.69 230.526C233.752 230.487 233.806 230.437 233.848 230.378C233.89 230.319 233.92 230.251 233.936 230.18C233.953 230.11 233.955 230.036 233.942 229.964C233.93 229.893 233.903 229.824 233.864 229.763C233.783 229.641 233.658 229.556 233.516 229.526C233.373 229.495 233.225 229.521 233.101 229.598C232.753 229.821 197.917 253.383 197.424 288.103C197.423 288.176 197.436 288.249 197.464 288.317C197.491 288.385 197.531 288.446 197.582 288.499C197.634 288.551 197.695 288.592 197.762 288.62C197.83 288.649 197.902 288.663 197.975 288.663Z" fill="#D4C5FF"/>
<path d="M226.261 236.119H226.377C226.448 236.104 226.516 236.076 226.576 236.034C226.636 235.993 226.687 235.941 226.726 235.88C226.766 235.818 226.793 235.75 226.806 235.679C226.819 235.607 226.818 235.534 226.802 235.462L225.372 228.7C225.357 228.629 225.328 228.561 225.287 228.501C225.246 228.441 225.193 228.39 225.132 228.351C225.071 228.311 225.003 228.284 224.931 228.271C224.86 228.258 224.786 228.259 224.715 228.275C224.573 228.307 224.449 228.394 224.369 228.517C224.29 228.64 224.261 228.789 224.29 228.932L225.72 235.694C225.749 235.816 225.818 235.924 225.916 236.002C226.014 236.079 226.136 236.12 226.261 236.119Z" fill="#D4C5FF"/>
<path d="M232.735 241.095C232.854 241.096 232.971 241.057 233.067 240.986C233.163 240.915 233.233 240.814 233.266 240.699C233.305 240.557 233.286 240.405 233.214 240.277C233.141 240.148 233.021 240.054 232.88 240.013L224.05 237.53C223.908 237.492 223.756 237.511 223.628 237.583C223.499 237.655 223.405 237.775 223.364 237.917C223.345 237.987 223.34 238.059 223.349 238.131C223.358 238.203 223.381 238.272 223.417 238.335C223.453 238.398 223.501 238.453 223.558 238.497C223.615 238.541 223.681 238.574 223.75 238.593L232.58 241.076C232.63 241.091 232.682 241.098 232.735 241.095Z" fill="#D4C5FF"/>
<path d="M219.199 242.805H219.354C219.424 242.785 219.489 242.751 219.546 242.706C219.603 242.66 219.65 242.604 219.685 242.541C219.72 242.477 219.742 242.407 219.75 242.334C219.758 242.262 219.751 242.189 219.73 242.119L217.248 233.309C217.207 233.169 217.114 233.051 216.988 232.979C216.862 232.907 216.712 232.886 216.571 232.922C216.43 232.963 216.31 233.057 216.237 233.186C216.165 233.314 216.146 233.466 216.185 233.608L218.668 242.418C218.706 242.53 218.777 242.627 218.872 242.696C218.967 242.765 219.082 242.803 219.199 242.805Z" fill="#D4C5FF"/>
<path d="M228.02 249.287C228.155 249.292 228.288 249.247 228.392 249.161C228.496 249.075 228.565 248.953 228.585 248.819C228.606 248.685 228.576 248.549 228.502 248.435C228.428 248.322 228.315 248.24 228.184 248.205L216.901 244.814C216.829 244.786 216.753 244.774 216.677 244.777C216.601 244.781 216.527 244.8 216.458 244.834C216.39 244.867 216.329 244.915 216.28 244.973C216.231 245.031 216.195 245.099 216.173 245.172C216.152 245.246 216.146 245.322 216.156 245.398C216.165 245.473 216.191 245.546 216.23 245.611C216.269 245.677 216.322 245.733 216.384 245.777C216.446 245.821 216.517 245.852 216.591 245.867L227.865 249.258C227.915 249.277 227.967 249.287 228.02 249.287Z" fill="#D4C5FF"/>
<path d="M212.891 250.051H213.084C213.22 249.997 213.33 249.892 213.389 249.758C213.449 249.625 213.454 249.473 213.403 249.336L209.8 239.675C209.749 239.538 209.645 239.427 209.512 239.367C209.379 239.306 209.227 239.301 209.09 239.352C208.953 239.403 208.842 239.507 208.781 239.64C208.72 239.773 208.715 239.925 208.766 240.062L212.37 249.722C212.414 249.823 212.487 249.908 212.58 249.967C212.673 250.025 212.781 250.054 212.891 250.051Z" fill="#D4C5FF"/>
<path d="M222.253 254.282C222.392 254.289 222.529 254.242 222.636 254.152C222.742 254.061 222.81 253.934 222.826 253.795C222.842 253.656 222.805 253.517 222.722 253.404C222.639 253.292 222.516 253.216 222.379 253.19L212.109 250.679C212.039 250.662 211.966 250.658 211.894 250.67C211.823 250.681 211.754 250.706 211.692 250.744C211.63 250.781 211.576 250.831 211.533 250.889C211.491 250.948 211.46 251.014 211.443 251.084C211.426 251.155 211.422 251.228 211.434 251.3C211.445 251.371 211.47 251.44 211.508 251.502C211.545 251.564 211.595 251.618 211.653 251.66C211.712 251.703 211.778 251.734 211.848 251.751L222.118 254.224L222.253 254.282Z" fill="#D4C5FF"/>
<path d="M207.917 256.378C208.01 256.375 208.103 256.352 208.187 256.31C208.314 256.237 208.407 256.117 208.447 255.977C208.486 255.836 208.47 255.685 208.4 255.557L204.207 247.905C204.181 247.828 204.138 247.756 204.081 247.697C204.025 247.638 203.956 247.591 203.879 247.561C203.803 247.532 203.721 247.519 203.639 247.524C203.557 247.529 203.477 247.553 203.405 247.592C203.334 247.632 203.271 247.687 203.223 247.753C203.174 247.819 203.141 247.895 203.126 247.976C203.11 248.057 203.112 248.14 203.132 248.219C203.152 248.299 203.189 248.373 203.241 248.437L207.443 256.088C207.489 256.174 207.557 256.246 207.641 256.297C207.724 256.348 207.819 256.376 207.917 256.378Z" fill="#D4C5FF"/>
<path d="M215.606 260.068C215.742 260.069 215.874 260.019 215.976 259.928C216.078 259.837 216.142 259.711 216.157 259.576C216.17 259.43 216.126 259.285 216.034 259.171C215.942 259.057 215.809 258.984 215.664 258.967L207.22 258.098C207.075 258.084 206.93 258.128 206.816 258.22C206.702 258.312 206.629 258.445 206.612 258.59C206.604 258.663 206.61 258.736 206.631 258.806C206.651 258.876 206.685 258.941 206.731 258.997C206.777 259.054 206.834 259.101 206.898 259.136C206.962 259.17 207.032 259.192 207.105 259.199L215.548 260.068H215.606Z" fill="#D4C5FF"/>
<path d="M204.399 263.237C204.505 263.236 204.609 263.206 204.699 263.15C204.76 263.111 204.812 263.06 204.854 263C204.895 262.941 204.924 262.874 204.939 262.803C204.955 262.732 204.956 262.659 204.943 262.587C204.93 262.516 204.902 262.448 204.863 262.387L200.651 255.808C200.572 255.685 200.447 255.598 200.305 255.566C200.162 255.533 200.012 255.558 199.888 255.634C199.826 255.673 199.772 255.723 199.73 255.782C199.688 255.841 199.658 255.909 199.642 255.98C199.625 256.05 199.623 256.124 199.636 256.196C199.648 256.267 199.675 256.336 199.714 256.397L203.936 262.986C203.985 263.064 204.054 263.128 204.135 263.172C204.216 263.216 204.307 263.238 204.399 263.237Z" fill="#D4C5FF"/>
<path d="M202.999 267.014L209.076 266.888C209.149 266.888 209.221 266.874 209.288 266.845C209.354 266.817 209.415 266.775 209.465 266.723C209.516 266.671 209.555 266.609 209.581 266.541C209.607 266.473 209.619 266.401 209.617 266.328C209.614 266.184 209.555 266.046 209.452 265.945C209.349 265.844 209.211 265.787 209.066 265.787L202.99 265.913C202.917 265.913 202.845 265.927 202.778 265.956C202.711 265.984 202.651 266.026 202.6 266.078C202.55 266.13 202.51 266.192 202.484 266.26C202.458 266.328 202.446 266.4 202.449 266.473C202.451 266.617 202.51 266.755 202.613 266.856C202.716 266.957 202.855 267.014 202.999 267.014Z" fill="#D4C5FF"/>
<path d="M200.903 271.593C201.02 271.591 201.134 271.554 201.231 271.487C201.29 271.444 201.339 271.39 201.377 271.328C201.414 271.266 201.439 271.197 201.45 271.125C201.461 271.053 201.457 270.98 201.439 270.909C201.422 270.839 201.39 270.772 201.347 270.714L197.724 265.758C197.681 265.7 197.627 265.651 197.565 265.613C197.503 265.576 197.434 265.551 197.362 265.54C197.29 265.53 197.217 265.533 197.146 265.551C197.076 265.568 197.01 265.599 196.951 265.642C196.893 265.686 196.844 265.74 196.806 265.802C196.769 265.864 196.744 265.933 196.733 266.005C196.723 266.077 196.726 266.15 196.744 266.22C196.761 266.291 196.792 266.357 196.835 266.415L200.458 271.361C200.507 271.434 200.574 271.493 200.651 271.533C200.729 271.574 200.815 271.594 200.903 271.593Z" fill="#D4C5FF"/>
<path d="M199.802 275.873L204.4 275.564C204.472 275.559 204.543 275.54 204.608 275.508C204.673 275.475 204.731 275.431 204.778 275.376C204.826 275.321 204.862 275.257 204.885 275.189C204.908 275.12 204.917 275.047 204.912 274.975C204.91 274.901 204.892 274.829 204.861 274.763C204.83 274.697 204.785 274.638 204.729 274.59C204.674 274.542 204.609 274.506 204.539 274.484C204.469 274.462 204.396 274.455 204.323 274.463L199.734 274.772C199.599 274.79 199.476 274.856 199.386 274.958C199.296 275.06 199.247 275.191 199.247 275.327C199.247 275.463 199.296 275.594 199.386 275.697C199.476 275.799 199.599 275.865 199.734 275.883L199.802 275.873Z" fill="#D4C5FF"/>
<path d="M192.431 334.271C201.374 339.971 212.175 341.989 222.572 339.903C225.799 339.252 228.916 338.139 231.827 336.6C245.487 329.267 241.246 325.219 238.985 323.635C236.725 322.051 230.687 317.945 229.151 314.255C232.646 316.133 236.323 317.651 240.125 318.785C245.661 320.312 246.82 322.968 252.24 316.1C257.659 309.231 259.62 297.378 259.62 297.378C259.62 297.378 250.414 298.431 245.844 294.711C245.844 294.711 255.283 293.446 258.48 291.407C261.678 289.369 261.456 285.939 262.422 280.104C263.388 274.269 265.204 267.71 262.132 266.879C259.06 266.048 250.8 264.193 238.947 268.686C238.947 268.686 233.585 278.153 233.508 284.857C233.508 284.857 231.122 277.071 234.541 266.551C230.43 266.523 226.353 267.29 222.533 268.811C216.051 271.352 211.762 274.057 210.448 276.288C209.134 278.52 207.125 289.272 209.965 298.276C209.965 298.276 204.468 292.296 204.893 284.751C205.318 277.206 203.212 278.752 200.121 280.104C197.338 281.322 182.625 300.247 185.33 323.142C185.613 325.416 186.399 327.597 187.633 329.528C188.866 331.458 190.515 333.089 192.46 334.3L192.431 334.271Z" fill="#D4C5FF"/>
<path opacity="0.5" d="M192.431 334.271C201.374 339.971 212.175 341.989 222.572 339.903C225.799 339.252 228.916 338.139 231.827 336.6C245.487 329.267 241.246 325.219 238.985 323.635C236.725 322.051 230.687 317.945 229.151 314.255C232.646 316.133 236.323 317.651 240.125 318.785C245.661 320.312 246.82 322.968 252.24 316.1C257.659 309.231 259.62 297.378 259.62 297.378C259.62 297.378 250.414 298.431 245.844 294.711C245.844 294.711 255.283 293.446 258.48 291.407C261.678 289.369 261.456 285.939 262.422 280.104C263.388 274.269 265.204 267.71 262.132 266.879C259.06 266.048 250.8 264.193 238.947 268.686C238.947 268.686 233.585 278.153 233.508 284.857C233.508 284.857 231.122 277.071 234.541 266.551C230.43 266.523 226.353 267.29 222.533 268.811C216.051 271.352 211.762 274.057 210.448 276.288C209.134 278.52 207.125 289.272 209.965 298.276C209.965 298.276 204.468 292.296 204.893 284.751C205.318 277.206 203.212 278.752 200.121 280.104C197.338 281.322 182.625 300.247 185.33 323.142C185.613 325.416 186.399 327.597 187.633 329.528C188.866 331.458 190.515 333.089 192.46 334.3L192.431 334.271Z" fill="#D4C5FF"/>
<path d="M197.009 333.229C197.085 333.228 197.16 333.21 197.227 333.174C197.294 333.139 197.352 333.088 197.396 333.026C230.039 284.172 260.856 269.778 261.156 269.643C261.253 269.584 261.326 269.492 261.36 269.384C261.394 269.276 261.387 269.158 261.341 269.055C261.294 268.951 261.212 268.868 261.108 268.822C261.004 268.775 260.887 268.768 260.779 268.802C260.47 268.947 229.421 283.428 196.623 332.514C196.588 332.564 196.564 332.62 196.552 332.679C196.54 332.738 196.54 332.8 196.551 332.859C196.563 332.918 196.586 332.975 196.62 333.025C196.654 333.075 196.698 333.118 196.748 333.151C196.826 333.201 196.917 333.228 197.009 333.229Z" fill="#D4C5FF"/>
<path d="M251.427 308.806C251.537 308.801 251.641 308.757 251.72 308.682C251.8 308.607 251.851 308.506 251.864 308.397C251.877 308.289 251.85 308.179 251.79 308.087C251.73 307.996 251.639 307.929 251.534 307.898C251.379 307.898 236.164 304.324 225.45 297.33C225.348 297.278 225.231 297.267 225.121 297.296C225.01 297.326 224.915 297.396 224.853 297.491C224.791 297.587 224.766 297.702 224.784 297.815C224.801 297.928 224.86 298.03 224.948 298.103C235.806 305.184 251.186 308.729 251.34 308.797L251.427 308.806Z" fill="#D4C5FF"/>
<path d="M229.392 330.031C229.492 330.033 229.589 330.001 229.67 329.942C229.75 329.883 229.808 329.798 229.836 329.702C229.869 329.586 229.855 329.461 229.798 329.354C229.74 329.248 229.643 329.168 229.527 329.132C229.411 329.132 217.239 325.326 207.472 318.409C207.422 318.375 207.367 318.351 207.308 318.338C207.249 318.325 207.188 318.324 207.129 318.335C207.07 318.346 207.013 318.368 206.963 318.401C206.912 318.433 206.868 318.476 206.834 318.525C206.8 318.575 206.776 318.63 206.763 318.689C206.75 318.748 206.749 318.809 206.76 318.868C206.771 318.927 206.793 318.984 206.826 319.034C206.858 319.085 206.901 319.128 206.95 319.163C216.833 326.157 229.169 329.973 229.256 330.011L229.392 330.031Z" fill="#D4C5FF"/>
<path d="M246.867 282.781C250.784 282.657 254.658 281.93 258.354 280.627C258.468 280.584 258.56 280.499 258.611 280.388C258.662 280.278 258.667 280.151 258.624 280.037C258.582 279.923 258.496 279.831 258.386 279.78C258.275 279.729 258.149 279.725 258.035 279.767C257.948 279.767 249.109 282.984 242.829 281.39C242.771 281.374 242.711 281.37 242.652 281.378C242.592 281.386 242.535 281.406 242.484 281.437C242.432 281.467 242.388 281.508 242.352 281.557C242.317 281.605 242.292 281.66 242.278 281.718C242.249 281.836 242.267 281.961 242.328 282.066C242.39 282.17 242.49 282.247 242.607 282.279C244.001 282.618 245.432 282.787 246.867 282.781Z" fill="#D4C5FF"/>
<path d="M220.059 303.136H220.204C220.263 303.113 220.316 303.079 220.361 303.036C220.407 302.992 220.442 302.94 220.467 302.882C220.491 302.824 220.504 302.762 220.503 302.7C220.503 302.637 220.49 302.575 220.465 302.517C214.408 287.959 220.407 273.642 220.465 273.536C220.492 273.479 220.506 273.417 220.508 273.355C220.51 273.292 220.498 273.23 220.475 273.171C220.451 273.113 220.416 273.061 220.371 273.017C220.326 272.973 220.272 272.939 220.214 272.917C220.157 272.892 220.097 272.878 220.035 272.876C219.973 272.875 219.911 272.885 219.854 272.908C219.796 272.93 219.744 272.964 219.699 273.007C219.655 273.05 219.62 273.102 219.595 273.159C219.528 273.313 213.374 287.997 219.595 302.913C219.643 302.991 219.712 303.054 219.795 303.093C219.877 303.132 219.969 303.147 220.059 303.136Z" fill="#D4C5FF"/>
<path d="M203.492 323.133C203.581 323.131 203.668 323.104 203.743 323.056C203.845 322.989 203.917 322.884 203.942 322.765C203.967 322.645 203.944 322.521 203.879 322.418C198.683 314.403 196.725 304.714 198.401 295.311C198.413 295.252 198.413 295.191 198.402 295.132C198.391 295.073 198.368 295.016 198.334 294.966C198.301 294.916 198.258 294.873 198.209 294.839C198.159 294.805 198.103 294.782 198.044 294.77C197.985 294.757 197.924 294.757 197.865 294.769C197.806 294.78 197.749 294.803 197.699 294.836C197.649 294.869 197.606 294.912 197.572 294.962C197.538 295.012 197.515 295.068 197.503 295.127C195.781 304.767 197.784 314.701 203.106 322.92C203.148 322.985 203.205 323.037 203.273 323.075C203.34 323.112 203.415 323.132 203.492 323.133Z" fill="#D4C5FF"/>
<g opacity="0.5">
<path d="M291.866 185.952C291.695 185.867 291.564 185.718 291.501 185.538C291.438 185.358 291.448 185.16 291.528 184.986L291.808 184.329C292.17 183.504 292.22 182.576 291.95 181.716C291.68 180.857 291.108 180.124 290.34 179.654L289.731 179.267C289.585 179.163 289.482 179.009 289.441 178.834C289.4 178.659 289.423 178.475 289.506 178.317C289.59 178.158 289.728 178.034 289.896 177.969C290.063 177.904 290.248 177.902 290.417 177.963L291.074 178.243C291.901 178.605 292.83 178.656 293.691 178.386C294.553 178.116 295.287 177.544 295.759 176.775L296.136 176.166C296.234 176.009 296.389 175.894 296.568 175.846C296.747 175.797 296.938 175.819 297.102 175.905C297.273 175.991 297.404 176.139 297.467 176.32C297.53 176.5 297.521 176.698 297.44 176.871L297.16 177.528C296.8 178.355 296.751 179.284 297.02 180.145C297.29 181.006 297.861 181.74 298.629 182.214L299.237 182.59C299.383 182.695 299.486 182.849 299.527 183.024C299.569 183.198 299.545 183.382 299.462 183.541C299.378 183.7 299.24 183.823 299.073 183.888C298.905 183.953 298.72 183.956 298.551 183.895L297.894 183.614C297.069 183.255 296.141 183.206 295.282 183.476C294.423 183.745 293.691 184.316 293.219 185.083L292.832 185.692C292.734 185.849 292.58 185.964 292.4 186.012C292.221 186.06 292.03 186.039 291.866 185.952ZM292.784 180.05C293.276 180.827 293.556 181.72 293.595 182.639C294.373 182.147 295.265 181.867 296.184 181.827C295.691 181.051 295.411 180.158 295.373 179.238C294.597 179.735 293.704 180.018 292.784 180.059V180.05Z" fill="#D4C5FF"/>
</g>
<path d="M3.26659 183.788C3.16854 183.797 3.07096 183.767 2.99377 183.706C2.91658 183.645 2.86558 183.557 2.85118 183.46L2.78356 183.054C2.70715 182.581 2.46317 182.15 2.0961 181.842C1.72903 181.533 1.2633 181.367 0.783815 181.373H0.39739C0.297176 181.373 0.20058 181.336 0.127079 181.268C0.0535786 181.199 0.00863483 181.106 0.0013024 181.006C-0.00713741 180.908 0.0221509 180.81 0.0831881 180.733C0.144225 180.656 0.232416 180.605 0.329766 180.591L0.706529 180.523C1.17993 180.447 1.61011 180.203 1.91867 179.836C2.22722 179.468 2.3936 179.003 2.38747 178.523V178.224C2.387 178.125 2.42338 178.03 2.4895 177.957C2.55561 177.883 2.6467 177.837 2.74491 177.828C2.84408 177.819 2.94287 177.848 3.02164 177.909C3.1004 177.97 3.15336 178.058 3.16998 178.156L3.22794 178.533C3.31692 178.997 3.56758 179.415 3.93546 179.712C4.30333 180.009 4.76459 180.167 5.23734 180.156H5.61411C5.71013 180.16 5.80132 180.199 5.87069 180.266C5.94006 180.332 5.98288 180.422 5.99115 180.517C5.99943 180.613 5.9726 180.709 5.91567 180.786C5.85875 180.864 5.7756 180.918 5.68174 180.938L5.30497 180.996C4.82143 181.074 4.38318 181.326 4.07335 181.706C3.76352 182.085 3.60363 182.565 3.62402 183.054V183.431C3.6245 183.53 3.58811 183.625 3.522 183.698C3.45588 183.771 3.3648 183.817 3.26659 183.827V183.788ZM1.99139 180.89C2.43794 181.108 2.81813 181.442 3.0927 181.856C3.3107 181.407 3.64407 181.023 4.05876 180.745C3.60679 180.531 3.22243 180.197 2.94779 179.779C2.7348 180.224 2.40401 180.601 1.99139 180.871V180.89Z" fill="#D4C5FF"/>
<g opacity="0.5">
<path d="M28.4991 237.781C28.3475 237.795 28.1963 237.751 28.0761 237.658C27.9559 237.564 27.8757 237.429 27.8518 237.278L27.7552 236.709C27.6411 235.988 27.2702 235.333 26.7109 234.864C26.1516 234.395 25.4417 234.144 24.7121 234.158H24.1325C23.9736 234.171 23.8162 234.12 23.6948 234.017C23.5734 233.914 23.498 233.766 23.4852 233.607C23.4724 233.449 23.5232 233.291 23.6265 233.17C23.7298 233.048 23.877 232.973 24.0359 232.96L24.6058 232.873C25.3257 232.757 25.9797 232.386 26.4481 231.827C26.9165 231.268 27.1679 230.559 27.1562 229.83V229.251C27.1556 229.099 27.2117 228.952 27.3135 228.839C27.4154 228.727 27.5557 228.656 27.7069 228.642C27.8568 228.63 28.0056 228.676 28.1238 228.769C28.2419 228.862 28.3207 228.996 28.3445 229.144L28.4411 229.714C28.5442 230.443 28.9088 231.109 29.4669 231.589C30.025 232.069 30.7385 232.33 31.4745 232.323H32.0542C32.2056 232.32 32.3524 232.375 32.4639 232.478C32.5755 232.581 32.6432 232.722 32.6531 232.873C32.6673 233.022 32.6243 233.171 32.5328 233.289C32.4413 233.408 32.3082 233.487 32.1604 233.511L31.5808 233.607C30.8626 233.723 30.2099 234.093 29.7417 234.65C29.2736 235.207 29.0211 235.913 29.0304 236.641V237.221C29.0335 237.371 28.9796 237.518 28.8792 237.631C28.7789 237.744 28.6397 237.815 28.4894 237.829L28.4991 237.781ZM26.5669 233.356C27.2448 233.665 27.8259 234.153 28.2479 234.767C28.5632 234.093 29.0495 233.513 29.6583 233.086C28.9845 232.77 28.4049 232.284 27.9774 231.675C27.6599 232.354 27.1661 232.934 26.5476 233.356H26.5669Z" fill="#D4C5FF"/>
</g>
<g opacity="0.5">
<path d="M26.1325 202.772C25.6476 202.573 25.2325 202.236 24.9397 201.801C24.6469 201.367 24.4897 200.855 24.4878 200.331C24.486 199.807 24.6396 199.295 24.9293 198.858C25.219 198.422 25.6318 198.081 26.1153 197.879C26.5987 197.677 27.1312 197.623 27.6453 197.725C28.1594 197.826 28.6319 198.077 29.003 198.447C29.3742 198.816 29.6272 199.288 29.7302 199.802C29.8331 200.315 29.7813 200.848 29.5813 201.332C29.45 201.654 29.2564 201.946 29.0118 202.192C28.7672 202.439 28.4763 202.635 28.1559 202.768C27.8354 202.902 27.4918 202.971 27.1445 202.972C26.7973 202.972 26.4534 202.904 26.1325 202.772ZM27.8328 198.647C27.5018 198.507 27.1367 198.468 26.7837 198.535C26.4307 198.603 26.1056 198.773 25.8497 199.026C25.5937 199.278 25.4184 199.6 25.3458 199.952C25.2733 200.304 25.3068 200.67 25.4422 201.003C25.5775 201.336 25.8086 201.621 26.1061 201.823C26.4037 202.024 26.7544 202.133 27.1138 202.135C27.4732 202.137 27.8251 202.033 28.1251 201.835C28.425 201.637 28.6595 201.354 28.7988 201.023C28.98 200.579 28.9804 200.082 28.7999 199.638C28.6194 199.194 28.2722 198.838 27.8328 198.647Z" fill="#D4C5FF"/>
</g>
<g opacity="0.5">
<path d="M276.923 227.01C276.621 226.581 276.454 226.073 276.441 225.549C276.429 225.025 276.572 224.51 276.853 224.068C277.134 223.625 277.54 223.276 278.019 223.065C278.499 222.854 279.03 222.789 279.546 222.88C280.062 222.971 280.539 223.212 280.918 223.575C281.296 223.937 281.559 224.403 281.672 224.915C281.785 225.426 281.744 225.96 281.554 226.448C281.364 226.936 281.033 227.357 280.603 227.657C280.319 227.857 279.999 227.999 279.66 228.074C279.321 228.15 278.97 228.158 278.628 228.098C278.286 228.038 277.96 227.911 277.667 227.724C277.374 227.537 277.121 227.294 276.923 227.01ZM280.574 224.45C280.368 224.156 280.079 223.93 279.744 223.8C279.409 223.67 279.043 223.642 278.693 223.72C278.342 223.799 278.023 223.979 277.775 224.238C277.527 224.498 277.361 224.825 277.299 225.179C277.237 225.533 277.281 225.897 277.426 226.226C277.571 226.554 277.81 226.833 278.113 227.025C278.416 227.218 278.769 227.317 279.128 227.309C279.487 227.301 279.836 227.187 280.13 226.981C280.325 226.844 280.492 226.67 280.62 226.468C280.748 226.267 280.835 226.042 280.877 225.807C280.918 225.572 280.912 225.331 280.861 225.098C280.809 224.865 280.711 224.645 280.574 224.45Z" fill="#D4C5FF"/>
</g>
<g opacity="0.5">
<path d="M314.636 173.568C314.338 173.14 314.173 172.634 314.162 172.113C314.151 171.592 314.295 171.079 314.576 170.64C314.856 170.201 315.26 169.854 315.737 169.644C316.214 169.434 316.743 169.37 317.256 169.461C317.769 169.551 318.244 169.791 318.621 170.151C318.998 170.511 319.26 170.975 319.373 171.484C319.487 171.992 319.447 172.523 319.259 173.009C319.071 173.495 318.743 173.915 318.317 174.215C318.033 174.415 317.713 174.557 317.374 174.632C317.035 174.708 316.684 174.716 316.342 174.656C316 174.596 315.674 174.469 315.381 174.282C315.088 174.095 314.835 173.852 314.636 173.568ZM318.288 171.008C318.081 170.712 317.79 170.484 317.454 170.353C317.117 170.222 316.749 170.195 316.396 170.273C316.043 170.352 315.722 170.533 315.472 170.794C315.223 171.055 315.056 171.385 314.994 171.741C314.932 172.097 314.977 172.463 315.123 172.793C315.269 173.124 315.51 173.404 315.815 173.597C316.12 173.791 316.475 173.889 316.837 173.881C317.198 173.872 317.548 173.756 317.844 173.548C318.239 173.27 318.508 172.846 318.591 172.37C318.675 171.894 318.566 171.404 318.288 171.008Z" fill="#D4C5FF"/>
</g>
<path d="M301.759 203.883C301.676 203.838 301.614 203.762 301.585 203.672C301.556 203.582 301.563 203.485 301.604 203.4L302.155 202.347C302.2 202.264 302.276 202.202 302.366 202.173C302.456 202.144 302.553 202.151 302.638 202.192C302.721 202.237 302.783 202.313 302.81 202.404C302.837 202.494 302.828 202.592 302.783 202.675L302.232 203.728C302.212 203.77 302.183 203.807 302.148 203.837C302.113 203.868 302.072 203.891 302.028 203.905C301.984 203.92 301.938 203.925 301.891 203.921C301.845 203.917 301.8 203.904 301.759 203.883Z" fill="#D4C5FF"/>
<path d="M300.793 204.182L299.74 203.622C299.698 203.602 299.661 203.573 299.631 203.538C299.601 203.502 299.578 203.461 299.564 203.417C299.551 203.372 299.546 203.326 299.552 203.28C299.557 203.233 299.572 203.189 299.595 203.149C299.64 203.066 299.716 203.003 299.806 202.974C299.895 202.946 299.993 202.953 300.078 202.994L301.131 203.545C301.214 203.59 301.276 203.666 301.303 203.756C301.33 203.847 301.321 203.944 301.276 204.028C301.231 204.111 301.155 204.173 301.065 204.202C300.975 204.231 300.878 204.224 300.793 204.182Z" fill="#D4C5FF"/>
<path d="M300.513 206.24C300.431 206.194 300.368 206.119 300.339 206.029C300.311 205.939 300.318 205.841 300.359 205.757L300.919 204.704C300.94 204.662 300.968 204.625 301.004 204.594C301.039 204.564 301.08 204.542 301.124 204.528C301.169 204.514 301.216 204.51 301.262 204.515C301.308 204.521 301.352 204.535 301.393 204.559C301.476 204.604 301.538 204.679 301.567 204.769C301.595 204.859 301.588 204.957 301.547 205.042L300.996 206.095C300.951 206.178 300.875 206.24 300.785 206.267C300.694 206.294 300.597 206.284 300.513 206.24Z" fill="#D4C5FF"/>
<path d="M303.17 205.418L302.117 204.868C302.075 204.846 302.038 204.817 302.007 204.781C301.977 204.744 301.954 204.702 301.941 204.657C301.927 204.612 301.923 204.565 301.928 204.518C301.934 204.471 301.949 204.426 301.972 204.385C301.992 204.343 302.021 204.306 302.056 204.276C302.092 204.245 302.133 204.223 302.177 204.209C302.222 204.196 302.268 204.191 302.315 204.197C302.361 204.202 302.405 204.216 302.445 204.24L303.498 204.79C303.581 204.836 303.644 204.911 303.673 205.001C303.701 205.091 303.694 205.189 303.653 205.273C303.608 205.357 303.532 205.418 303.441 205.446C303.351 205.473 303.253 205.463 303.17 205.418Z" fill="#D4C5FF"/>
<path d="M47.8209 210.761C47.7291 210.766 47.6388 210.736 47.5687 210.677C47.4985 210.617 47.4539 210.533 47.4441 210.442L47.3475 209.273C47.3398 209.181 47.3691 209.089 47.4289 209.019C47.4887 208.948 47.5741 208.904 47.6663 208.896C47.7586 208.889 47.8501 208.918 47.9207 208.978C47.9914 209.037 48.0354 209.123 48.0431 209.215L48.1397 210.384C48.1437 210.43 48.1385 210.476 48.1246 210.519C48.1107 210.563 48.0883 210.604 48.0587 210.639C48.0291 210.674 47.9928 210.703 47.952 210.723C47.9112 210.744 47.8666 210.757 47.8209 210.761Z" fill="#D4C5FF"/>
<path d="M47.1839 211.514L46.0246 211.61C45.9789 211.615 45.9328 211.61 45.8889 211.597C45.845 211.583 45.8042 211.562 45.7688 211.532C45.7333 211.503 45.704 211.467 45.6824 211.427C45.6608 211.386 45.6474 211.342 45.643 211.296C45.6386 211.251 45.6432 211.205 45.6565 211.161C45.6699 211.117 45.6918 211.076 45.7209 211.041C45.7501 211.005 45.786 210.976 45.8264 210.954C45.8669 210.933 45.9113 210.919 45.957 210.915L47.1259 210.818C47.1718 210.813 47.2184 210.817 47.2627 210.83C47.307 210.844 47.3481 210.866 47.3834 210.896C47.4187 210.926 47.4475 210.963 47.468 211.004C47.4885 211.046 47.5003 211.091 47.5027 211.137C47.5066 211.183 47.5015 211.229 47.4876 211.272C47.4737 211.316 47.4513 211.357 47.4217 211.392C47.392 211.427 47.3558 211.456 47.315 211.476C47.2741 211.497 47.2296 211.51 47.1839 211.514Z" fill="#D4C5FF"/>
<path d="M48.0527 213.388C47.9598 213.394 47.8683 213.364 47.7966 213.305C47.7249 213.246 47.6783 213.162 47.6662 213.069L47.5696 211.9C47.5619 211.808 47.5912 211.717 47.651 211.646C47.7108 211.575 47.7962 211.531 47.8884 211.524C47.9807 211.516 48.0722 211.545 48.1428 211.605C48.2135 211.665 48.2575 211.75 48.2652 211.842L48.3715 213.002C48.3771 213.095 48.3474 213.186 48.2882 213.258C48.229 213.329 48.1449 213.376 48.0527 213.388Z" fill="#D4C5FF"/>
<path d="M49.8303 211.292L48.6711 211.389C48.6254 211.393 48.5793 211.388 48.5354 211.375C48.4915 211.362 48.4507 211.34 48.4153 211.311C48.3798 211.281 48.3505 211.246 48.3289 211.205C48.3073 211.165 48.2939 211.12 48.2895 211.075C48.285 211.029 48.2896 210.983 48.303 210.939C48.3164 210.895 48.3383 210.854 48.3674 210.819C48.3966 210.783 48.4324 210.754 48.4729 210.732C48.5134 210.711 48.5578 210.697 48.6035 210.693L49.7724 210.587C49.8181 210.583 49.8641 210.588 49.9078 210.602C49.9516 210.616 49.9921 210.638 50.0271 210.668C50.0621 210.697 50.0909 210.734 50.1119 210.774C50.1328 210.815 50.1455 210.86 50.1491 210.906C50.1573 210.999 50.1284 211.092 50.0688 211.164C50.0091 211.236 49.9235 211.282 49.8303 211.292Z" fill="#D4C5FF"/>
<path d="M293.374 156.458C293.286 156.411 293.219 156.331 293.188 156.235C293.158 156.14 293.165 156.036 293.21 155.946L293.789 154.845C293.836 154.758 293.914 154.692 294.009 154.663C294.103 154.634 294.205 154.644 294.292 154.69C294.379 154.736 294.444 154.815 294.473 154.909C294.502 155.004 294.492 155.105 294.446 155.193L293.876 156.294C293.829 156.38 293.751 156.445 293.658 156.475C293.564 156.506 293.463 156.5 293.374 156.458Z" fill="#D4C5FF"/>
<path d="M292.369 156.767L291.267 156.188C291.224 156.165 291.186 156.135 291.155 156.098C291.123 156.061 291.099 156.018 291.085 155.972C291.07 155.926 291.064 155.877 291.068 155.829C291.072 155.78 291.086 155.733 291.108 155.69C291.13 155.647 291.161 155.609 291.198 155.577C291.235 155.546 291.278 155.522 291.324 155.507C291.37 155.493 291.419 155.487 291.467 155.491C291.515 155.495 291.562 155.508 291.605 155.531L292.707 156.11C292.75 156.133 292.788 156.163 292.82 156.2C292.851 156.237 292.875 156.28 292.89 156.326C292.904 156.372 292.91 156.421 292.906 156.469C292.902 156.518 292.888 156.565 292.866 156.608C292.844 156.651 292.814 156.689 292.777 156.721C292.739 156.752 292.697 156.776 292.65 156.791C292.604 156.805 292.556 156.811 292.507 156.807C292.459 156.803 292.412 156.789 292.369 156.767Z" fill="#D4C5FF"/>
<path d="M292.07 158.903C292.026 158.881 291.988 158.85 291.956 158.812C291.925 158.775 291.901 158.731 291.887 158.684C291.872 158.638 291.867 158.588 291.872 158.54C291.877 158.491 291.892 158.444 291.915 158.401L292.485 157.299C292.537 157.224 292.614 157.169 292.703 157.146C292.792 157.123 292.886 157.134 292.967 157.175C293.049 157.216 293.113 157.286 293.147 157.371C293.181 157.457 293.183 157.551 293.152 157.637L292.572 158.739C292.527 158.827 292.449 158.893 292.355 158.924C292.261 158.954 292.158 158.947 292.07 158.903Z" fill="#D4C5FF"/>
<path d="M294.852 158.072L293.751 157.493C293.708 157.47 293.67 157.439 293.638 157.401C293.607 157.363 293.584 157.32 293.57 157.273C293.555 157.227 293.55 157.178 293.555 157.129C293.559 157.081 293.574 157.033 293.596 156.99C293.619 156.947 293.65 156.909 293.688 156.878C293.726 156.847 293.769 156.823 293.816 156.809C293.862 156.795 293.911 156.79 293.96 156.794C294.008 156.799 294.056 156.813 294.099 156.836L295.2 157.406C295.282 157.455 295.341 157.534 295.367 157.626C295.392 157.718 295.382 157.817 295.338 157.902C295.294 157.986 295.219 158.051 295.129 158.083C295.039 158.114 294.94 158.111 294.852 158.072Z" fill="#D4C5FF"/>
<path d="M26.5865 159.684C26.3999 159.698 26.2154 159.638 26.0728 159.517C25.9301 159.396 25.8405 159.224 25.8233 159.037L25.6301 156.69C25.614 156.594 25.618 156.495 25.642 156.4C25.6659 156.306 25.7092 156.217 25.7691 156.14C25.829 156.063 25.9042 156 25.99 155.953C26.0758 155.907 26.1703 155.879 26.2675 155.871C26.3647 155.863 26.4625 155.875 26.5548 155.906C26.647 155.938 26.7317 155.989 26.8035 156.055C26.8752 156.121 26.9325 156.201 26.9716 156.29C27.0107 156.38 27.0309 156.476 27.0309 156.574L27.2337 158.921C27.2472 159.108 27.1869 159.292 27.0659 159.435C26.9449 159.578 26.7728 159.667 26.5865 159.684Z" fill="#D4C5FF"/>
<path d="M25.3118 161.212L22.9643 161.415C22.8716 161.423 22.7783 161.412 22.6897 161.384C22.6011 161.356 22.5189 161.31 22.448 161.25C22.377 161.19 22.3187 161.116 22.2763 161.034C22.234 160.951 22.2084 160.86 22.2011 160.768C22.1918 160.676 22.201 160.582 22.2282 160.494C22.2554 160.405 22.3 160.323 22.3593 160.252C22.4187 160.181 22.4917 160.122 22.574 160.08C22.6563 160.037 22.7463 160.012 22.8387 160.004L25.1862 159.802C25.3732 159.785 25.5592 159.843 25.7033 159.964C25.8473 160.084 25.9376 160.257 25.9542 160.444C25.9709 160.631 25.9125 160.817 25.7921 160.961C25.6716 161.105 25.4988 161.195 25.3118 161.212Z" fill="#D4C5FF"/>
<path d="M27.0501 164.979C26.9574 164.987 26.8641 164.976 26.7755 164.948C26.6869 164.92 26.6047 164.874 26.5338 164.814C26.4629 164.754 26.4045 164.68 26.3621 164.597C26.3198 164.515 26.2942 164.424 26.2869 164.332L26.084 161.984C26.0747 161.892 26.0839 161.799 26.1111 161.71C26.1383 161.622 26.1829 161.539 26.2423 161.468C26.3017 161.397 26.3747 161.339 26.457 161.296C26.5393 161.254 26.6293 161.228 26.7216 161.221C26.8143 161.213 26.9076 161.223 26.9962 161.252C27.0848 161.28 27.167 161.325 27.2379 161.386C27.3088 161.446 27.3672 161.519 27.4095 161.602C27.4519 161.685 27.4775 161.775 27.4848 161.868L27.6877 164.216C27.7038 164.401 27.6458 164.586 27.5263 164.729C27.4068 164.872 27.2356 164.962 27.0501 164.979Z" fill="#D4C5FF"/>
<path d="M30.6053 160.758L28.2578 160.951C28.162 160.967 28.064 160.963 27.9698 160.939C27.8756 160.915 27.7874 160.873 27.7105 160.813C27.6337 160.754 27.57 160.679 27.5233 160.594C27.4767 160.509 27.4481 160.415 27.4395 160.318C27.4308 160.222 27.4422 160.124 27.4729 160.032C27.5037 159.94 27.5531 159.855 27.6182 159.783C27.6832 159.711 27.7624 159.653 27.8509 159.613C27.9393 159.573 28.0351 159.551 28.1322 159.55L30.4797 159.347C30.5719 159.338 30.665 159.347 30.7536 159.374C30.8421 159.402 30.9244 159.446 30.9955 159.506C31.0665 159.565 31.1251 159.638 31.1676 159.72C31.2101 159.803 31.2357 159.892 31.2429 159.985C31.2522 160.078 31.2431 160.171 31.216 160.26C31.189 160.349 31.1445 160.432 31.0852 160.504C31.0259 160.576 30.953 160.635 30.8707 160.679C30.7883 160.722 30.6981 160.749 30.6053 160.758Z" fill="#D4C5FF"/>
<path d="M227.739 188.975L238.955 177.145L246.787 188.975C237.816 212.994 218.446 231.937 194.149 240.321L175.601 229.696L194.149 221.495C208.789 214.917 220.703 203.362 227.739 188.975Z" fill="#2F0058" fill-opacity="0.6"/>
<path d="M137.857 221.495L148.072 232.169L137.857 240.327C113.56 231.938 94.1835 212.994 85.2128 188.975L94.9028 178.381L104.261 188.975C111.297 203.362 123.217 214.923 137.857 221.495Z" fill="#2F0058" fill-opacity="0.6"/>
<path d="M137.857 77.2881L151.164 86.8803L137.857 96.114C121.863 103.298 109.121 116.424 102.437 132.684L97.0405 137.912L83.8156 132.684C92.0446 106.754 112.212 86.1414 137.857 77.2881Z" fill="#2F0058" fill-opacity="0.6"/>
<path d="M248.184 132.683L238.955 144.378L229.562 132.683C222.879 116.423 210.137 103.298 194.149 96.1135L184.549 86.2615L194.149 77.2876C219.794 86.1414 239.955 106.754 248.184 132.683Z" fill="#2F0058" fill-opacity="0.6"/>
<path d="M277.845 132.685V181.977C277.845 185.843 274.711 188.977 270.845 188.977H216.701C212.86 188.977 209.876 185.733 208.193 182.28C205.652 177.068 200.3 173.477 194.112 173.477C185.462 173.477 178.445 180.488 178.445 189.137C178.445 197.786 185.462 204.804 194.112 204.804C194.132 204.804 194.149 204.82 194.149 204.841V327C194.149 330.866 191.015 334 187.149 334H144.857C140.991 334 137.857 330.866 137.857 327V204.835C137.857 204.818 137.871 204.804 137.888 204.804C146.537 204.804 153.554 197.786 153.554 189.137C153.554 180.488 146.537 173.477 137.888 173.477C131.699 173.477 126.347 177.068 123.806 182.281C122.124 185.733 119.139 188.977 115.299 188.977H61.1548C57.2888 188.977 54.1548 185.843 54.1548 181.977V139.685C54.1548 135.819 57.2889 132.685 61.1548 132.685H121.739C122.009 132.685 122.228 132.915 122.228 133.186C122.228 141.835 129.239 148.852 137.888 148.852C146.537 148.852 153.554 141.835 153.554 133.186C153.554 124.537 146.537 117.526 137.888 117.526C137.871 117.526 137.857 117.512 137.857 117.495V69C137.857 65.134 140.991 62 144.857 62H187.149C191.015 62 194.149 65.134 194.149 69V117.488C194.149 117.509 194.132 117.525 194.112 117.525C185.462 117.525 178.445 124.536 178.445 133.185C178.445 141.835 185.462 148.852 194.112 148.852C202.761 148.852 209.772 141.835 209.772 133.185C209.772 132.915 209.99 132.684 210.261 132.684H277.845C277.845 132.684 277.845 132.685 277.845 132.685Z" fill="#C7B3FF"/>
<path d="M156.405 315.452V217.891C160.176 215.455 163.44 212.299 165.999 208.618C168.561 212.303 171.827 215.463 175.601 217.901V315.452H156.405ZM222.712 170.429C220.334 166.813 217.291 163.672 213.76 161.179C217.521 158.53 220.726 155.145 223.164 151.232H259.297V170.429H222.712ZM72.7029 170.429V151.232H108.836C111.274 155.144 114.479 158.53 118.24 161.179C114.709 163.672 111.666 166.813 109.288 170.429H72.7029ZM166.001 113.709C163.441 110.025 160.176 106.868 156.405 104.432V80.5474H175.601V104.433C171.827 106.87 168.562 110.027 166.001 113.709Z" fill="white" fill-opacity="0.3"/>
<path d="M165.997 173.434C172.143 173.434 177.125 168.452 177.125 162.305C177.125 156.159 172.143 151.177 165.997 151.177C159.851 151.177 154.868 156.159 154.868 162.305C154.868 168.452 159.851 173.434 165.997 173.434Z" fill="#F4E6FF"/>
</svg>
