<svg width="14" height="14" viewBox="0 0 14 14" fill="none" xmlns="http://www.w3.org/2000/svg">
<path d="M9.33311 9.45584L9.33311 4.54418C9.33339 4.35027 9.27875 4.16025 9.17552 3.9961C9.07228 3.83196 8.92467 3.70041 8.74978 3.61668C8.54226 3.51866 8.31138 3.4809 8.08345 3.50772C7.85552 3.53453 7.63971 3.62484 7.46061 3.76834L4.48561 6.22418C4.37441 6.32055 4.28523 6.43971 4.2241 6.57357C4.16298 6.70742 4.13135 6.85286 4.13135 7.00001C4.13135 7.14716 4.16298 7.2926 4.2241 7.42645C4.28523 7.56031 4.37441 7.67947 4.48561 7.77584L7.46061 10.2317C7.63971 10.3752 7.85552 10.4655 8.08345 10.4923C8.31138 10.5191 8.54226 10.4814 8.74978 10.3833C8.92467 10.2996 9.07228 10.1681 9.17552 10.0039C9.27875 9.83977 9.33339 9.64975 9.33311 9.45584Z" fill="white"/>
</svg>
