<svg width="28" height="28" viewBox="0 0 28 28" fill="none" xmlns="http://www.w3.org/2000/svg">
<path d="M23.3333 0C23.1833 0.00227887 23.036 0.0406978 22.904 0.112L6.53334 4.66667C6.2858 4.66667 6.0484 4.765 5.87337 4.94003C5.69834 5.11507 5.6 5.35246 5.6 5.6V17.3227C5.03465 16.9871 4.39072 16.8068 3.73334 16.8C2.99495 16.8 2.27315 17.019 1.65921 17.4292C1.04526 17.8394 0.566752 18.4225 0.284185 19.1046C0.00161758 19.7868 -0.0723149 20.5375 0.0717366 21.2617C0.215788 21.9859 0.571354 22.6511 1.09347 23.1732C1.61559 23.6953 2.2808 24.0509 3.005 24.1949C3.72919 24.339 4.47984 24.2651 5.16202 23.9825C5.8442 23.6999 6.42726 23.2214 6.83749 22.6075C7.24771 21.9935 7.46667 21.2717 7.46667 20.5333V11.872L22.4 7.728V14.5227C21.8347 14.1871 21.1907 14.0068 20.5333 14C19.795 14 19.0732 14.219 18.4592 14.6292C17.8453 15.0394 17.3668 15.6225 17.0842 16.3046C16.8016 16.9868 16.7277 17.7375 16.8717 18.4617C17.0158 19.1859 17.3714 19.8511 17.8935 20.3732C18.4156 20.8953 19.0808 21.2509 19.805 21.3949C20.5292 21.539 21.2798 21.4651 21.962 21.1825C22.6442 20.8999 23.2273 20.4214 23.6375 19.8075C24.0477 19.1935 24.2667 18.4717 24.2667 17.7333V0.933333C24.2667 0.685798 24.1683 0.448401 23.9933 0.273367C23.8183 0.0983331 23.5809 0 23.3333 0ZM22.4 5.86133L7.46667 10.0053V6.272L22.4 2.128V5.86133Z" fill="white"/>
</svg>
