<svg width="32" height="23" viewBox="0 0 32 23" fill="none" xmlns="http://www.w3.org/2000/svg">
<g clip-path="url(#clip0_416_1213)">
<path d="M3.55556 0.00439453C2.61256 0.00439453 1.70819 0.377052 1.0414 1.04039C0.374602 1.70372 0 2.6034 0 3.5415L0 19.4585C0 20.3965 0.374602 21.2962 1.0414 21.9596C1.70819 22.6229 2.61256 22.9956 3.55556 22.9956H9.77778V0.00439453H3.55556Z" fill="#006847"/>
<path d="M28.4444 0.00439453H22.2222V22.9956H28.4444C29.3874 22.9956 30.2917 22.6229 30.9585 21.9596C31.6253 21.2962 31.9999 20.3965 31.9999 19.4585V3.5415C31.9999 2.6034 31.6253 1.70372 30.9585 1.04039C30.2917 0.377052 29.3874 0.00439453 28.4444 0.00439453Z" fill="#CE1126"/>
<path d="M9.77783 0.00439453H22.2223V22.9956H9.77783V0.00439453Z" fill="#EEEEEE"/>
<path d="M20.4445 11.5C20.4445 12.6726 19.9763 13.7972 19.1428 14.6264C18.3093 15.4556 17.1788 15.9214 16.0001 15.9214C14.8213 15.9214 13.6909 15.4556 12.8574 14.6264C12.0239 13.7972 11.5556 12.6726 11.5556 11.5H10.6667C10.6667 12.9071 11.2287 14.2567 12.2288 15.2517C13.229 16.2467 14.5856 16.8057 16.0001 16.8057C17.4146 16.8057 18.7711 16.2467 19.7713 15.2517C20.7715 14.2567 21.3334 12.9071 21.3334 11.5H20.4445Z" fill="#A6D388"/>
<path d="M12.0383 13.5065C12.0119 13.4546 11.9755 13.4084 11.9311 13.3706C11.8866 13.3328 11.8351 13.304 11.7795 13.2861C11.7239 13.2682 11.6653 13.2614 11.607 13.2662C11.5487 13.2709 11.492 13.2871 11.44 13.3138C11.3879 13.3401 11.3416 13.3764 11.3036 13.4205C11.2656 13.4647 11.2367 13.5159 11.2186 13.5712C11.2006 13.6265 11.1936 13.6847 11.1982 13.7427C11.2028 13.8006 11.2188 13.8571 11.2454 13.9089C11.3254 14.0654 11.4134 14.2184 11.5085 14.3652L11.512 14.3714L11.5191 14.382L11.5218 14.3882L11.5227 14.3899L11.5263 14.3944L11.5289 14.3997V14.4014L11.5316 14.4059L11.5325 14.4076L11.5351 14.412L11.536 14.4138L11.5387 14.4173L11.5405 14.42L11.5423 14.4227L11.5431 14.4253L11.5458 14.4297L11.5467 14.4306L11.5485 14.4333L11.5511 14.4386L11.552 14.4403L11.5547 14.4448L11.5556 14.4465L11.5618 14.4554V14.4563L11.5663 14.4624C11.6125 14.5305 11.6596 14.5969 11.7094 14.6632C11.7441 14.7096 11.7877 14.7488 11.8376 14.7784C11.8876 14.808 11.9429 14.8275 12.0005 14.8358C12.0581 14.8441 12.1167 14.8411 12.1731 14.8267C12.2294 14.8124 12.2824 14.7872 12.3289 14.7525C12.3758 14.7179 12.4153 14.6745 12.4453 14.6247C12.4753 14.5749 12.4951 14.5197 12.5036 14.4623C12.5121 14.4049 12.5091 14.3464 12.4949 14.2901C12.4806 14.2338 12.4553 14.1809 12.4205 14.1344C12.2786 13.9342 12.1508 13.7244 12.0383 13.5065ZM11.5965 12.1076C11.5633 11.8635 11.5497 11.6172 11.5556 11.371C11.5589 11.2539 11.5154 11.1402 11.4346 11.055C11.3537 10.9698 11.2422 10.92 11.1245 10.9165L11.0925 10.9174C10.9803 10.9223 10.8741 10.9692 10.7953 11.0487C10.7165 11.1283 10.6708 11.2346 10.6676 11.3463C10.6655 11.4379 10.6652 11.5296 10.6667 11.6213V11.7009L10.6676 11.7053V11.73L10.6685 11.7327L10.6676 11.7345V11.7371L10.6685 11.7389V11.7645L10.6694 11.7672V11.7769L10.6703 11.7937L10.6711 11.8017V11.8114C10.6791 11.9529 10.6934 12.0935 10.712 12.2332C10.7286 12.3487 10.7904 12.4531 10.884 12.5235C10.9775 12.5939 11.0953 12.6246 11.2116 12.609C11.27 12.6014 11.3264 12.5824 11.3774 12.553C11.4284 12.5236 11.4731 12.4845 11.5088 12.4379C11.5446 12.3913 11.5708 12.3382 11.5858 12.2815C11.6008 12.2248 11.6045 12.1657 11.5965 12.1076ZM16.3023 15.91L16.2969 15.9109L16.1867 15.918C15.9761 15.9264 15.7653 15.9202 15.5556 15.8994C15.4383 15.8877 15.3211 15.9228 15.2299 15.997C15.1386 16.0712 15.0807 16.1784 15.0689 16.2951C15.0571 16.4118 15.0924 16.5283 15.167 16.6191C15.2416 16.7099 15.3494 16.7675 15.4667 16.7792L15.5778 16.789L15.5814 16.7899L15.5831 16.789L15.5858 16.7899H15.5876L15.5929 16.7907H15.5983L15.6009 16.7916L15.6071 16.7907L15.6098 16.7916H15.6143L15.6196 16.7925L15.624 16.7934H15.6356L15.6409 16.7943H15.6525C15.7876 16.8031 15.9236 16.8075 16.0605 16.8049H16.0951L16.1014 16.804L16.1067 16.8049H16.12L16.1245 16.804H16.1414L16.1467 16.8031L16.152 16.804L16.1529 16.8031L16.1583 16.804H16.1591L16.1636 16.8031H16.1707L16.176 16.8022H16.1814L16.1823 16.8031L16.1876 16.8022H16.1938L16.1983 16.8014H16.216L16.2205 16.8005H16.224L16.2276 16.7996L16.2311 16.8005H16.2356L16.2391 16.7996H16.2436C16.2809 16.7987 16.3191 16.7952 16.3565 16.7934C16.4716 16.7841 16.5784 16.7301 16.6538 16.6431C16.7291 16.556 16.767 16.4429 16.7591 16.3283C16.7569 16.2709 16.7432 16.2146 16.719 16.1625C16.6948 16.1104 16.6605 16.0636 16.618 16.0248C16.5756 15.9859 16.5258 15.9558 16.4716 15.9361C16.4174 15.9164 16.3599 15.9075 16.3023 15.91ZM14.1343 15.5139C13.9101 15.4105 13.6948 15.2889 13.4907 15.1504C13.4117 15.0963 13.3172 15.0692 13.2214 15.0735C13.1283 15.0774 13.0388 15.1103 12.9655 15.1676C12.8923 15.2248 12.839 15.3035 12.8131 15.3926C12.7873 15.4816 12.7902 15.5765 12.8215 15.6638C12.8528 15.7511 12.9109 15.8264 12.9876 15.8791L12.9885 15.8799L12.9938 15.8826L12.9991 15.8879L13.0045 15.8914L13.0098 15.8959C13.2463 16.0559 13.4969 16.1965 13.7583 16.3168C13.8111 16.3413 13.8683 16.3552 13.9266 16.3577C13.9849 16.3602 14.0431 16.3512 14.0978 16.3312C14.1526 16.3112 14.2028 16.2807 14.2457 16.2413C14.2886 16.202 14.3232 16.1546 14.3476 16.1019C14.3726 16.0494 14.387 15.9925 14.3898 15.9344C14.3926 15.8764 14.3838 15.8183 14.364 15.7637C14.3442 15.709 14.3137 15.6588 14.2742 15.6159C14.2348 15.573 14.1872 15.5384 14.1343 15.5139ZM18.6054 15.1619C18.5269 15.1656 18.4508 15.19 18.3849 15.2327C18.1771 15.364 17.9589 15.4785 17.7325 15.5749C17.6347 15.6135 17.5539 15.6855 17.5047 15.778C17.4554 15.8705 17.4409 15.9774 17.4637 16.0795C17.4864 16.1817 17.5451 16.2725 17.629 16.3356C17.713 16.3986 17.8168 16.4299 17.9218 16.4238C17.9746 16.4213 18.0266 16.4099 18.0756 16.3902L18.1947 16.3371H18.1965L18.2018 16.3336L18.2036 16.3327L18.2071 16.3309H18.2107L18.2143 16.3292L18.216 16.3274L18.2214 16.3265L18.2231 16.3247L18.2258 16.323L18.2303 16.3212L18.2329 16.3203L18.2374 16.3185L18.2391 16.3177L18.2436 16.3159L18.2454 16.315C18.248 16.3132 18.248 16.3124 18.2498 16.3124L18.2516 16.3115L18.2569 16.3088H18.2587L18.264 16.3062L18.2694 16.3035L18.2711 16.3026L18.2756 16.3L18.2774 16.2991L18.2827 16.2964L18.2836 16.2956L18.2898 16.2947L18.296 16.2911L18.2978 16.2902L18.3014 16.2876H18.3031L18.3085 16.2841L18.3156 16.2823L18.3209 16.2787L18.328 16.2752L18.3289 16.2743L18.3414 16.269L18.3476 16.2664L18.36 16.2593L18.3671 16.2566L18.3725 16.254L18.3858 16.2469L18.3911 16.2443L18.4116 16.2337L18.4178 16.2319L18.4303 16.2248L18.4365 16.2213H18.4374C18.4383 16.2204 18.44 16.2195 18.4436 16.2195C18.4454 16.2168 18.4471 16.216 18.4489 16.2151L18.456 16.2115L18.4614 16.2089V16.208L18.4738 16.2027L18.4809 16.1992L18.4818 16.1983L18.4863 16.1956L18.4934 16.1921L18.4987 16.1894H18.5005L18.5058 16.1859L18.512 16.1824L18.5129 16.1815L18.5183 16.1788L18.5236 16.1762L18.5254 16.1753L18.5289 16.1726L18.5316 16.1718L18.536 16.1691L18.5378 16.1682L18.5423 16.1656L18.544 16.1647L18.5494 16.1629C18.5485 16.162 18.5494 16.162 18.5503 16.162L18.5556 16.1594L18.5574 16.1585L18.5609 16.1558L18.5627 16.155L18.568 16.1523L18.5698 16.1514C18.5698 16.1496 18.5716 16.1496 18.5734 16.1488L18.576 16.1479L18.5796 16.1461L18.5823 16.1443L18.5858 16.1426L18.5885 16.1408L18.5911 16.139L18.5938 16.1364L18.5983 16.1355L18.6018 16.1346L18.6036 16.1328L18.6071 16.1311L18.6107 16.1284L18.6125 16.1275L18.616 16.1258L18.6196 16.1231L18.6223 16.1213C18.624 16.1222 18.6249 16.1213 18.6267 16.1205L18.6285 16.1187L18.632 16.1169L18.6347 16.1152L18.6374 16.1134L18.6409 16.1116L18.6445 16.109L18.6463 16.1081C18.648 16.1072 18.6516 16.1072 18.6534 16.1054C18.6516 16.1054 18.6516 16.1045 18.6534 16.1054L18.6569 16.1028L18.6631 16.0984L18.6649 16.0975L18.6711 16.0948L18.6818 16.0886L18.6889 16.0842C18.6944 16.0803 18.7004 16.077 18.7067 16.0745C18.7627 16.0409 18.8214 16.0064 18.8765 15.971C18.9756 15.9079 19.0456 15.8081 19.0709 15.6938C19.0962 15.5794 19.0749 15.4596 19.0116 15.3609C18.9648 15.2978 18.9035 15.2468 18.8328 15.2122C18.7621 15.1776 18.6841 15.1603 18.6054 15.1619ZM20.8907 11.0783L20.8694 11.0792C20.7551 11.084 20.647 11.1324 20.5677 11.2145C20.4884 11.2965 20.4439 11.4058 20.4436 11.5196C20.4436 11.7645 20.4214 12.0121 20.3796 12.2526C20.3598 12.3684 20.387 12.4872 20.4553 12.583C20.5235 12.6787 20.6272 12.7436 20.7436 12.7633C20.8599 12.783 20.9794 12.7559 21.0756 12.688C21.1719 12.6201 21.2371 12.5169 21.2569 12.4012V12.3968L21.2578 12.395L21.2587 12.3932L21.2578 12.3915L21.2587 12.3897V12.3879L21.2596 12.3862V12.3835L21.2605 12.3817V12.3738C21.2623 12.3729 21.2623 12.3711 21.2623 12.3703V12.3649C21.2813 12.2502 21.2967 12.1349 21.3085 12.0192L21.3076 12.0183L21.3085 12.0157L21.3094 12.0112V12.0015L21.3111 11.9989L21.3103 11.9953V11.9936L21.3111 11.9909V11.9874L21.3129 11.9865L21.3111 11.9838V11.9803C21.3129 11.9794 21.3129 11.9785 21.3129 11.9776V11.9608L21.3147 11.9582C21.3268 11.8126 21.333 11.6657 21.3334 11.5196C21.3331 11.4028 21.2864 11.2908 21.2035 11.2081C21.1206 11.1255 21.0081 11.0788 20.8907 11.0783ZM20.4969 13.4623C20.4458 13.4342 20.3896 13.4163 20.3316 13.4098C20.2735 13.4033 20.2147 13.4082 20.1586 13.4243C20.1024 13.4404 20.05 13.4674 20.0044 13.5036C19.9587 13.5399 19.9207 13.5848 19.8925 13.6357C19.7732 13.851 19.6355 14.0557 19.4809 14.2476C19.4083 14.3395 19.3753 14.4562 19.3889 14.5723C19.4026 14.6883 19.4619 14.7943 19.5539 14.867C19.6459 14.9397 19.7631 14.9732 19.8798 14.9602C19.9965 14.9472 20.1034 14.8887 20.1769 14.7976C20.28 14.6685 20.3787 14.5332 20.4703 14.3952C20.472 14.3891 20.4765 14.3829 20.48 14.3776L20.4809 14.3767L20.4845 14.3714L20.488 14.3643C20.4898 14.3625 20.4916 14.3608 20.4916 14.359L20.4925 14.3599L20.496 14.3546V14.3537C20.4977 14.352 20.4987 14.3498 20.4987 14.3475L20.5005 14.3466L20.504 14.3413C20.5058 14.3404 20.5058 14.3378 20.5067 14.336L20.5076 14.3351L20.5111 14.3298L20.512 14.328L20.5138 14.3236L20.5165 14.3218L20.5183 14.3174H20.52L20.5218 14.3121L20.5227 14.3104L20.5263 14.3068L20.5271 14.305C20.528 14.3033 20.528 14.3015 20.5298 14.3006L20.5307 14.298L20.5343 14.2953C20.5343 14.2944 20.5343 14.2936 20.536 14.2927V14.2891L20.5387 14.2874L20.5414 14.2829L20.5423 14.2812L20.5449 14.2759L20.5467 14.2741L20.5485 14.2706L20.5503 14.2679C20.5503 14.267 20.5503 14.2661 20.552 14.2653C20.552 14.2644 20.552 14.2635 20.5538 14.2626L20.5565 14.2582L20.5574 14.2555L20.5591 14.2529L20.5609 14.2502C20.5627 14.2493 20.5627 14.2485 20.5627 14.2476C20.5645 14.2467 20.5645 14.2458 20.5645 14.244L20.5663 14.2414L20.5689 14.2378L20.5716 14.2343V14.2317L20.5734 14.229L20.576 14.2255L20.5787 14.2228V14.2202L20.5823 14.2157V14.2131C20.584 14.2122 20.5849 14.2113 20.5849 14.2095L20.5867 14.2078L20.5885 14.2051L20.5911 14.2007L20.5929 14.198V14.1963L20.5965 14.1919C20.5965 14.191 20.5965 14.1901 20.5983 14.1892L20.5991 14.1866L20.6018 14.183L20.6036 14.1795L20.6054 14.1768C20.6063 14.1759 20.6054 14.1742 20.6071 14.1733C20.6071 14.1724 20.6071 14.1715 20.6089 14.1715L20.6107 14.1671L20.6125 14.1653L20.6143 14.16L20.616 14.1591L20.6178 14.1556L20.6196 14.1538L20.6214 14.1494L20.6231 14.1476L20.6249 14.1423C20.6267 14.1415 20.6249 14.1406 20.6249 14.1406L20.6285 14.1362L20.6294 14.1344L20.6329 14.13V14.1291L20.6356 14.1238L20.6374 14.122L20.6391 14.1167L20.6436 14.1114L20.6463 14.1061V14.1052L20.6498 14.099L20.6516 14.0981L20.6738 14.0566C20.729 13.9543 20.7413 13.8345 20.7082 13.7233C20.6751 13.612 20.5992 13.5182 20.4969 13.4623Z" fill="#5C913B"/>
<path d="M15.9999 15.0371C17.4727 15.0371 18.6666 14.6412 18.6666 14.1528C18.6666 13.6645 17.4727 13.2686 15.9999 13.2686C14.5272 13.2686 13.3333 13.6645 13.3333 14.1528C13.3333 14.6412 14.5272 15.0371 15.9999 15.0371Z" fill="#55ACEE"/>
<path d="M16.4444 15.0371C17.1808 15.0371 17.7778 14.6412 17.7778 14.1528C17.7778 13.6645 17.1808 13.2686 16.4444 13.2686C15.708 13.2686 15.1111 13.6645 15.1111 14.1528C15.1111 14.6412 15.708 15.0371 16.4444 15.0371Z" fill="#FFCC4D"/>
<path d="M16.9928 14.3952C16.9159 14.3946 16.8406 14.3742 16.7739 14.3362C16.7073 14.2981 16.6516 14.2436 16.6123 14.178C16.573 14.1123 16.5514 14.0376 16.5495 13.9612C16.5477 13.8848 16.5656 13.8092 16.6017 13.7417C16.7439 13.4817 16.8932 13.2456 17.0479 13.0387C16.9206 13.0441 16.7931 13.0467 16.6657 13.0467C16.4203 13.0467 16.1963 12.8477 16.1963 12.6036C16.1963 12.3596 16.3697 12.1615 16.6159 12.1615L16.6888 12.1624C16.9519 12.1624 17.2221 12.1465 17.4639 12.1244C17.5312 12.1176 17.5992 12.1266 17.6625 12.1505C17.7258 12.1744 17.7825 12.2127 17.8283 12.2623C17.8408 12.2526 17.8532 12.2429 17.8666 12.2349C17.9554 12.1765 18.0381 12.1297 18.1154 12.0925C18.1704 12.0504 18.2347 12.0219 18.303 12.0094L18.335 12.0032C18.5021 11.9493 18.6194 11.9422 18.6666 11.9422C18.7362 11.942 18.8048 11.958 18.867 11.9891C18.9292 12.0203 18.9832 12.0655 19.0245 12.1213C19.0658 12.177 19.0933 12.2416 19.1048 12.3099C19.1162 12.3782 19.1114 12.4483 19.0906 12.5143C19.0177 12.7496 18.855 12.8026 18.5697 12.8592C18.4951 12.8889 18.4241 12.9269 18.3581 12.9724C18.2777 13.0244 18.1827 13.0495 18.0869 13.0441C17.9912 13.0387 17.8996 13.003 17.8257 12.9423C17.8862 13.0201 17.919 13.1157 17.9187 13.2141C17.9183 13.3125 17.885 13.4079 17.8239 13.4853C17.6728 13.6772 17.5243 13.9053 17.383 14.1644C17.345 14.2343 17.2886 14.2927 17.2199 14.3333C17.1512 14.374 17.0727 14.3953 16.9928 14.3952ZM15.7306 12.9901C15.7109 12.9902 15.6913 12.989 15.6719 12.9865C15.3544 12.9456 15.0406 12.8802 14.7332 12.7911C14.6772 12.7746 14.6251 12.7472 14.5797 12.7107C14.5343 12.6741 14.4967 12.6289 14.4689 12.5779C14.441 12.5268 14.4236 12.4707 14.4176 12.413C14.4115 12.3552 14.417 12.2968 14.4337 12.2411L14.439 12.2234L14.4283 12.2437C14.3998 12.2945 14.3615 12.3391 14.3157 12.3751C14.2698 12.4111 14.2173 12.4377 14.161 12.4535C14.1048 12.4692 14.046 12.4738 13.988 12.467C13.93 12.4601 13.8739 12.442 13.823 12.4135C13.5277 12.2507 13.2564 12.048 13.0168 11.8113C12.9358 11.7279 12.891 11.6163 12.892 11.5003C12.893 11.3844 12.9398 11.2735 13.0222 11.1915C13.1046 11.1096 13.2161 11.0631 13.3326 11.0621C13.4491 11.061 13.5614 11.1056 13.6452 11.1862C13.8203 11.3604 14.0257 11.5133 14.2568 11.6416C14.3473 11.692 14.4173 11.7725 14.4545 11.8689C14.4916 11.9653 14.4937 12.0717 14.4603 12.1695C14.507 12.0764 14.5852 12.0027 14.6811 11.9613C14.777 11.9199 14.8846 11.9134 14.9848 11.9431C15.2301 12.0156 15.4994 12.0713 15.7848 12.1093C15.8967 12.1235 15.9991 12.1795 16.071 12.266C16.143 12.3524 16.1792 12.4629 16.1723 12.575C16.1654 12.687 16.1159 12.7923 16.0339 12.8694C15.9518 12.9464 15.8434 12.9896 15.7306 12.9901ZM13.551 10.9218C13.1723 10.9218 12.6826 10.7758 12.3857 10.4274C11.9306 9.89334 11.663 9.20803 11.7039 8.68277C11.7146 8.54217 11.5768 8.42898 11.4417 8.39361C11.3643 8.37327 11.2283 8.36089 11.1643 8.49796C11.1396 8.55119 11.0946 8.59247 11.0392 8.6127C10.9839 8.63293 10.9227 8.63046 10.8692 8.60584C10.8157 8.58121 10.7742 8.53645 10.7539 8.48139C10.7335 8.42633 10.736 8.3655 10.7608 8.31226C10.8994 8.01249 11.2106 7.87896 11.5537 7.96562C11.8719 8.04786 12.1768 8.3326 12.1466 8.71726C12.1146 9.12579 12.3474 9.69792 12.7243 10.1409C12.9226 10.3744 13.2674 10.469 13.5021 10.4778C13.6932 10.4876 13.7901 10.4442 13.8106 10.4257C13.7608 10.3081 13.1021 9.9632 12.8212 9.81641C12.5821 9.69173 12.511 9.52018 12.4932 9.39903C12.4337 8.99669 12.8488 8.58904 13.2506 8.19642C13.3919 8.05759 13.5261 7.92671 13.599 7.83033C13.6817 7.72156 13.6683 7.64905 13.6523 7.60395C13.591 7.43859 13.3252 7.275 13.0052 7.20426C12.7092 7.13882 12.5092 6.99646 12.4114 6.78069C12.2826 6.49684 12.351 6.12545 12.6194 5.6444C12.6336 5.61903 12.6527 5.59668 12.6756 5.57864C12.6984 5.5606 12.7246 5.54721 12.7527 5.53924C12.7808 5.53128 12.8101 5.52889 12.8391 5.53222C12.8681 5.53554 12.8962 5.54452 12.9217 5.55862C12.9472 5.57273 12.9696 5.5917 12.9878 5.61445C13.0059 5.63719 13.0194 5.66327 13.0274 5.69119C13.0354 5.71911 13.0378 5.74832 13.0344 5.77716C13.0311 5.806 13.0221 5.83391 13.0079 5.85928C12.7546 6.31203 12.7794 6.51718 12.8168 6.59942C12.8541 6.68077 12.9492 6.73825 13.1012 6.77185C13.4772 6.85497 13.9297 7.07693 14.0683 7.45009C14.1474 7.6632 14.1074 7.89311 13.9546 8.09561C13.8621 8.21852 13.7163 8.36089 13.5626 8.5121C13.3332 8.73671 12.9057 9.15497 12.9332 9.33536C12.9386 9.3725 12.9874 9.40522 13.0283 9.42556C13.6959 9.77396 14.1394 10.026 14.2301 10.3346C14.246 10.3872 14.2508 10.4426 14.2444 10.4972C14.238 10.5518 14.2204 10.6045 14.1928 10.6521C14.1066 10.8015 13.927 10.8935 13.6728 10.9164C13.6346 10.92 13.5928 10.9218 13.551 10.9218Z" fill="#5C913B"/>
<path d="M17.3334 12.3843C17.5788 12.3843 17.7778 11.9884 17.7778 11.5C17.7778 11.0116 17.5788 10.6157 17.3334 10.6157C17.0879 10.6157 16.8889 11.0116 16.8889 11.5C16.8889 11.9884 17.0879 12.3843 17.3334 12.3843Z" fill="#FFCC4D"/>
<path d="M15.3706 10.7821C15.3706 11.0367 15.0639 11.2428 14.6853 11.2428C14.3075 11.2428 13.9999 11.0367 13.9999 10.7821C13.9999 10.5274 14.3066 10.3213 14.6853 10.3213C15.0631 10.3213 15.3706 10.5274 15.3706 10.7821ZM14.3155 6.69051C14.3599 6.87798 14.1137 7.09728 13.7653 7.17951C13.4168 7.26175 13.0986 7.17598 13.0533 6.98851C13.0088 6.80016 13.2551 6.58086 13.6026 6.49862C13.9519 6.41727 14.2711 6.50216 14.3155 6.69051Z" fill="#FFCC4D"/>
<path d="M20.0294 11.4603C20.1094 11.5222 20.2454 10.8156 20.225 10.5954C20.225 10.5804 20.1992 10.1126 20.2988 9.77838C20.3601 9.66519 20.3636 8.82071 20.2694 8.59875C20.3441 8.59256 20.4339 8.56869 20.4445 8.47849C20.0996 8.60494 20.0188 7.75604 19.6872 7.26792C19.3654 6.77892 18.9663 6.49418 18.5494 6.19706C18.5842 6.11027 18.6328 6.02964 18.6934 5.95831C18.1823 6.21298 17.3859 5.29068 16.209 5.35965C15.945 5.3853 15.8196 5.40121 15.7521 5.56215C15.5325 5.57984 15.3094 5.62936 15.3094 5.91675C15.3094 5.98572 15.3725 6.11129 15.513 6.11217C15.705 6.16788 15.8614 6.12455 15.9921 6.3916L16.0268 6.6675C16.0268 6.6675 15.8552 6.44908 15.761 6.41459L15.8188 6.29699C15.7299 6.2457 15.5725 6.28726 15.5725 6.28726C15.5725 6.28726 15.2303 6.12809 14.9556 6.17053L14.9023 5.94946C14.8543 6.08564 14.7468 6.07857 14.7316 6.20679C14.7014 6.11482 14.6614 6.00075 14.633 5.90879C14.5361 6.03966 14.5645 6.18115 14.5299 6.31732C14.4925 6.34916 14.4161 6.35004 14.3965 6.2625C14.3868 6.15462 14.3734 6.14489 14.3734 6.01667C14.3041 6.13782 14.2205 6.19706 14.193 6.40487L14.1192 6.17496C14.1219 6.44643 13.8872 6.60825 13.665 6.80014C13.6019 6.91509 13.6748 6.91598 13.6801 6.97522L13.7974 7.03359L14.0081 7.01855C14.0428 7.06188 14.0143 7.06542 14.1059 7.09283C14.3512 7.16092 14.657 6.86823 14.897 7.32893C14.7868 7.4209 14.6756 7.63578 14.7112 7.67645C14.7556 7.67645 14.6223 7.73835 14.8019 7.68176C14.6152 7.86215 14.489 8.10002 14.489 8.11417C14.4676 8.16546 14.5636 8.1071 14.5441 8.19995L14.5885 8.19464C14.1628 8.65269 14.5743 9.14524 14.529 9.40963C14.6001 9.52371 14.609 9.40698 14.6979 9.39549C14.7725 9.7209 14.9876 9.91809 15.1192 10.1754L14.8419 10.1781C14.8481 10.3001 14.9592 10.4159 15.0472 10.5229L14.8614 10.5813C14.742 10.6405 14.6356 10.7229 14.5485 10.8236C14.4872 10.9721 14.8445 11.0075 15.017 11.034L15.0108 11.2136C15.2801 11.2392 15.5912 11.1596 15.5912 11.1446L15.6588 11.0924L15.8108 11.1755C15.8614 11.1755 15.9405 10.9739 15.9041 10.8192C16.0019 10.935 16.0943 11.1216 16.1921 11.2383L16.2836 11.2259C16.3672 11.3577 16.4819 11.4886 16.5654 11.6203L16.6588 11.6557C16.713 11.6371 16.7592 11.6309 16.7885 11.5248L16.8312 11.5991L16.9788 11.4983L17.0819 11.478L17.1592 11.6035C17.2045 11.5867 17.249 11.4886 17.2516 11.3842C17.2979 11.4753 17.3103 11.4682 17.3441 11.4921L17.4125 11.3488L17.7814 11.6919L18.0605 11.7079C18.1601 11.7751 18.433 11.8175 18.4792 11.7087C18.7032 11.8043 18.9672 11.6964 18.9539 11.5903C19.1601 11.6716 19.4774 11.6168 19.4774 11.6035C19.5156 11.5991 19.6134 11.5036 19.521 11.432C18.8392 10.9598 17.8285 10.1781 17.4383 9.98972C17.4383 9.85 17.3325 9.34685 17.2188 9.2089L17.3112 9.05504C17.577 9.30175 17.673 9.27788 17.8143 9.31679C17.9654 9.43616 18.0179 9.61744 18.169 9.7828L18.3041 9.80756C18.1939 9.51985 18.0264 9.25726 17.8116 9.03559C17.9574 9.1081 18.1992 9.30175 18.361 9.44235C18.4676 9.62009 18.4988 9.76157 18.5965 9.98441C18.6676 10.0295 18.7405 10.1949 18.7308 10.0578C18.7139 9.80048 18.5316 9.39283 18.5316 9.36365C18.8214 9.59179 18.8179 9.94727 18.9059 10.1639C18.9796 10.2736 19.017 10.4204 19.049 10.3859L18.9636 9.71736L18.9139 9.47242C19.1281 9.59533 19.2045 10.064 19.305 10.6264C19.305 10.7157 19.3414 10.8139 19.3361 10.8713C19.3823 10.9279 19.4348 11.0845 19.4339 10.9916C19.4339 10.9916 19.4339 10.0773 19.3708 9.86769C19.3548 9.75538 19.3974 9.57322 19.3974 9.57322C19.4756 9.95258 19.5592 10.3638 19.6383 10.7422V11.0208L19.7556 11.1384C19.7779 10.9085 19.8045 10.6803 19.8276 10.4522L19.7396 9.63424V9.40079C19.7379 9.31855 19.8152 9.33359 19.8641 9.42732C19.8756 9.62805 19.8756 9.78457 19.8836 9.98441C19.9183 10.2126 19.9423 10.3797 19.9592 10.6706C19.969 10.9058 19.9796 11.47 20.0294 11.4603Z" fill="#C1694F"/>
</g>
<defs>
<clipPath id="clip0_416_1213">
<rect width="32" height="23" fill="white"/>
</clipPath>
</defs>
</svg>
