<svg width="40" height="52" viewBox="0 0 40 52" fill="none" xmlns="http://www.w3.org/2000/svg">
<path d="M20.0005 37.3926C13.7346 37.3926 8.60791 32.4436 8.60791 26.3919V11.937C8.60791 5.88533 13.7346 0.936401 20.0005 0.936401C26.2664 0.936401 31.393 5.88533 31.393 11.937V26.3919C31.393 32.4436 26.2664 37.3926 20.0005 37.3926Z" fill="#9B7BFF" fill-opacity="0.16"/>
<path d="M20.0001 51.0636V44.2281M20.0001 44.2281C15.1657 44.2281 10.5293 42.3076 7.11085 38.8892C3.69243 35.4708 1.77197 30.8344 1.77197 26M20.0001 44.2281C24.8344 44.2281 29.4708 42.3076 32.8893 38.8892C36.3077 35.4708 38.2281 30.8344 38.2281 26M20.0001 37.3926C13.7342 37.3926 8.6075 32.4436 8.6075 26.3919V11.937C8.6075 5.88533 13.7342 0.936401 20.0001 0.936401C26.266 0.936401 31.3926 5.88533 31.3926 11.937V26.3919C31.3926 32.4436 26.266 37.3926 20.0001 37.3926Z" stroke="white" stroke-width="1.75" stroke-linecap="round" stroke-linejoin="round"/>
</svg>
