<svg width="21" height="28" viewBox="0 0 21 28" fill="none" xmlns="http://www.w3.org/2000/svg">
<path d="M10.2498 19.6907C7.0415 19.6907 4.4165 17.1567 4.4165 14.058V6.65665C4.4165 3.55799 7.0415 1.02399 10.2498 1.02399C13.4582 1.02399 16.0832 3.55799 16.0832 6.65665V14.058C16.0832 17.1567 13.4582 19.6907 10.2498 19.6907Z" fill="black" fill-opacity="0.16"/>
<path d="M10.2498 26.6907V23.1907M10.2498 23.1907C7.77448 23.1907 5.40051 22.2073 3.65017 20.457C1.89983 18.7066 0.916504 16.3327 0.916504 13.8573M10.2498 23.1907C12.7252 23.1907 15.0992 22.2073 16.8495 20.457C18.5998 18.7066 19.5832 16.3327 19.5832 13.8573M10.2498 19.6907C7.0415 19.6907 4.4165 17.1567 4.4165 14.058V6.65665C4.4165 3.55799 7.0415 1.02399 10.2498 1.02399C13.4582 1.02399 16.0832 3.55799 16.0832 6.65665V14.058C16.0832 17.1567 13.4582 19.6907 10.2498 19.6907Z" stroke="white" stroke-width="1.75" stroke-linecap="round" stroke-linejoin="round"/>
</svg>
