<svg width="26" height="26" viewBox="0 0 26 26" fill="none" xmlns="http://www.w3.org/2000/svg">
<path d="M7.54167 6.60733C7.2654 6.60733 7.00045 6.71708 6.8051 6.91243C6.60975 7.10778 6.5 7.37273 6.5 7.649C6.5 7.92526 6.60975 8.19022 6.8051 8.38557C7.00045 8.58092 7.2654 8.69066 7.54167 8.69066H17.9583C18.2346 8.69066 18.4996 8.58092 18.6949 8.38557C18.8903 8.19022 19 7.92526 19 7.649C19 7.37273 18.8903 7.10778 18.6949 6.91243C18.4996 6.71708 18.2346 6.60733 17.9583 6.60733H7.54167ZM7.54167 11.8157C7.2654 11.8157 7.00045 11.9254 6.8051 12.1208C6.60975 12.3161 6.5 12.5811 6.5 12.8573C6.5 13.1336 6.60975 13.3986 6.8051 13.5939C7.00045 13.7893 7.2654 13.899 7.54167 13.899H13.7917C14.0679 13.899 14.3329 13.7893 14.5282 13.5939C14.7236 13.3986 14.8333 13.1336 14.8333 12.8573C14.8333 12.5811 14.7236 12.3161 14.5282 12.1208C14.3329 11.9254 14.0679 11.8157 13.7917 11.8157H7.54167ZM7.54167 17.024C7.2654 17.024 7.00045 17.1337 6.8051 17.3291C6.60975 17.5244 6.5 17.7894 6.5 18.0657C6.5 18.3419 6.60975 18.6069 6.8051 18.8022C7.00045 18.9976 7.2654 19.1073 7.54167 19.1073H17.9583C18.2346 19.1073 18.4996 18.9976 18.6949 18.8022C18.8903 18.6069 19 18.3419 19 18.0657C19 17.7894 18.8903 17.5244 18.6949 17.3291C18.4996 17.1337 18.2346 17.024 17.9583 17.024H7.54167ZM5.45833 0.35733C4.077 0.35733 2.75224 0.906064 1.77549 1.88282C0.798733 2.85957 0.25 4.18433 0.25 5.56566V20.149C0.25 21.5303 0.798733 22.8551 1.77549 23.8318C2.75224 24.8086 4.077 25.3573 5.45833 25.3573H20.0417C21.423 25.3573 22.7478 24.8086 23.7245 23.8318C24.7013 22.8551 25.25 21.5303 25.25 20.149V5.56566C25.25 4.18433 24.7013 2.85957 23.7245 1.88282C22.7478 0.906064 21.423 0.35733 20.0417 0.35733H5.45833ZM2.33333 5.56566C2.33333 4.73686 2.66257 3.94201 3.24862 3.35595C3.83468 2.7699 4.62953 2.44066 5.45833 2.44066H20.0417C20.8705 2.44066 21.6653 2.7699 22.2514 3.35595C22.8374 3.94201 23.1667 4.73686 23.1667 5.56566V20.149C23.1667 20.9778 22.8374 21.7727 22.2514 22.3587C21.6653 22.9448 20.8705 23.274 20.0417 23.274H5.45833C4.62953 23.274 3.83468 22.9448 3.24862 22.3587C2.66257 21.7727 2.33333 20.9778 2.33333 20.149V5.56566Z" fill="white"/>
</svg>
