<svg width="45" height="45" viewBox="0 0 45 45" fill="none" xmlns="http://www.w3.org/2000/svg">
<path d="M22.641 35.3333C19.0586 35.3333 16.0238 34.0909 13.5366 31.6062C11.0506 29.1202 9.80762 26.0866 9.80762 22.5055C9.80762 18.9244 11.0506 15.8896 13.5366 13.4012C16.0226 10.9127 19.0574 9.66788 22.641 9.66666C24.8202 9.66666 26.8607 10.1843 28.7625 11.2195C30.663 12.2547 32.1951 13.7 33.3586 15.5553V9.66666H35.192V19.255H25.6036V17.4217H32.387C31.4312 15.5944 30.088 14.1504 28.3573 13.0895C26.6266 12.0286 24.7212 11.4988 22.641 11.5C19.5854 11.5 16.9882 12.5694 14.8493 14.7083C12.7104 16.8472 11.641 19.4444 11.641 22.5C11.641 25.5555 12.7104 28.1528 14.8493 30.2917C16.9882 32.4305 19.5854 33.5 22.641 33.5C24.9937 33.5 27.1173 32.8278 29.0118 31.4833C30.9062 30.1389 32.2354 28.3667 32.9993 26.1667H34.9463C34.1372 28.9118 32.6008 31.1258 30.3373 32.8088C28.0737 34.4918 25.5083 35.3333 22.641 35.3333Z" fill="white"/>
</svg>
