<svg width="14" height="14" viewBox="0 0 14 14" fill="none" xmlns="http://www.w3.org/2000/svg">
<path d="M4.66689 9.45584L4.66689 4.54418C4.66661 4.35027 4.72125 4.16025 4.82448 3.9961C4.92772 3.83196 5.07533 3.70041 5.25022 3.61668C5.45774 3.51866 5.68862 3.4809 5.91655 3.50772C6.14448 3.53453 6.36029 3.62484 6.53939 3.76834L9.51439 6.22418C9.62559 6.32055 9.71477 6.43971 9.7759 6.57357C9.83702 6.70742 9.86865 6.85286 9.86865 7.00001C9.86865 7.14716 9.83702 7.2926 9.7759 7.42645C9.71477 7.56031 9.62559 7.67947 9.51439 7.77584L6.53939 10.2317C6.36029 10.3752 6.14448 10.4655 5.91655 10.4923C5.68862 10.5191 5.45774 10.4814 5.25022 10.3833C5.07533 10.2996 4.92772 10.1681 4.82448 10.0039C4.72125 9.83977 4.66661 9.64975 4.66689 9.45584Z" fill="white"/>
</svg>
