<svg width="22" height="28" viewBox="0 0 22 28" fill="none" xmlns="http://www.w3.org/2000/svg">
<path d="M4.88379 15.6997C4.96302 15.6925 5.07456 15.7143 5.23047 15.7954L5.40137 15.897C6.64519 16.7228 9.06095 17.9907 11.3828 17.9907C13.24 17.9907 15.004 17.1824 16.1963 16.436L16.6709 16.1226C17.0066 15.8883 17.3031 15.8063 17.5293 15.8364L17.6221 15.856C19.0067 16.2698 19.7964 17.2768 20.165 18.0776L20.2334 18.2349C20.3512 18.5245 20.4602 18.7699 20.5527 19.0122L20.6396 19.2554C20.7971 19.7302 21.0078 20.6773 21.1621 22.3257L21.2246 23.0767C21.3961 25.4176 19.8963 26.5451 18.8408 26.9341L18.6357 27.0024C18.5853 27.0174 18.5151 27.0278 18.4131 27.0278H3.26953C3.21768 27.0278 3.17667 27.0248 3.14453 27.021L3.07031 27.0063C2.57682 26.8511 1.86162 26.4018 1.35645 25.4663C0.885827 24.5947 0.571863 23.2507 0.861328 21.2495L0.927734 20.8403C1.60992 17.0073 3.52921 15.9314 4.66699 15.729L4.88379 15.6997ZM11.0449 1.18896C14.3589 1.18896 17.0459 3.87596 17.0459 7.18994C17.0456 10.5037 14.3587 13.1899 11.0449 13.1899C7.73111 13.1899 5.04519 10.5037 5.04492 7.18994C5.04492 3.87596 7.73094 1.18896 11.0449 1.18896Z" stroke="white" stroke-width="1.5"/>
</svg>
