<svg width="20" height="25" viewBox="0 0 20 25" fill="none" xmlns="http://www.w3.org/2000/svg">
<path fill-rule="evenodd" clip-rule="evenodd" d="M18.1032 7.61994H14.6783V6.15211H18.3491C19.0219 6.15211 19.5711 6.69766 19.5711 7.37041V23.2817C19.5698 23.6044 19.441 23.9135 19.2128 24.1417C18.9846 24.3699 18.6755 24.4987 18.3528 24.5H1.2183C0.895583 24.4987 0.586452 24.3699 0.358255 24.1417C0.130058 23.9135 0.0012883 23.6044 0 23.2817V7.37041C0.00129325 7.04706 0.130568 6.73738 0.359556 6.50908C0.588545 6.28078 0.898616 6.15243 1.22197 6.15211H4.89277V7.61994H1.46783V23.0322H18.1032V7.61994ZM10.5195 2.80301V14.1029H9.05162V2.80301L6.49882 5.35581L5.46033 4.31732L8.92074 0.858134C9.15013 0.628821 9.46119 0.5 9.78554 0.5C10.1099 0.5 10.421 0.628821 10.6503 0.858134L14.1108 4.31732L13.0723 5.35581L10.5195 2.80301Z" fill="white"/>
</svg>
