<svg width="32" height="24" viewBox="0 0 32 24" fill="none" xmlns="http://www.w3.org/2000/svg">
<g clip-path="url(#clip0_416_1202)">
<path fill-rule="evenodd" clip-rule="evenodd" d="M0.00292969 0H31.9972V24H0.00292969V0Z" fill="#F7FCFF"/>
<path fill-rule="evenodd" clip-rule="evenodd" d="M0.00292969 14.667V16.667H31.9972V14.667H0.00292969ZM0.00292969 18.333V20.333H31.9972V18.333H0.00292969ZM0.00292969 7.333V9.333H31.9972V7.333H0.00292969ZM0.00292969 22V24H31.9972V22H0.00292969ZM0.00292969 11V13H31.9972V11H0.00292969ZM0.00292969 0V2H31.9972V0H0.00292969ZM0.00292969 3.667V5.667H31.9972V3.667H0.00292969Z" fill="#E31D1C"/>
<path d="M0.00292969 0H19.9994V13H0.00292969V0Z" fill="#2E42A5"/>
<path fill-rule="evenodd" clip-rule="evenodd" d="M1.72468 2.93903L0.998805 3.44803L1.24376 2.54203L0.598877 1.96803H1.44173L1.72368 1.22803L2.05462 1.96803H2.77249L2.20859 2.54203L2.42655 3.44803L1.72468 2.93903ZM5.72396 2.93903L4.99809 3.44803L5.24305 2.54203L4.59916 1.96803H5.44101L5.72296 1.22803L6.0539 1.96803H6.77177L6.20787 2.54203L6.42584 3.44803L5.72396 2.93903ZM8.99738 3.44803L9.72325 2.93803L10.4251 3.44803L10.2072 2.54203L10.7711 1.96803H10.0532L9.72225 1.22803L9.4403 1.96803H8.59845L9.24233 2.54203L8.99738 3.44803ZM13.7225 2.93803L12.9967 3.44803L13.2416 2.54203L12.5977 1.96803H13.4396L13.7215 1.22803L14.0525 1.96803H14.7703L14.2064 2.54203L14.4244 3.44803L13.7225 2.93803ZM0.998805 7.44903L1.72468 6.93903L2.42655 7.44903L2.20859 6.54303L2.77249 5.96903H2.05462L1.72368 5.22903L1.44173 5.96903H0.598877L1.24376 6.54303L0.998805 7.44903ZM5.72396 6.93903L4.99809 7.44903L5.24305 6.54303L4.59916 5.96903H5.44101L5.72296 5.22903L6.0539 5.96903H6.77177L6.20787 6.54303L6.42584 7.44903L5.72396 6.93903ZM8.99738 7.44903L9.72325 6.93903L10.4251 7.44903L10.2072 6.54303L10.7711 5.96903H10.0532L9.72225 5.22903L9.4403 5.96903H8.59845L9.24233 6.54303L8.99738 7.44903ZM13.7225 6.93903L12.9967 7.44903L13.2416 6.54303L12.5977 5.96903H13.4396L13.7215 5.22903L14.0525 5.96903H14.7703L14.2064 6.54303L14.4244 7.44903L13.7225 6.93903ZM0.998805 11.449L1.72468 10.939L2.42655 11.449L2.20859 10.543L2.77249 9.96903H2.05462L1.72368 9.22903L1.44173 9.96903H0.598877L1.24376 10.543L0.998805 11.449ZM5.72396 10.939L4.99809 11.449L5.24305 10.543L4.59916 9.96903H5.44101L5.72296 9.22903L6.0539 9.96903H6.77177L6.20787 10.543L6.42584 11.449L5.72396 10.939ZM8.99738 11.449L9.72325 10.939L10.4251 11.449L10.2072 10.543L10.7711 9.96903H10.0532L9.72225 9.22903L9.4403 9.96903H8.59845L9.24233 10.543L8.99738 11.449ZM13.7225 10.939L12.9967 11.449L13.2416 10.543L12.5977 9.96903H13.4396L13.7215 9.22903L14.0525 9.96903H14.7703L14.2064 10.543L14.4244 11.449L13.7225 10.939ZM16.9959 3.44903L17.7218 2.93903L18.4237 3.44903L18.2057 2.54303L18.7696 1.96903H18.0518L17.7208 1.22903L17.4389 1.96903H16.596L17.2409 2.54303L16.9959 3.44903ZM17.7218 6.93903L16.9959 7.44903L17.2409 6.54303L16.596 5.96903H17.4389L17.7208 5.22903L18.0518 5.96903H18.7696L18.2057 6.54303L18.4237 7.44903L17.7218 6.93903ZM16.9959 11.449L17.7218 10.939L18.4237 11.449L18.2057 10.543L18.7696 9.96903H18.0518L17.7208 9.22903L17.4389 9.96903H16.596L17.2409 10.543L16.9959 11.449ZM3.72432 4.93803L2.99845 5.44803L3.2434 4.54203L2.59852 3.96803H3.44137L3.72332 3.22803L4.05426 3.96803H4.77213L4.20823 4.54203L4.42619 5.44803L3.72432 4.93803ZM6.99773 5.44803L7.7236 4.93803L8.42548 5.44803L8.20752 4.54203L8.77142 3.96803H8.05354L7.7226 3.22803L7.44065 3.96803H6.59781L7.24269 4.54203L6.99773 5.44803ZM11.7229 4.93803L10.997 5.44803L11.242 4.54203L10.5981 3.96803H11.4399L11.7219 3.22803L12.0528 3.96803H12.7707L12.2068 4.54203L12.4248 5.44803L11.7229 4.93803ZM2.99845 9.44803L3.72432 8.93803L4.42619 9.44803L4.20823 8.54203L4.77213 7.96803H4.05426L3.72332 7.22803L3.44137 7.96803H2.59852L3.2434 8.54203L2.99845 9.44803ZM7.7236 8.93803L6.99773 9.44803L7.24269 8.54203L6.5988 7.96803H7.44065L7.7226 7.22803L8.05354 7.96803H8.77142L8.20752 8.54203L8.42548 9.44803L7.7236 8.93803ZM10.997 9.44803L11.7229 8.93803L12.4248 9.44803L12.2068 8.54203L12.7707 7.96803H12.0528L11.7219 7.22803L11.4399 7.96803H10.5981L11.242 8.54203L10.997 9.44803ZM15.7222 4.93803L14.9963 5.44803L15.2413 4.54203L14.5974 3.96803H15.4392L15.7212 3.22803L16.0521 3.96803H16.77L16.2061 4.54203L16.424 5.44803L15.7222 4.93803ZM14.9963 9.44803L15.7222 8.93803L16.424 9.44803L16.2061 8.54203L16.77 7.96803H16.0521L15.7212 7.22803L15.4392 7.96803H14.5974L15.2413 8.54203L14.9963 9.44803Z" fill="#F7FCFF"/>
</g>
<defs>
<clipPath id="clip0_416_1202">
<rect width="32" height="24" rx="4" fill="white"/>
</clipPath>
</defs>
</svg>
